<?xml version="1.0" encoding="UTF-8" standalone="no"?>
<!-- Generator: Adobe Illustrator 21.0.2, SVG Export Plug-In . SVG Version: 6.00 Build 0)  -->

<svg
   xmlns:dc="http://purl.org/dc/elements/1.1/"
   xmlns:cc="http://creativecommons.org/ns#"
   xmlns:rdf="http://www.w3.org/1999/02/22-rdf-syntax-ns#"
   xmlns:svg="http://www.w3.org/2000/svg"
   xmlns="http://www.w3.org/2000/svg"
   xmlns:sodipodi="http://sodipodi.sourceforge.net/DTD/sodipodi-0.dtd"
   xmlns:inkscape="http://www.inkscape.org/namespaces/inkscape"
   version="1.1"
   id="svg10"
   inkscape:version="0.92.1 r15371"
   sodipodi:docname="schema-abs-init.svg"
   x="0px"
   y="0px"
   viewBox="0 0 614 1169"
   style="enable-background:new 0 0 614 1169;"
   xml:space="preserve"><metadata
     id="metadata446"><rdf:RDF><cc:Work
         rdf:about=""><dc:format>image/svg+xml</dc:format><dc:type
           rdf:resource="http://purl.org/dc/dcmitype/StillImage" /><dc:title></dc:title></cc:Work></rdf:RDF></metadata><defs
     id="defs444" /><style
     type="text/css"
     id="style2">
	.st0{fill:#FFFFFF;}
	.st1{font-family:'Monofonto';}
	.st2{font-size:21px;}
	.st3{fill:#F6F4E7;stroke:#E4E1CC;}
	.st4{fill:#634333;stroke:#8C3B2A;stroke-width:3;}
	.st5{fill:#D2B897;stroke:#8C3B2A;}
	.st6{fill:none;}
	.st7{fill:#C6C5BE;}
	.st8{fill:#C6C6C6;}
	.st9{fill:#1D1D1B;}
	.st10{fill:#F3F3F3;}
	.st11{fill:#3C3C3B;}
	.st12{fill:#848484;}
	.st13{fill:#575756;}
	.st14{opacity:0.5;fill:url(#path6099_1_);enable-background:new    ;}
	.st15{fill:#CC9C76;}
</style><g
     id="g5469" /><g
     id="g5453" /><sodipodi:namedview
     bordercolor="#666666"
     borderopacity="1"
     gridtolerance="10"
     guidetolerance="10"
     id="namedview6258"
     inkscape:current-layer="svg10"
     inkscape:cx="178.00187"
     inkscape:cy="934.32544"
     inkscape:pageopacity="0"
     inkscape:pageshadow="2"
     inkscape:window-height="998"
     inkscape:window-maximized="1"
     inkscape:window-width="1400"
     inkscape:window-x="-8"
     inkscape:window-y="-8"
     inkscape:zoom="1.3721129"
     objecttolerance="10"
     pagecolor="#ffffff"
     showgrid="false" /><text
     id="text5380"
     transform="matrix(1 0 0 1 276.4998 233.5001)"
     class="st0 st1 st2">202</text>
<rect
     id="rect5382"
     class="st3"
     width="615"
     height="1169" /><ellipse
     id="204"
     inkscape:label="#path22"
     class="st4"
     cx="294.5"
     cy="513.7"
     rx="42"
     ry="39.9" /><ellipse
     id="203"
     inkscape:label="#ellipse4517"
     class="st4"
     cx="294.5"
     cy="387.5"
     rx="42"
     ry="39.9" /><path
     id="path4527"
     inkscape:connector-curvature="0"
     class="st5"
     d="M8.7,333.1l0.4,91.5l152.7,0.7v-28.8l-117.7,0.7l-0.4-64.9  L8.7,333.1z" /><path
     id="path4538"
     inkscape:connector-curvature="0"
     class="st5"
     d="M8.7,548.1l0.4-91.5l152.7-0.7v28.8L44.1,484l-0.4,64.9  L8.7,548.1z" /><rect
     style="fill:#634333;stroke:#8c3b2a;stroke-width:3"
     id="103"
     x="48"
     y="332.29999"
     inkscape:label="#rect5388"
     class="st4"
     width="91.5"
     height="59.200001" /><rect
     id="104"
     x="48"
     y="489.8"
     inkscape:label="#rect5390"
     class="st4"
     width="91.5"
     height="59.2" /><rect
     style="fill:#634333;stroke:#8c3b2a;stroke-width:3"
     id="102"
     x="48"
     y="222.3"
     inkscape:label="#rect5392"
     class="st4"
     width="91.5"
     height="59.200001" /><rect
     style="fill:#634333;stroke:#8c3b2a;stroke-width:3"
     id="101"
     x="48"
     y="65.800003"
     inkscape:label="#rect5394"
     class="st4"
     width="91.5"
     height="59.200001" /><rect
     id="105"
     x="48"
     y="600.3"
     inkscape:label="#rect5396"
     class="st4"
     width="91.5"
     height="59.2" /><rect
     id="106"
     x="48"
     y="757.8"
     inkscape:label="#rect5398"
     class="st4"
     width="91.5"
     height="59.2" /><rect
     id="303"
     x="417.5"
     y="502.3"
     inkscape:label="#rect5400"
     class="st4"
     width="82.5"
     height="59.2" /><rect
     id="201"
     x="257"
     y="81.2"
     inkscape:label="#rect5402"
     class="st4"
     width="77"
     height="59.2" /><rect
     id="202"
     x="257"
     y="163.2"
     inkscape:label="#rect5404"
     class="st4"
     width="77"
     height="126.3" /><rect
     id="301"
     x="386"
     y="196.8"
     inkscape:label="#rect5406"
     class="st4"
     width="72.8"
     height="59.2" /><rect
     id="302"
     x="491"
     y="241.3"
     inkscape:label="#rect5408"
     class="st4"
     width="78"
     height="59.2" /><rect
     id="304"
     x="384.9"
     y="665.3"
     inkscape:label="#rect5410"
     class="st4"
     width="75.8"
     height="59.2" /><rect
     id="205"
     x="256.5"
     y="596.3"
     inkscape:label="#rect5412"
     class="st4"
     width="76"
     height="121.2" /><rect
     id="206"
     x="256.5"
     y="731.8"
     inkscape:label="#rect5414"
     class="st4"
     width="76"
     height="61.7" /><rect
     id="rect5416"
     x="343.5"
     y="81.2"
     class="st5"
     width="35.5"
     height="208.3" /><rect
     id="rect5418"
     x="491"
     y="205"
     class="st5"
     width="78"
     height="28.5" /><rect
     id="rect5420"
     x="491"
     y="308.3"
     class="st5"
     width="78"
     height="28.5" /><rect
     id="rect5422"
     x="419.8"
     y="466.5"
     class="st5"
     width="78"
     height="28.5" /><rect
     id="rect5424"
     x="419.8"
     y="568.8"
     class="st5"
     width="78"
     height="28.5" /><rect
     id="rect5426"
     x="344.5"
     y="596.3"
     class="st5"
     width="35.5"
     height="197.2" /><path
     id="path4538_1_"
     inkscape:connector-curvature="0"
     class="st5"
     d="M8.7,815.7l0.4-91.5l152.7-0.7v28.8l-117.7-0.7l-0.4,64.9  L8.7,815.7z" /><path
     id="path4538_2_"
     inkscape:connector-curvature="0"
     class="st5"
     d="M8.7,279.2l0.4-91.5l152.7-0.7v28.8l-117.7-0.7L43.7,280  L8.7,279.2z" /><path
     id="path4527_1_"
     inkscape:connector-curvature="0"
     class="st5"
     d="M8.7,66.6L9.1,158l152.7,0.7V130l-117.7,0.7l-0.4-64.9  L8.7,66.6z" /><path
     id="path4527_2_"
     inkscape:connector-curvature="0"
     class="st5"
     d="M8.7,601.1l0.4,91.5l152.7,0.7v-28.8l-117.7,0.7l-0.4-64.9  L8.7,601.1z" /><g
     id="g5444"><line
       id="line5432"
       class="st6"
       x1="8.7"
       y1="7"
       x2="605"
       y2="7" /><g
       id="g5442"><line
         id="line5434"
         class="st6"
         x1="605"
         y1="427.4"
         x2="605"
         y2="7" /><g
         id="g5440"><line
           id="line5436"
           class="st6"
           x1="591.5"
           y1="427.4"
           x2="605"
           y2="427.4" /><path
           id="path5438"
           class="st7"
           d="M510.5,495v662" /></g></g></g><g
     id="g6103"><g
       id="g5460"><g
         id="g5458"><g
           id="g5456" /></g></g><g
       id="g5476"><g
         id="g5474"><polygon
           id="polygon5472"
           class="st8"
           points="476,432.1 475.7,431.9 517.2,373.4 517.5,373.6 519.2,371.2 510.6,365.1      508.9,367.5 509.4,367.9 467.9,426.4 467.4,426 465.7,428.4 474.3,434.5    " /></g></g><g
       id="g6101"><rect
         id="rect5478"
         x="459.8"
         y="396.4"
         transform="matrix(0.5785 -0.8157 0.8157 0.5785 -118.6851 571.5745)"
         width="67.8"
         height="8.5" /><rect
         id="rect5480"
         x="512.6"
         y="367.2"
         transform="matrix(0.5785 -0.8157 0.8157 0.5785 -86.6173 576.0032)"
         class="st9"
         width="2.8"
         height="9.3" /><rect
         id="rect5482"
         x="471.8"
         y="424.7"
         transform="matrix(0.5785 -0.8157 0.8157 0.5785 -150.7521 566.9802)"
         class="st9"
         width="2.8"
         height="9.3" /><g
         id="g6090"><g
           id="g5568"><g
             id="g5526"><g
               id="g5488"><path
                 id="path5484"
                 class="st10"
                 d="M473.3,423.8c-0.1-0.1-0.1-0.2-0.1-0.2l0.6-0.8c0-0.1,0.2-0.1,0.2,0l5.5,3.9        c0.1,0.1,0.1,0.2,0.1,0.2l-0.6,0.8c0,0.1-0.2,0.1-0.2,0L473.3,423.8z" /><path
                 id="path5486"
                 class="st0"
                 d="M473.4,423.9c-0.1-0.1-0.1-0.2-0.1-0.2l0.5-0.7c0-0.1,0.2-0.1,0.2,0l5.4,3.8        c0.1,0.1,0.1,0.2,0.1,0.2l-0.5,0.7c0,0.1-0.2,0.1-0.2,0L473.4,423.9z" /></g><g
               id="g5494"><path
                 id="path5490"
                 class="st10"
                 d="M474,422.8c-0.1-0.1-0.1-0.2-0.1-0.2l0.6-0.8c0-0.1,0.2-0.1,0.2,0l5.5,3.9        c0.1,0.1,0.1,0.2,0.1,0.2l-0.6,0.8c0,0.1-0.2,0.1-0.2,0L474,422.8z" /><path
                 id="path5492"
                 class="st0"
                 d="M474.1,422.9c-0.1-0.1-0.1-0.2-0.1-0.2l0.5-0.7c0-0.1,0.2-0.1,0.2,0l5.4,3.8        c0.1,0.1,0.1,0.2,0.1,0.2l-0.5,0.7c0,0.1-0.2,0.1-0.2,0L474.1,422.9z" /></g><g
               id="g5500"><path
                 id="path5496"
                 class="st10"
                 d="M474.7,421.8c-0.1-0.1-0.1-0.2-0.1-0.2l0.6-0.8c0-0.1,0.2-0.1,0.2,0l5.5,3.9        c0.1,0.1,0.1,0.2,0.1,0.2l-0.6,0.8c0,0.1-0.2,0.1-0.2,0L474.7,421.8z" /><path
                 id="path5498"
                 class="st0"
                 d="M474.8,421.8c-0.1-0.1-0.1-0.2-0.1-0.2l0.5-0.7c0-0.1,0.2-0.1,0.2,0l5.4,3.8        c0.1,0.1,0.1,0.2,0.1,0.2l-0.5,0.7c0,0.1-0.2,0.1-0.2,0L474.8,421.8z" /></g><g
               id="g5506"><path
                 id="path5502"
                 class="st10"
                 d="M475.4,420.8c-0.1-0.1-0.1-0.2-0.1-0.2l0.6-0.8c0-0.1,0.2-0.1,0.2,0l5.5,3.9        c0.1,0.1,0.1,0.2,0.1,0.2l-0.6,0.8c0,0.1-0.2,0.1-0.2,0L475.4,420.8z" /><path
                 id="path5504"
                 class="st0"
                 d="M475.5,420.8c-0.1-0.1-0.1-0.2-0.1-0.2l0.5-0.7c0-0.1,0.2-0.1,0.2,0l5.4,3.8        c0.1,0.1,0.1,0.2,0.1,0.2l-0.5,0.7c0,0.1-0.2,0.1-0.2,0L475.5,420.8z" /></g><g
               id="g5512"><path
                 id="path5508"
                 class="st10"
                 d="M476.1,419.8c-0.1-0.1-0.1-0.2-0.1-0.2l0.6-0.8c0-0.1,0.2-0.1,0.2,0l5.5,3.9        c0.1,0.1,0.1,0.2,0.1,0.2l-0.6,0.8c0,0.1-0.2,0.1-0.2,0L476.1,419.8z" /><path
                 id="path5510"
                 class="st0"
                 d="M476.2,419.8c-0.1-0.1-0.1-0.2-0.1-0.2l0.5-0.7c0-0.1,0.2-0.1,0.2,0l5.4,3.8        c0.1,0.1,0.1,0.2,0.1,0.2l-0.5,0.7c0,0.1-0.2,0.1-0.2,0L476.2,419.8z" /></g><g
               id="g5518"><path
                 id="path5514"
                 class="st10"
                 d="M476.8,418.7c-0.1-0.1-0.1-0.2-0.1-0.2l0.6-0.8c0-0.1,0.2-0.1,0.2,0l5.5,3.9        c0.1,0.1,0.1,0.2,0.1,0.2l-0.6,0.8c0,0.1-0.2,0.1-0.2,0L476.8,418.7z" /><path
                 id="path5516"
                 class="st0"
                 d="M476.9,418.8c-0.1-0.1-0.1-0.2-0.1-0.2l0.5-0.7c0-0.1,0.2-0.1,0.2,0l5.4,3.8        c0.1,0.1,0.1,0.2,0.1,0.2l-0.5,0.7c0,0.1-0.2,0.1-0.2,0L476.9,418.8z" /></g><g
               id="g5524"><path
                 id="path5520"
                 class="st10"
                 d="M477.6,417.7c-0.1-0.1-0.1-0.2-0.1-0.2l0.6-0.8c0-0.1,0.2-0.1,0.2,0l5.5,3.9        c0.1,0.1,0.1,0.2,0.1,0.2l-0.6,0.8c0,0.1-0.2,0.1-0.2,0L477.6,417.7z" /><path
                 id="path5522"
                 class="st0"
                 d="M477.7,417.8c-0.1-0.1-0.1-0.2-0.1-0.2l0.5-0.7c0-0.1,0.2-0.1,0.2,0l5.4,3.8        c0.1,0.1,0.1,0.2,0.1,0.2l-0.5,0.7c0,0.1-0.2,0.1-0.2,0L477.7,417.8z" /></g></g><g
             id="g5534"><path
               id="path5528"
               class="st11"
               d="M479.6,419.6c-0.1-0.1-0.1-0.2-0.1-0.2l0.2-0.3c0-0.1,0.2-0.1,0.2,0l2.8,2       c0.1,0.1,0.1,0.2,0.1,0.2l-0.2,0.3c0,0.1-0.2,0.1-0.2,0L479.6,419.6z" /><path
               id="path5530"
               class="st12"
               d="M479.7,419.6C479.7,419.6,479.7,419.5,479.7,419.6l0.2-0.4l0,0l2.8,2l0,0l-0.3,0.4l0,0       L479.7,419.6z" /><path
               id="path5532"
               class="st13"
               d="M481,420.2c0.2,0,0.4,0.1,0.6,0.1l-1.6-1.1l0,0l-0.3,0.4l0,0l0.8,0.6       C480.7,420.2,480.8,420.2,481,420.2z" /></g><g
             id="g5542"><path
               id="path5536"
               class="st11"
               d="M478.9,420.6c-0.1-0.1-0.1-0.2-0.1-0.2l0.2-0.3c0-0.1,0.2-0.1,0.2,0l2.8,2       c0.1,0.1,0.1,0.2,0.1,0.2l-0.2,0.3c0,0.1-0.2,0.1-0.2,0L478.9,420.6z" /><path
               id="path5538"
               class="st12"
               d="M479,420.6L479,420.6l0.2-0.4l0,0l2.8,2l0,0l-0.3,0.4l0,0L479,420.6z" /><path
               id="path5540"
               class="st13"
               d="M480.2,421.2c0.2,0,0.4,0.1,0.6,0.1l-1.6-1.1l0,0l-0.3,0.4l0,0l0.8,0.6       C480,421.2,480.1,421.2,480.2,421.2z" /></g><g
             id="g5550"><path
               id="path5544"
               class="st11"
               d="M478.2,421.7c-0.1-0.1-0.1-0.2-0.1-0.2l0.2-0.3c0-0.1,0.2-0.1,0.2,0l2.8,2       c0.1,0.1,0.1,0.2,0.1,0.2l-0.2,0.3c0,0.1-0.2,0.1-0.2,0L478.2,421.7z" /><path
               id="path5546"
               class="st12"
               d="M478.3,421.6L478.3,421.6l0.2-0.4l0,0l2.8,2l0,0l-0.3,0.4l0,0L478.3,421.6z" /><path
               id="path5548"
               class="st13"
               d="M479.5,422.2c0.2,0,0.4,0.1,0.6,0.1l-1.6-1.1l0,0l-0.3,0.4l0,0l0.8,0.6       C479.3,422.2,479.4,422.2,479.5,422.2z" /></g><g
             id="g5558"><path
               id="path5552"
               class="st11"
               d="M476.8,423.7c-0.1-0.1-0.1-0.2-0.1-0.2l0.2-0.3c0-0.1,0.2-0.1,0.2,0l2.8,2       c0.1,0.1,0.1,0.2,0.1,0.2l-0.2,0.3c0,0.1-0.2,0.1-0.2,0L476.8,423.7z" /><path
               id="path5554"
               class="st12"
               d="M476.9,423.6L476.9,423.6l0.2-0.4l0,0l2.8,2l0,0l-0.3,0.4l0,0L476.9,423.6z" /><path
               id="path5556"
               class="st13"
               d="M478.1,424.2c0.2,0,0.4,0.1,0.6,0.1l-1.6-1.1l0,0l-0.3,0.4l0,0l0.8,0.6       C477.8,424.2,478,424.2,478.1,424.2z" /></g><g
             id="g5566"><path
               id="path5560"
               class="st11"
               d="M476.1,424.7c-0.1-0.1-0.1-0.2-0.1-0.2l0.2-0.3c0-0.1,0.2-0.1,0.2,0l2.8,2       c0.1,0.1,0.1,0.2,0.1,0.2l-0.2,0.3c0,0.1-0.2,0.1-0.2,0L476.1,424.7z" /><path
               id="path5562"
               class="st12"
               d="M476.2,424.6C476.1,424.6,476.1,424.6,476.2,424.6l0.2-0.4l0,0l2.8,2l0,0l-0.3,0.4l0,0       L476.2,424.6z" /><path
               id="path5564"
               class="st13"
               d="M477.4,425.3c0.2,0,0.4,0.1,0.6,0.1l-1.6-1.1l0,0l-0.3,0.4l0,0l0.8,0.6       C477.1,425.2,477.3,425.2,477.4,425.3z" /></g></g><g
           id="g5654"><g
             id="g5612"><g
               id="g5574"><path
                 id="path5570"
                 class="st10"
                 d="M478.3,416.7c-0.1-0.1-0.1-0.2-0.1-0.2l0.6-0.8c0-0.1,0.2-0.1,0.2,0l5.5,3.9        c0.1,0.1,0.1,0.2,0.1,0.2l-0.6,0.8c0,0.1-0.2,0.1-0.2,0L478.3,416.7z" /><path
                 id="path5572"
                 class="st0"
                 d="M478.4,416.8c-0.1-0.1-0.1-0.2-0.1-0.2l0.5-0.7c0-0.1,0.2-0.1,0.2,0l5.4,3.8        c0.1,0.1,0.1,0.2,0.1,0.2l-0.5,0.7c0,0.1-0.2,0.1-0.2,0L478.4,416.8z" /></g><g
               id="g5580"><path
                 id="path5576"
                 class="st10"
                 d="M479,415.7c-0.1-0.1-0.1-0.2-0.1-0.2l0.6-0.8c0-0.1,0.2-0.1,0.2,0l5.5,3.9        c0.1,0.1,0.1,0.2,0.1,0.2l-0.6,0.8c0,0.1-0.2,0.1-0.2,0L479,415.7z" /><path
                 id="path5578"
                 class="st0"
                 d="M479.1,415.8c-0.1-0.1-0.1-0.2-0.1-0.2l0.5-0.7c0-0.1,0.2-0.1,0.2,0l5.4,3.8        c0.1,0.1,0.1,0.2,0.1,0.2l-0.5,0.7c0,0.1-0.2,0.1-0.2,0L479.1,415.8z" /></g><g
               id="g5586"><path
                 id="path5582"
                 class="st10"
                 d="M479.7,414.7c-0.1-0.1-0.1-0.2-0.1-0.2l0.6-0.8c0-0.1,0.2-0.1,0.2,0l5.5,3.9        c0.1,0.1,0.1,0.2,0.1,0.2l-0.6,0.8c0,0.1-0.2,0.1-0.2,0L479.7,414.7z" /><path
                 id="path5584"
                 class="st0"
                 d="M479.8,414.8c-0.1-0.1-0.1-0.2-0.1-0.2l0.5-0.7c0-0.1,0.2-0.1,0.2,0l5.4,3.8        c0.1,0.1,0.1,0.2,0.1,0.2l-0.5,0.7c0,0.1-0.2,0.1-0.2,0L479.8,414.8z" /></g><g
               id="g5592"><path
                 id="path5588"
                 class="st10"
                 d="M480.4,413.7c-0.1-0.1-0.1-0.2-0.1-0.2l0.6-0.8c0-0.1,0.2-0.1,0.2,0l5.5,3.9        c0.1,0.1,0.1,0.2,0.1,0.2l-0.6,0.8c0,0.1-0.2,0.1-0.2,0L480.4,413.7z" /><path
                 id="path5590"
                 class="st0"
                 d="M480.5,413.7c-0.1-0.1-0.1-0.2-0.1-0.2l0.5-0.7c0-0.1,0.2-0.1,0.2,0l5.4,3.8        c0.1,0.1,0.1,0.2,0.1,0.2l-0.5,0.7c0,0.1-0.2,0.1-0.2,0L480.5,413.7z" /></g><g
               id="g5598"><path
                 id="path5594"
                 class="st10"
                 d="M481.2,412.7c-0.1-0.1-0.1-0.2-0.1-0.2l0.6-0.8c0-0.1,0.2-0.1,0.2,0l5.5,3.9        c0.1,0.1,0.1,0.2,0.1,0.2l-0.6,0.8c0,0.1-0.2,0.1-0.2,0L481.2,412.7z" /><path
                 id="path5596"
                 class="st0"
                 d="M481.3,412.7c-0.1-0.1-0.1-0.2-0.1-0.2l0.5-0.7c0-0.1,0.2-0.1,0.2,0l5.4,3.8        c0.1,0.1,0.1,0.2,0.1,0.2l-0.5,0.7c0,0.1-0.2,0.1-0.2,0L481.3,412.7z" /></g><g
               id="g5604"><path
                 id="path5600"
                 class="st10"
                 d="M481.9,411.7c-0.1-0.1-0.1-0.2-0.1-0.2l0.6-0.8c0-0.1,0.2-0.1,0.2,0l5.5,3.9        c0.1,0.1,0.1,0.2,0.1,0.2l-0.6,0.8c0,0.1-0.2,0.1-0.2,0L481.9,411.7z" /><path
                 id="path5602"
                 class="st0"
                 d="M482,411.7c-0.1-0.1-0.1-0.2-0.1-0.2l0.5-0.7c0-0.1,0.2-0.1,0.2,0l5.4,3.8        c0.1,0.1,0.1,0.2,0.1,0.2l-0.5,0.7c0,0.1-0.2,0.1-0.2,0L482,411.7z" /></g><g
               id="g5610"><path
                 id="path5606"
                 class="st10"
                 d="M482.6,410.6c-0.1-0.1-0.1-0.2-0.1-0.2l0.6-0.8c0-0.1,0.2-0.1,0.2,0l5.5,3.9        c0.1,0.1,0.1,0.2,0.1,0.2l-0.6,0.8c0,0.1-0.2,0.1-0.2,0L482.6,410.6z" /><path
                 id="path5608"
                 class="st0"
                 d="M482.7,410.7c-0.1-0.1-0.1-0.2-0.1-0.2l0.5-0.7c0-0.1,0.2-0.1,0.2,0l5.4,3.8        c0.1,0.1,0.1,0.2,0.1,0.2l-0.5,0.7c0,0.1-0.2,0.1-0.2,0L482.7,410.7z" /></g></g><g
             id="g5620"><path
               id="path5614"
               class="st11"
               d="M484.7,412.5c-0.1-0.1-0.1-0.2-0.1-0.2l0.2-0.3c0-0.1,0.2-0.1,0.2,0l2.8,2       c0.1,0.1,0.1,0.2,0.1,0.2l-0.2,0.3c0,0.1-0.2,0.1-0.2,0L484.7,412.5z" /><path
               id="path5616"
               class="st12"
               d="M484.8,412.5C484.8,412.5,484.7,412.5,484.8,412.5l0.2-0.4l0,0l2.8,2l0,0l-0.3,0.4l0,0       L484.8,412.5z" /><path
               id="path5618"
               class="st13"
               d="M486,413.1c0.2,0,0.4,0.1,0.6,0.1l-1.6-1.1l0,0l-0.3,0.4l0,0l0.8,0.6       C485.7,413.1,485.9,413.1,486,413.1z" /></g><g
             id="g5628"><path
               id="path5622"
               class="st11"
               d="M484,413.6c-0.1-0.1-0.1-0.2-0.1-0.2l0.2-0.3c0-0.1,0.2-0.1,0.2,0l2.8,2       c0.1,0.1,0.1,0.2,0.1,0.2l-0.2,0.3c0,0.1-0.2,0.1-0.2,0L484,413.6z" /><path
               id="path5624"
               class="st12"
               d="M484,413.5L484,413.5l0.2-0.4l0,0l2.8,2l0,0l-0.3,0.4l0,0L484,413.5z" /><path
               id="path5626"
               class="st13"
               d="M485.3,414.1c0.2,0,0.4,0.1,0.6,0.1l-1.6-1.1l0,0l-0.3,0.4l0,0l0.8,0.6       C485,414.1,485.1,414.1,485.3,414.1z" /></g><g
             id="g5636"><path
               id="path5630"
               class="st11"
               d="M483.2,414.6c-0.1-0.1-0.1-0.2-0.1-0.2l0.2-0.3c0-0.1,0.2-0.1,0.2,0l2.8,2       c0.1,0.1,0.1,0.2,0.1,0.2l-0.2,0.3c0,0.1-0.2,0.1-0.2,0L483.2,414.6z" /><path
               id="path5632"
               class="st12"
               d="M483.3,414.5L483.3,414.5l0.2-0.4l0,0l2.8,2l0,0l-0.3,0.4l0,0L483.3,414.5z" /><path
               id="path5634"
               class="st13"
               d="M484.5,415.2c0.2,0,0.4,0.1,0.6,0.1l-1.6-1.1l0,0l-0.3,0.4l0,0l0.8,0.6       C484.3,415.1,484.4,415.1,484.5,415.2z" /></g><g
             id="g5644"><path
               id="path5638"
               class="st11"
               d="M481.8,416.6c-0.1-0.1-0.1-0.2-0.1-0.2l0.2-0.3c0-0.1,0.2-0.1,0.2,0l2.8,2       c0.1,0.1,0.1,0.2,0.1,0.2l-0.2,0.3c0,0.1-0.2,0.1-0.2,0L481.8,416.6z" /><path
               id="path5640"
               class="st12"
               d="M481.9,416.5L481.9,416.5l0.2-0.4l0,0l2.8,2l0,0l-0.3,0.4l0,0L481.9,416.5z" /><path
               id="path5642"
               class="st13"
               d="M483.1,417.2c0.2,0,0.4,0.1,0.6,0.1l-1.6-1.1l0,0l-0.3,0.4l0,0l0.8,0.6       C482.9,417.1,483,417.1,483.1,417.2z" /></g><g
             id="g5652"><path
               id="path5646"
               class="st11"
               d="M481.1,417.6c-0.1-0.1-0.1-0.2-0.1-0.2l0.2-0.3c0-0.1,0.2-0.1,0.2,0l2.8,2       c0.1,0.1,0.1,0.2,0.1,0.2l-0.2,0.3c0,0.1-0.2,0.1-0.2,0L481.1,417.6z" /><path
               id="path5648"
               class="st12"
               d="M481.2,417.5L481.2,417.5l0.2-0.4l0,0l2.8,2l0,0l-0.3,0.4l0,0L481.2,417.5z" /><path
               id="path5650"
               class="st13"
               d="M482.4,418.2c0.2,0,0.4,0.1,0.6,0.1l-1.6-1.1l0,0l-0.3,0.4l0,0l0.8,0.6       C482.2,418.1,482.3,418.2,482.4,418.2z" /></g></g><g
           id="g5740"><g
             id="g5698"><g
               id="g5660"><path
                 id="path5656"
                 class="st10"
                 d="M483.3,409.6c-0.1-0.1-0.1-0.2-0.1-0.2l0.6-0.8c0-0.1,0.2-0.1,0.2,0l5.5,3.9        c0.1,0.1,0.1,0.2,0.1,0.2l-0.6,0.8c0,0.1-0.2,0.1-0.2,0L483.3,409.6z" /><path
                 id="path5658"
                 class="st0"
                 d="M483.4,409.7c-0.1-0.1-0.1-0.2-0.1-0.2l0.5-0.7c0-0.1,0.2-0.1,0.2,0l5.4,3.8        c0.1,0.1,0.1,0.2,0.1,0.2l-0.5,0.7c0,0.1-0.2,0.1-0.2,0L483.4,409.7z" /></g><g
               id="g5666"><path
                 id="path5662"
                 class="st10"
                 d="M484.1,408.6c-0.1-0.1-0.1-0.2-0.1-0.2l0.6-0.8c0-0.1,0.2-0.1,0.2,0l5.5,3.9        c0.1,0.1,0.1,0.2,0.1,0.2l-0.6,0.8c0,0.1-0.2,0.1-0.2,0L484.1,408.6z" /><path
                 id="path5664"
                 class="st0"
                 d="M484.2,408.7c-0.1-0.1-0.1-0.2-0.1-0.2l0.5-0.7c0-0.1,0.2-0.1,0.2,0l5.4,3.8        c0.1,0.1,0.1,0.2,0.1,0.2l-0.5,0.7c0,0.1-0.2,0.1-0.2,0L484.2,408.7z" /></g><g
               id="g5672"><path
                 id="path5668"
                 class="st10"
                 d="M484.8,407.6c-0.1-0.1-0.1-0.2-0.1-0.2l0.6-0.8c0-0.1,0.2-0.1,0.2,0l5.5,3.9        c0.1,0.1,0.1,0.2,0.1,0.2l-0.6,0.8c0,0.1-0.2,0.1-0.2,0L484.8,407.6z" /><path
                 id="path5670"
                 class="st0"
                 d="M484.9,407.6c-0.1-0.1-0.1-0.2-0.1-0.2l0.5-0.7c0-0.1,0.2-0.1,0.2,0l5.4,3.8        c0.1,0.1,0.1,0.2,0.1,0.2l-0.5,0.7c0,0.1-0.2,0.1-0.2,0L484.9,407.6z" /></g><g
               id="g5678"><path
                 id="path5674"
                 class="st10"
                 d="M485.5,406.6c-0.1-0.1-0.1-0.2-0.1-0.2l0.6-0.8c0-0.1,0.2-0.1,0.2,0l5.5,3.9        c0.1,0.1,0.1,0.2,0.1,0.2l-0.6,0.8c0,0.1-0.2,0.1-0.2,0L485.5,406.6z" /><path
                 id="path5676"
                 class="st0"
                 d="M485.6,406.6c-0.1-0.1-0.1-0.2-0.1-0.2l0.5-0.7c0-0.1,0.2-0.1,0.2,0l5.4,3.8        c0.1,0.1,0.1,0.2,0.1,0.2l-0.5,0.7c0,0.1-0.2,0.1-0.2,0L485.6,406.6z" /></g><g
               id="g5684"><path
                 id="path5680"
                 class="st10"
                 d="M486.2,405.6c-0.1-0.1-0.1-0.2-0.1-0.2l0.6-0.8c0-0.1,0.2-0.1,0.2,0l5.5,3.9        c0.1,0.1,0.1,0.2,0.1,0.2l-0.6,0.8c0,0.1-0.2,0.1-0.2,0L486.2,405.6z" /><path
                 id="path5682"
                 class="st0"
                 d="M486.3,405.6c-0.1-0.1-0.1-0.2-0.1-0.2l0.5-0.7c0-0.1,0.2-0.1,0.2,0l5.4,3.8        c0.1,0.1,0.1,0.2,0.1,0.2l-0.5,0.7c0,0.1-0.2,0.1-0.2,0L486.3,405.6z" /></g><g
               id="g5690"><path
                 id="path5686"
                 class="st10"
                 d="M486.9,404.5c-0.1-0.1-0.1-0.2-0.1-0.2l0.6-0.8c0-0.1,0.2-0.1,0.2,0l5.5,3.9        c0.1,0.1,0.1,0.2,0.1,0.2l-0.6,0.8c0,0.1-0.2,0.1-0.2,0L486.9,404.5z" /><path
                 id="path5688"
                 class="st0"
                 d="M487,404.6c-0.1-0.1-0.1-0.2-0.1-0.2l0.5-0.7c0-0.1,0.2-0.1,0.2,0l5.4,3.8        c0.1,0.1,0.1,0.2,0.1,0.2l-0.5,0.7c0,0.1-0.2,0.1-0.2,0L487,404.6z" /></g><g
               id="g5696"><path
                 id="path5692"
                 class="st10"
                 d="M487.6,403.5c-0.1-0.1-0.1-0.2-0.1-0.2l0.6-0.8c0-0.1,0.2-0.1,0.2,0l5.5,3.9        c0.1,0.1,0.1,0.2,0.1,0.2l-0.6,0.8c0,0.1-0.2,0.1-0.2,0L487.6,403.5z" /><path
                 id="path5694"
                 class="st0"
                 d="M487.7,403.6c-0.1-0.1-0.1-0.2-0.1-0.2l0.5-0.7c0-0.1,0.2-0.1,0.2,0l5.4,3.8        c0.1,0.1,0.1,0.2,0.1,0.2l-0.5,0.7c0,0.1-0.2,0.1-0.2,0L487.7,403.6z" /></g></g><g
             id="g5706"><path
               id="path5700"
               class="st11"
               d="M489.7,405.4c-0.1-0.1-0.1-0.2-0.1-0.2l0.2-0.3c0-0.1,0.2-0.1,0.2,0l2.8,2       c0.1,0.1,0.1,0.2,0.1,0.2l-0.2,0.3c0,0.1-0.2,0.1-0.2,0L489.7,405.4z" /><path
               id="path5702"
               class="st12"
               d="M489.8,405.4C489.8,405.4,489.8,405.3,489.8,405.4l0.2-0.4l0,0l2.8,2l0,0l-0.3,0.4l0,0       L489.8,405.4z" /><path
               id="path5704"
               class="st13"
               d="M491,406c0.2,0,0.4,0.1,0.6,0.1L490,405l0,0l-0.3,0.4l0,0l0.8,0.6       C490.8,406,490.9,406,491,406z" /></g><g
             id="g5714"><path
               id="path5708"
               class="st11"
               d="M489,406.5c-0.1-0.1-0.1-0.2-0.1-0.2l0.2-0.3c0-0.1,0.2-0.1,0.2,0l2.8,2       c0.1,0.1,0.1,0.2,0.1,0.2l-0.2,0.3c0,0.1-0.2,0.1-0.2,0L489,406.5z" /><path
               id="path5710"
               class="st12"
               d="M489.1,406.4L489.1,406.4l0.2-0.4l0,0l2.8,2l0,0l-0.3,0.4l0,0L489.1,406.4z" /><path
               id="path5712"
               class="st13"
               d="M490.3,407c0.2,0,0.4,0.1,0.6,0.1l-1.6-1.1l0,0l-0.3,0.4l0,0l0.8,0.6       C490,407,490.2,407,490.3,407z" /></g><g
             id="g5722"><path
               id="path5716"
               class="st11"
               d="M488.3,407.5c-0.1-0.1-0.1-0.2-0.1-0.2l0.2-0.3c0-0.1,0.2-0.1,0.2,0l2.8,2       c0.1,0.1,0.1,0.2,0.1,0.2l-0.2,0.3c0,0.1-0.2,0.1-0.2,0L488.3,407.5z" /><path
               id="path5718"
               class="st12"
               d="M488.4,407.4C488.3,407.4,488.3,407.4,488.4,407.4l0.2-0.4l0,0l2.8,2l0,0l-0.3,0.4l0,0       L488.4,407.4z" /><path
               id="path5720"
               class="st13"
               d="M489.6,408.1c0.2,0,0.4,0.1,0.6,0.1l-1.6-1.1l0,0l-0.3,0.4l0,0l0.8,0.6       C489.3,408,489.5,408,489.6,408.1z" /></g><g
             id="g5730"><path
               id="path5724"
               class="st11"
               d="M486.8,409.5c-0.1-0.1-0.1-0.2-0.1-0.2l0.2-0.3c0-0.1,0.2-0.1,0.2,0l2.8,2       c0.1,0.1,0.1,0.2,0.1,0.2l-0.2,0.3c0,0.1-0.2,0.1-0.2,0L486.8,409.5z" /><path
               id="path5726"
               class="st12"
               d="M486.9,409.4L486.9,409.4l0.2-0.4l0,0l2.8,2l0,0l-0.3,0.4l0,0L486.9,409.4z" /><path
               id="path5728"
               class="st13"
               d="M488.2,410.1c0.2,0,0.4,0.1,0.6,0.1l-1.6-1.1l0,0l-0.3,0.4l0,0l0.8,0.6       C487.9,410,488,410,488.2,410.1z" /></g><g
             id="g5738"><path
               id="path5732"
               class="st11"
               d="M486.1,410.5c-0.1-0.1-0.1-0.2-0.1-0.2l0.2-0.3c0-0.1,0.2-0.1,0.2,0l2.8,2       c0.1,0.1,0.1,0.2,0.1,0.2l-0.2,0.3c0,0.1-0.2,0.1-0.2,0L486.1,410.5z" /><path
               id="path5734"
               class="st12"
               d="M486.2,410.4L486.2,410.4l0.2-0.4l0,0l2.8,2l0,0l-0.3,0.4l0,0L486.2,410.4z" /><path
               id="path5736"
               class="st13"
               d="M487.5,411.1c0.2,0,0.4,0.1,0.6,0.1l-1.6-1.1l0,0l-0.3,0.4l0,0l0.8,0.6       C487.2,411,487.3,411,487.5,411.1z" /></g></g><g
           id="g5826"><g
             id="g5784"><g
               id="g5746"><path
                 id="path5742"
                 class="st10"
                 d="M488.4,402.5c-0.1-0.1-0.1-0.2-0.1-0.2l0.6-0.8c0-0.1,0.2-0.1,0.2,0l5.5,3.9        c0.1,0.1,0.1,0.2,0.1,0.2l-0.6,0.8c0,0.1-0.2,0.1-0.2,0L488.4,402.5z" /><path
                 id="path5744"
                 class="st0"
                 d="M488.5,402.6c-0.1-0.1-0.1-0.2-0.1-0.2l0.5-0.7c0-0.1,0.2-0.1,0.2,0l5.4,3.8        c0.1,0.1,0.1,0.2,0.1,0.2l-0.5,0.7c0,0.1-0.2,0.1-0.2,0L488.5,402.6z" /></g><g
               id="g5752"><path
                 id="path5748"
                 class="st10"
                 d="M489.1,401.5c-0.1-0.1-0.1-0.2-0.1-0.2l0.6-0.8c0-0.1,0.2-0.1,0.2,0l5.5,3.9        c0.1,0.1,0.1,0.2,0.1,0.2l-0.6,0.8c0,0.1-0.2,0.1-0.2,0L489.1,401.5z" /><path
                 id="path5750"
                 class="st0"
                 d="M489.2,401.6c-0.1-0.1-0.1-0.2-0.1-0.2l0.5-0.7c0-0.1,0.2-0.1,0.2,0l5.4,3.8        c0.1,0.1,0.1,0.2,0.1,0.2l-0.5,0.7c0,0.1-0.2,0.1-0.2,0L489.2,401.6z" /></g><g
               id="g5758"><path
                 id="path5754"
                 class="st10"
                 d="M489.8,400.5c-0.1-0.1-0.1-0.2-0.1-0.2l0.6-0.8c0-0.1,0.2-0.1,0.2,0l5.5,3.9        c0.1,0.1,0.1,0.2,0.1,0.2l-0.6,0.8c0,0.1-0.2,0.1-0.2,0L489.8,400.5z" /><path
                 id="path5756"
                 class="st0"
                 d="M489.9,400.6c-0.1-0.1-0.1-0.2-0.1-0.2l0.5-0.7c0-0.1,0.2-0.1,0.2,0l5.4,3.8        c0.1,0.1,0.1,0.2,0.1,0.2l-0.5,0.7c0,0.1-0.2,0.1-0.2,0L489.9,400.6z" /></g><g
               id="g5764"><path
                 id="path5760"
                 class="st10"
                 d="M490.5,399.5c-0.1-0.1-0.1-0.2-0.1-0.2l0.6-0.8c0-0.1,0.2-0.1,0.2,0l5.5,3.9        c0.1,0.1,0.1,0.2,0.1,0.2l-0.6,0.8c0,0.1-0.2,0.1-0.2,0L490.5,399.5z" /><path
                 id="path5762"
                 class="st0"
                 d="M490.6,399.6c-0.1-0.1-0.1-0.2-0.1-0.2l0.5-0.7c0-0.1,0.2-0.1,0.2,0l5.4,3.8        c0.1,0.1,0.1,0.2,0.1,0.2l-0.5,0.7c0,0.1-0.2,0.1-0.2,0L490.6,399.6z" /></g><g
               id="g5770"><path
                 id="path5766"
                 class="st10"
                 d="M491.2,398.5c-0.1-0.1-0.1-0.2-0.1-0.2l0.6-0.8c0-0.1,0.2-0.1,0.2,0l5.5,3.9        c0.1,0.1,0.1,0.2,0.1,0.2l-0.6,0.8c0,0.1-0.2,0.1-0.2,0L491.2,398.5z" /><path
                 id="path5768"
                 class="st0"
                 d="M491.3,398.6c-0.1-0.1-0.1-0.2-0.1-0.2l0.5-0.7c0-0.1,0.2-0.1,0.2,0l5.4,3.8        c0.1,0.1,0.1,0.2,0.1,0.2l-0.5,0.7c0,0.1-0.2,0.1-0.2,0L491.3,398.6z" /></g><g
               id="g5776"><path
                 id="path5772"
                 class="st10"
                 d="M491.9,397.5c-0.1-0.1-0.1-0.2-0.1-0.2l0.6-0.8c0-0.1,0.2-0.1,0.2,0l5.5,3.9        c0.1,0.1,0.1,0.2,0.1,0.2l-0.6,0.8c0,0.1-0.2,0.1-0.2,0L491.9,397.5z" /><path
                 id="path5774"
                 class="st0"
                 d="M492,397.5c-0.1-0.1-0.1-0.2-0.1-0.2l0.5-0.7c0-0.1,0.2-0.1,0.2,0l5.4,3.8        c0.1,0.1,0.1,0.2,0.1,0.2l-0.5,0.7c0,0.1-0.2,0.1-0.2,0L492,397.5z" /></g><g
               id="g5782"><path
                 id="path5778"
                 class="st10"
                 d="M492.6,396.5c-0.1-0.1-0.1-0.2-0.1-0.2l0.6-0.8c0-0.1,0.2-0.1,0.2,0l5.5,3.9        c0.1,0.1,0.1,0.2,0.1,0.2l-0.6,0.8c0,0.1-0.2,0.1-0.2,0L492.6,396.5z" /><path
                 id="path5780"
                 class="st0"
                 d="M492.7,396.5c-0.1-0.1-0.1-0.2-0.1-0.2l0.5-0.7c0-0.1,0.2-0.1,0.2,0l5.4,3.8        c0.1,0.1,0.1,0.2,0.1,0.2l-0.5,0.7c0,0.1-0.2,0.1-0.2,0L492.7,396.5z" /></g></g><g
             id="g5792"><path
               id="path5786"
               class="st11"
               d="M494.7,398.4c-0.1-0.1-0.1-0.2-0.1-0.2l0.2-0.3c0-0.1,0.2-0.1,0.2,0l2.8,2       c0.1,0.1,0.1,0.2,0.1,0.2l-0.2,0.3c0,0.1-0.2,0.1-0.2,0L494.7,398.4z" /><path
               id="path5788"
               class="st12"
               d="M494.8,398.3L494.8,398.3l0.2-0.4l0,0l2.8,2l0,0l-0.3,0.4l0,0L494.8,398.3z" /><path
               id="path5790"
               class="st13"
               d="M496,398.9c0.2,0,0.4,0.1,0.6,0.1l-1.6-1.1l0,0l-0.3,0.4l0,0l0.8,0.6       C495.8,398.9,495.9,398.9,496,398.9z" /></g><g
             id="g5800"><path
               id="path5794"
               class="st11"
               d="M494,399.4c-0.1-0.1-0.1-0.2-0.1-0.2l0.2-0.3c0-0.1,0.2-0.1,0.2,0l2.8,2       c0.1,0.1,0.1,0.2,0.1,0.2l-0.2,0.3c0,0.1-0.2,0.1-0.2,0L494,399.4z" /><path
               id="path5796"
               class="st12"
               d="M494.1,399.3L494.1,399.3l0.2-0.4l0,0l2.8,2l0,0l-0.3,0.4l0,0L494.1,399.3z" /><path
               id="path5798"
               class="st13"
               d="M495.3,400c0.2,0,0.4,0.1,0.6,0.1l-1.6-1.1l0,0l-0.3,0.4l0,0l0.8,0.6       C495.1,399.9,495.2,399.9,495.3,400z" /></g><g
             id="g5808"><path
               id="path5802"
               class="st11"
               d="M493.3,400.4c-0.1-0.1-0.1-0.2-0.1-0.2l0.2-0.3c0-0.1,0.2-0.1,0.2,0l2.8,2       c0.1,0.1,0.1,0.2,0.1,0.2l-0.2,0.3c0,0.1-0.2,0.1-0.2,0L493.3,400.4z" /><path
               id="path5804"
               class="st12"
               d="M493.4,400.3L493.4,400.3l0.2-0.4l0,0l2.8,2l0,0l-0.3,0.4l0,0L493.4,400.3z" /><path
               id="path5806"
               class="st13"
               d="M494.6,401c0.2,0,0.4,0.1,0.6,0.1l-1.6-1.1l0,0l-0.3,0.4l0,0l0.8,0.6       C494.3,401,494.5,401,494.6,401z" /></g><g
             id="g5816"><path
               id="path5810"
               class="st11"
               d="M491.9,402.4c-0.1-0.1-0.1-0.2-0.1-0.2l0.2-0.3c0-0.1,0.2-0.1,0.2,0l2.8,2       c0.1,0.1,0.1,0.2,0.1,0.2l-0.2,0.3c0,0.1-0.2,0.1-0.2,0L491.9,402.4z" /><path
               id="path5812"
               class="st12"
               d="M492,402.3C491.9,402.3,491.9,402.3,492,402.3l0.2-0.4l0,0l2.8,2l0,0l-0.3,0.4l0,0       L492,402.3z" /><path
               id="path5814"
               class="st13"
               d="M493.2,403c0.2,0,0.4,0.1,0.6,0.1l-1.6-1.1l0,0l-0.3,0.4l0,0l0.8,0.6       C492.9,403,493.1,403,493.2,403z" /></g><g
             id="g5824"><path
               id="path5818"
               class="st11"
               d="M491.2,403.4c-0.1-0.1-0.1-0.2-0.1-0.2l0.2-0.3c0-0.1,0.2-0.1,0.2,0l2.8,2       c0.1,0.1,0.1,0.2,0.1,0.2l-0.2,0.3c0,0.1-0.2,0.1-0.2,0L491.2,403.4z" /><path
               id="path5820"
               class="st12"
               d="M491.2,403.3L491.2,403.3l0.2-0.4l0,0l2.8,2l0,0l-0.3,0.4l0,0L491.2,403.3z" /><path
               id="path5822"
               class="st13"
               d="M492.5,404c0.2,0,0.4,0.1,0.6,0.1l-1.6-1.1l0,0l-0.3,0.4l0,0l0.8,0.6       C492.2,404,492.3,404,492.5,404z" /></g></g><g
           id="g5912"><g
             id="g5870"><g
               id="g5832"><path
                 id="path5828"
                 class="st10"
                 d="M493.4,395.4c-0.1-0.1-0.1-0.2-0.1-0.2l0.6-0.8c0-0.1,0.2-0.1,0.2,0l5.5,3.9        c0.1,0.1,0.1,0.2,0.1,0.2l-0.6,0.8c0,0.1-0.2,0.1-0.2,0L493.4,395.4z" /><path
                 id="path5830"
                 class="st0"
                 d="M493.5,395.5c-0.1-0.1-0.1-0.2-0.1-0.2l0.5-0.7c0-0.1,0.2-0.1,0.2,0l5.4,3.8        c0.1,0.1,0.1,0.2,0.1,0.2l-0.5,0.7c0,0.1-0.2,0.1-0.2,0L493.5,395.5z" /></g><g
               id="g5838"><path
                 id="path5834"
                 class="st10"
                 d="M494.1,394.4c-0.1-0.1-0.1-0.2-0.1-0.2l0.6-0.8c0-0.1,0.2-0.1,0.2,0l5.5,3.9        c0.1,0.1,0.1,0.2,0.1,0.2l-0.6,0.8c0,0.1-0.2,0.1-0.2,0L494.1,394.4z" /><path
                 id="path5836"
                 class="st0"
                 d="M494.2,394.5c-0.1-0.1-0.1-0.2-0.1-0.2l0.5-0.7c0-0.1,0.2-0.1,0.2,0l5.4,3.8        c0.1,0.1,0.1,0.2,0.1,0.2l-0.5,0.7c0,0.1-0.2,0.1-0.2,0L494.2,394.5z" /></g><g
               id="g5844"><path
                 id="path5840"
                 class="st10"
                 d="M494.8,393.4c-0.1-0.1-0.1-0.2-0.1-0.2l0.6-0.8c0-0.1,0.2-0.1,0.2,0l5.5,3.9        c0.1,0.1,0.1,0.2,0.1,0.2l-0.6,0.8c0,0.1-0.2,0.1-0.2,0L494.8,393.4z" /><path
                 id="path5842"
                 class="st0"
                 d="M494.9,393.5c-0.1-0.1-0.1-0.2-0.1-0.2l0.5-0.7c0-0.1,0.2-0.1,0.2,0l5.4,3.8        c0.1,0.1,0.1,0.2,0.1,0.2l-0.5,0.7c0,0.1-0.2,0.1-0.2,0L494.9,393.5z" /></g><g
               id="g5850"><path
                 id="path5846"
                 class="st10"
                 d="M495.5,392.4c-0.1-0.1-0.1-0.2-0.1-0.2l0.6-0.8c0-0.1,0.2-0.1,0.2,0l5.5,3.9        c0.1,0.1,0.1,0.2,0.1,0.2l-0.6,0.8c0,0.1-0.2,0.1-0.2,0L495.5,392.4z" /><path
                 id="path5848"
                 class="st0"
                 d="M495.6,392.5c-0.1-0.1-0.1-0.2-0.1-0.2l0.5-0.7c0-0.1,0.2-0.1,0.2,0l5.4,3.8        c0.1,0.1,0.1,0.2,0.1,0.2l-0.5,0.7c0,0.1-0.2,0.1-0.2,0L495.6,392.5z" /></g><g
               id="g5856"><path
                 id="path5852"
                 class="st10"
                 d="M496.3,391.4c-0.1-0.1-0.1-0.2-0.1-0.2l0.6-0.8c0-0.1,0.2-0.1,0.2,0l5.5,3.9        c0.1,0.1,0.1,0.2,0.1,0.2l-0.6,0.8c0,0.1-0.2,0.1-0.2,0L496.3,391.4z" /><path
                 id="path5854"
                 class="st0"
                 d="M496.4,391.5c-0.1-0.1-0.1-0.2-0.1-0.2l0.5-0.7c0-0.1,0.2-0.1,0.2,0l5.4,3.8        c0.1,0.1,0.1,0.2,0.1,0.2l-0.5,0.7c0,0.1-0.2,0.1-0.2,0L496.4,391.5z" /></g><g
               id="g5862"><path
                 id="path5858"
                 class="st10"
                 d="M497,390.4c-0.1-0.1-0.1-0.2-0.1-0.2l0.6-0.8c0-0.1,0.2-0.1,0.2,0l5.5,3.9        c0.1,0.1,0.1,0.2,0.1,0.2l-0.6,0.8c0,0.1-0.2,0.1-0.2,0L497,390.4z" /><path
                 id="path5860"
                 class="st0"
                 d="M497.1,390.4c-0.1-0.1-0.1-0.2-0.1-0.2l0.5-0.7c0-0.1,0.2-0.1,0.2,0l5.4,3.8        c0.1,0.1,0.1,0.2,0.1,0.2l-0.5,0.7c0,0.1-0.2,0.1-0.2,0L497.1,390.4z" /></g><g
               id="g5868"><path
                 id="path5864"
                 class="st10"
                 d="M497.7,389.4c-0.1-0.1-0.1-0.2-0.1-0.2l0.6-0.8c0-0.1,0.2-0.1,0.2,0l5.5,3.9        c0.1,0.1,0.1,0.2,0.1,0.2l-0.6,0.8c0,0.1-0.2,0.1-0.2,0L497.7,389.4z" /><path
                 id="path5866"
                 class="st0"
                 d="M497.8,389.4c-0.1-0.1-0.1-0.2-0.1-0.2l0.5-0.7c0-0.1,0.2-0.1,0.2,0l5.4,3.8        c0.1,0.1,0.1,0.2,0.1,0.2l-0.5,0.7c0,0.1-0.2,0.1-0.2,0L497.8,389.4z" /></g></g><g
             id="g5878"><path
               id="path5872"
               class="st11"
               d="M499.8,391.3c-0.1-0.1-0.1-0.2-0.1-0.2l0.2-0.3c0-0.1,0.2-0.1,0.2,0l2.8,2       c0.1,0.1,0.1,0.2,0.1,0.2l-0.2,0.3c0,0.1-0.2,0.1-0.2,0L499.8,391.3z" /><path
               id="path5874"
               class="st12"
               d="M499.9,391.2C499.8,391.2,499.8,391.2,499.9,391.2l0.2-0.4l0,0l2.8,2l0,0l-0.3,0.4l0,0       L499.9,391.2z" /><path
               id="path5876"
               class="st13"
               d="M501.1,391.8c0.2,0,0.4,0.1,0.6,0.1l-1.6-1.1l0,0l-0.3,0.4l0,0l0.8,0.6       C500.8,391.8,501,391.8,501.1,391.8z" /></g><g
             id="g5886"><path
               id="path5880"
               class="st11"
               d="M499,392.3c-0.1-0.1-0.1-0.2-0.1-0.2l0.2-0.3c0-0.1,0.2-0.1,0.2,0l2.8,2       c0.1,0.1,0.1,0.2,0.1,0.2l-0.2,0.3c0,0.1-0.2,0.1-0.2,0L499,392.3z" /><path
               id="path5882"
               class="st12"
               d="M499.1,392.2L499.1,392.2l0.2-0.4l0,0l2.8,2l0,0l-0.3,0.4l0,0L499.1,392.2z" /><path
               id="path5884"
               class="st13"
               d="M500.4,392.9c0.2,0,0.4,0.1,0.6,0.1l-1.6-1.1l0,0l-0.3,0.4l0,0l0.8,0.6       C500.1,392.8,500.2,392.8,500.4,392.9z" /></g><g
             id="g5894"><path
               id="path5888"
               class="st11"
               d="M498.3,393.3c-0.1-0.1-0.1-0.2-0.1-0.2l0.2-0.3c0-0.1,0.2-0.1,0.2,0l2.8,2       c0.1,0.1,0.1,0.2,0.1,0.2l-0.2,0.3c0,0.1-0.2,0.1-0.2,0L498.3,393.3z" /><path
               id="path5890"
               class="st12"
               d="M498.4,393.2L498.4,393.2l0.2-0.4l0,0l2.8,2l0,0l-0.3,0.4l0,0L498.4,393.2z" /><path
               id="path5892"
               class="st13"
               d="M499.6,393.9c0.2,0,0.4,0.1,0.6,0.1l-1.6-1.1l0,0l-0.3,0.4l0,0l0.8,0.6       C499.4,393.8,499.5,393.9,499.6,393.9z" /></g><g
             id="g5902"><path
               id="path5896"
               class="st11"
               d="M496.9,395.3c-0.1-0.1-0.1-0.2-0.1-0.2l0.2-0.3c0-0.1,0.2-0.1,0.2,0l2.8,2       c0.1,0.1,0.1,0.2,0.1,0.2l-0.2,0.3c0,0.1-0.2,0.1-0.2,0L496.9,395.3z" /><path
               id="path5898"
               class="st12"
               d="M497,395.2L497,395.2l0.2-0.4l0,0l2.8,2l0,0l-0.3,0.4l0,0L497,395.2z" /><path
               id="path5900"
               class="st13"
               d="M498.2,395.9c0.2,0,0.4,0.1,0.6,0.1l-1.6-1.1l0,0l-0.3,0.4l0,0l0.8,0.6       C498,395.8,498.1,395.9,498.2,395.9z" /></g><g
             id="g5910"><path
               id="path5904"
               class="st11"
               d="M496.2,396.3c-0.1-0.1-0.1-0.2-0.1-0.2l0.2-0.3c0-0.1,0.2-0.1,0.2,0l2.8,2       c0.1,0.1,0.1,0.2,0.1,0.2l-0.2,0.3c0,0.1-0.2,0.1-0.2,0L496.2,396.3z" /><path
               id="path5906"
               class="st12"
               d="M496.3,396.2L496.3,396.2l0.2-0.4l0,0l2.8,2l0,0l-0.3,0.4l0,0L496.3,396.2z" /><path
               id="path5908"
               class="st13"
               d="M497.5,396.9c0.2,0,0.4,0.1,0.6,0.1l-1.6-1.1l0,0l-0.3,0.4l0,0l0.8,0.6       C497.2,396.9,497.4,396.9,497.5,396.9z" /></g></g><g
           id="g6088"><g
             id="g6086"><g
               id="g5998"><g
                 id="g5956"><g
                   id="g5918"><path
                     id="path5914"
                     class="st10"
                     d="M498.4,388.3c-0.1-0.1-0.1-0.2-0.1-0.2l0.6-0.8c0-0.1,0.2-0.1,0.2,0l5.5,3.9          c0.1,0.1,0.1,0.2,0.1,0.2l-0.6,0.8c0,0.1-0.2,0.1-0.2,0L498.4,388.3z" /><path
                     id="path5916"
                     class="st0"
                     d="M498.5,388.4c-0.1-0.1-0.1-0.2-0.1-0.2l0.5-0.7c0-0.1,0.2-0.1,0.2,0l5.4,3.8          c0.1,0.1,0.1,0.2,0.1,0.2l-0.5,0.7c0,0.1-0.2,0.1-0.2,0L498.5,388.4z" /></g><g
                   id="g5924"><path
                     id="path5920"
                     class="st10"
                     d="M499.1,387.3c-0.1-0.1-0.1-0.2-0.1-0.2l0.6-0.8c0-0.1,0.2-0.1,0.2,0l5.5,3.9          c0.1,0.1,0.1,0.2,0.1,0.2l-0.6,0.8c0,0.1-0.2,0.1-0.2,0L499.1,387.3z" /><path
                     id="path5922"
                     class="st0"
                     d="M499.2,387.4c-0.1-0.1-0.1-0.2-0.1-0.2l0.5-0.7c0-0.1,0.2-0.1,0.2,0l5.4,3.8          c0.1,0.1,0.1,0.2,0.1,0.2l-0.5,0.7c0,0.1-0.2,0.1-0.2,0L499.2,387.4z" /></g><g
                   id="g5930"><path
                     id="path5926"
                     class="st10"
                     d="M499.8,386.3c-0.1-0.1-0.1-0.2-0.1-0.2l0.6-0.8c0-0.1,0.2-0.1,0.2,0l5.5,3.9          c0.1,0.1,0.1,0.2,0.1,0.2l-0.6,0.8c0,0.1-0.2,0.1-0.2,0L499.8,386.3z" /><path
                     id="path5928"
                     class="st0"
                     d="M500,386.4c-0.1-0.1-0.1-0.2-0.1-0.2l0.5-0.7c0-0.1,0.2-0.1,0.2,0l5.4,3.8          c0.1,0.1,0.1,0.2,0.1,0.2l-0.5,0.7c0,0.1-0.2,0.1-0.2,0L500,386.4z" /></g><g
                   id="g5936"><path
                     id="path5932"
                     class="st10"
                     d="M500.6,385.3c-0.1-0.1-0.1-0.2-0.1-0.2l0.6-0.8c0-0.1,0.2-0.1,0.2,0l5.5,3.9          c0.1,0.1,0.1,0.2,0.1,0.2l-0.6,0.8c0,0.1-0.2,0.1-0.2,0L500.6,385.3z" /><path
                     id="path5934"
                     class="st0"
                     d="M500.7,385.4c-0.1-0.1-0.1-0.2-0.1-0.2l0.5-0.7c0-0.1,0.2-0.1,0.2,0l5.4,3.8          c0.1,0.1,0.1,0.2,0.1,0.2l-0.5,0.7c0,0.1-0.2,0.1-0.2,0L500.7,385.4z" /></g><g
                   id="g5942"><path
                     id="path5938"
                     class="st10"
                     d="M501.3,384.3c-0.1-0.1-0.1-0.2-0.1-0.2l0.6-0.8c0-0.1,0.2-0.1,0.2,0l5.5,3.9          c0.1,0.1,0.1,0.2,0.1,0.2l-0.6,0.8c0,0.1-0.2,0.1-0.2,0L501.3,384.3z" /><path
                     id="path5940"
                     class="st0"
                     d="M501.4,384.4c-0.1-0.1-0.1-0.2-0.1-0.2l0.5-0.7c0-0.1,0.2-0.1,0.2,0l5.4,3.8          c0.1,0.1,0.1,0.2,0.1,0.2l-0.5,0.7c0,0.1-0.2,0.1-0.2,0L501.4,384.4z" /></g><g
                   id="g5948"><path
                     id="path5944"
                     class="st10"
                     d="M502,383.3c-0.1-0.1-0.1-0.2-0.1-0.2l0.6-0.8c0-0.1,0.2-0.1,0.2,0l5.5,3.9          c0.1,0.1,0.1,0.2,0.1,0.2l-0.6,0.8c0,0.1-0.2,0.1-0.2,0L502,383.3z" /><path
                     id="path5946"
                     class="st0"
                     d="M502.1,383.3c-0.1-0.1-0.1-0.2-0.1-0.2l0.5-0.7c0-0.1,0.2-0.1,0.2,0l5.4,3.8          c0.1,0.1,0.1,0.2,0.1,0.2l-0.5,0.7c0,0.1-0.2,0.1-0.2,0L502.1,383.3z" /></g><g
                   id="g5954"><path
                     id="path5950"
                     class="st10"
                     d="M502.7,382.3c-0.1-0.1-0.1-0.2-0.1-0.2l0.6-0.8c0-0.1,0.2-0.1,0.2,0l5.5,3.9          c0.1,0.1,0.1,0.2,0.1,0.2l-0.6,0.8c0,0.1-0.2,0.1-0.2,0L502.7,382.3z" /><path
                     id="path5952"
                     class="st0"
                     d="M502.8,382.3c-0.1-0.1-0.1-0.2-0.1-0.2l0.5-0.7c0-0.1,0.2-0.1,0.2,0l5.4,3.8          c0.1,0.1,0.1,0.2,0.1,0.2l-0.5,0.7c0,0.1-0.2,0.1-0.2,0L502.8,382.3z" /></g></g><g
                 id="g5964"><path
                   id="path5958"
                   class="st11"
                   d="M504.8,384.2c-0.1-0.1-0.1-0.2-0.1-0.2l0.2-0.3c0-0.1,0.2-0.1,0.2,0l2.8,2         c0.1,0.1,0.1,0.2,0.1,0.2l-0.2,0.3c0,0.1-0.2,0.1-0.2,0L504.8,384.2z" /><path
                   id="path5960"
                   class="st12"
                   d="M504.9,384.1L504.9,384.1l0.2-0.4l0,0l2.8,2l0,0l-0.3,0.4l0,0L504.9,384.1z" /><path
                   id="path5962"
                   class="st13"
                   d="M506.1,384.7c0.2,0,0.4,0.1,0.6,0.1l-1.6-1.1l0,0l-0.3,0.4l0,0l0.8,0.6         C505.9,384.7,506,384.7,506.1,384.7z" /></g><g
                 id="g5972"><path
                   id="path5966"
                   class="st11"
                   d="M504.1,385.2c-0.1-0.1-0.1-0.2-0.1-0.2l0.2-0.3c0-0.1,0.2-0.1,0.2,0l2.8,2         c0.1,0.1,0.1,0.2,0.1,0.2l-0.2,0.3c0,0.1-0.2,0.1-0.2,0L504.1,385.2z" /><path
                   id="path5968"
                   class="st12"
                   d="M504.2,385.1L504.2,385.1l0.2-0.4l0,0l2.8,2l0,0l-0.3,0.4l0,0L504.2,385.1z" /><path
                   id="path5970"
                   class="st13"
                   d="M505.4,385.8c0.2,0,0.4,0.1,0.6,0.1l-1.6-1.1l0,0l-0.3,0.4l0,0l0.8,0.6         C505.1,385.7,505.3,385.8,505.4,385.8z" /></g><g
                 id="g5980"><path
                   id="path5974"
                   class="st11"
                   d="M503.4,386.2c-0.1-0.1-0.1-0.2-0.1-0.2l0.2-0.3c0-0.1,0.2-0.1,0.2,0l2.8,2         c0.1,0.1,0.1,0.2,0.1,0.2l-0.2,0.3c0,0.1-0.2,0.1-0.2,0L503.4,386.2z" /><path
                   id="path5976"
                   class="st12"
                   d="M503.4,386.1L503.4,386.1l0.2-0.4l0,0l2.8,2l0,0l-0.3,0.4l0,0L503.4,386.1z" /><path
                   id="path5978"
                   class="st13"
                   d="M504.7,386.8c0.2,0,0.4,0.1,0.6,0.1l-1.6-1.1l0,0l-0.3,0.4l0,0l0.8,0.6         C504.4,386.8,504.5,386.8,504.7,386.8z" /></g><g
                 id="g5988"><path
                   id="path5982"
                   class="st11"
                   d="M501.9,388.2c-0.1-0.1-0.1-0.2-0.1-0.2l0.2-0.3c0-0.1,0.2-0.1,0.2,0l2.8,2         c0.1,0.1,0.1,0.2,0.1,0.2l-0.2,0.3c0,0.1-0.2,0.1-0.2,0L501.9,388.2z" /><path
                   id="path5984"
                   class="st12"
                   d="M502,388.1L502,388.1l0.2-0.4l0,0l2.8,2l0,0l-0.3,0.4l0,0L502,388.1z" /><path
                   id="path5986"
                   class="st13"
                   d="M503.3,388.8c0.2,0,0.4,0.1,0.6,0.1l-1.6-1.1l0,0l-0.3,0.4l0,0l0.8,0.6         C503,388.8,503.1,388.8,503.3,388.8z" /></g><g
                 id="g5996"><path
                   id="path5990"
                   class="st11"
                   d="M501.2,389.2c-0.1-0.1-0.1-0.2-0.1-0.2l0.2-0.3c0-0.1,0.2-0.1,0.2,0l2.8,2         c0.1,0.1,0.1,0.2,0.1,0.2l-0.2,0.3c0,0.1-0.2,0.1-0.2,0L501.2,389.2z" /><path
                   id="path5992"
                   class="st12"
                   d="M501.3,389.2C501.3,389.1,501.3,389.1,501.3,389.2l0.2-0.4l0,0l2.8,2l0,0l-0.3,0.4l0,0         L501.3,389.2z" /><path
                   id="path5994"
                   class="st13"
                   d="M502.5,389.8c0.2,0,0.4,0.1,0.6,0.1l-1.6-1.1l0,0l-0.3,0.4l0,0l0.8,0.6         C502.3,389.8,502.4,389.8,502.5,389.8z" /></g></g><g
               id="g6084"><g
                 id="g6042"><g
                   id="g6004"><path
                     id="path6000"
                     class="st10"
                     d="M503.5,381.2c-0.1-0.1-0.1-0.2-0.1-0.2l0.6-0.8c0-0.1,0.2-0.1,0.2,0l5.5,3.9          c0.1,0.1,0.1,0.2,0.1,0.2l-0.6,0.8c0,0.1-0.2,0.1-0.2,0L503.5,381.2z" /><path
                     id="path6002"
                     class="st0"
                     d="M503.6,381.3c-0.1-0.1-0.1-0.2-0.1-0.2l0.5-0.7c0-0.1,0.2-0.1,0.2,0l5.4,3.8          c0.1,0.1,0.1,0.2,0.1,0.2l-0.5,0.7c0,0.1-0.2,0.1-0.2,0L503.6,381.3z" /></g><g
                   id="g6010"><path
                     id="path6006"
                     class="st10"
                     d="M504.2,380.2c-0.1-0.1-0.1-0.2-0.1-0.2l0.6-0.8c0-0.1,0.2-0.1,0.2,0l5.5,3.9          c0.1,0.1,0.1,0.2,0.1,0.2l-0.6,0.8c0,0.1-0.2,0.1-0.2,0L504.2,380.2z" /><path
                     id="path6008"
                     class="st0"
                     d="M504.3,380.3c-0.1-0.1-0.1-0.2-0.1-0.2l0.5-0.7c0-0.1,0.2-0.1,0.2,0l5.4,3.8          c0.1,0.1,0.1,0.2,0.1,0.2l-0.5,0.7c0,0.1-0.2,0.1-0.2,0L504.3,380.3z" /></g><g
                   id="g6016"><path
                     id="path6012"
                     class="st10"
                     d="M504.9,379.2c-0.1-0.1-0.1-0.2-0.1-0.2l0.6-0.8c0-0.1,0.2-0.1,0.2,0l5.5,3.9          c0.1,0.1,0.1,0.2,0.1,0.2l-0.6,0.8c0,0.1-0.2,0.1-0.2,0L504.9,379.2z" /><path
                     id="path6014"
                     class="st0"
                     d="M505,379.3c-0.1-0.1-0.1-0.2-0.1-0.2l0.5-0.7c0-0.1,0.2-0.1,0.2,0l5.4,3.8          c0.1,0.1,0.1,0.2,0.1,0.2l-0.5,0.7c0,0.1-0.2,0.1-0.2,0L505,379.3z" /></g><g
                   id="g6022"><path
                     id="path6018"
                     class="st10"
                     d="M505.6,378.2c-0.1-0.1-0.1-0.2-0.1-0.2l0.6-0.8c0-0.1,0.2-0.1,0.2,0l5.5,3.9          c0.1,0.1,0.1,0.2,0.1,0.2l-0.6,0.8c0,0.1-0.2,0.1-0.2,0L505.6,378.2z" /><path
                     id="path6020"
                     class="st0"
                     d="M505.7,378.3c-0.1-0.1-0.1-0.2-0.1-0.2l0.5-0.7c0-0.1,0.2-0.1,0.2,0l5.4,3.8          c0.1,0.1,0.1,0.2,0.1,0.2l-0.5,0.7c0,0.1-0.2,0.1-0.2,0L505.7,378.3z" /></g><g
                   id="g6028"><path
                     id="path6024"
                     class="st10"
                     d="M506.3,377.2c-0.1-0.1-0.1-0.2-0.1-0.2l0.6-0.8c0-0.1,0.2-0.1,0.2,0l5.5,3.9          c0.1,0.1,0.1,0.2,0.1,0.2l-0.6,0.8c0,0.1-0.2,0.1-0.2,0L506.3,377.2z" /><path
                     id="path6026"
                     class="st0"
                     d="M506.4,377.3c-0.1-0.1-0.1-0.2-0.1-0.2l0.5-0.7c0-0.1,0.2-0.1,0.2,0l5.4,3.8          c0.1,0.1,0.1,0.2,0.1,0.2l-0.5,0.7c0,0.1-0.2,0.1-0.2,0L506.4,377.3z" /></g><g
                   id="g6034"><path
                     id="path6030"
                     class="st10"
                     d="M507,376.2c-0.1-0.1-0.1-0.2-0.1-0.2l0.6-0.8c0-0.1,0.2-0.1,0.2,0l5.5,3.9          c0.1,0.1,0.1,0.2,0.1,0.2l-0.6,0.8c0,0.1-0.2,0.1-0.2,0L507,376.2z" /><path
                     id="path6032"
                     class="st0"
                     d="M507.1,376.2c-0.1-0.1-0.1-0.2-0.1-0.2l0.5-0.7c0-0.1,0.2-0.1,0.2,0l5.4,3.8          c0.1,0.1,0.1,0.2,0.1,0.2l-0.5,0.7c0,0.1-0.2,0.1-0.2,0L507.1,376.2z" /></g><g
                   id="g6040"><path
                     id="path6036"
                     class="st10"
                     d="M507.8,375.2c-0.1-0.1-0.1-0.2-0.1-0.2l0.6-0.8c0-0.1,0.2-0.1,0.2,0l5.5,3.9          c0.1,0.1,0.1,0.2,0.1,0.2l-0.6,0.8c0,0.1-0.2,0.1-0.2,0L507.8,375.2z" /><path
                     id="path6038"
                     class="st0"
                     d="M507.9,375.2c-0.1-0.1-0.1-0.2-0.1-0.2l0.5-0.7c0-0.1,0.2-0.1,0.2,0l5.4,3.8          c0.1,0.1,0.1,0.2,0.1,0.2l-0.5,0.7c0,0.1-0.2,0.1-0.2,0L507.9,375.2z" /></g></g><g
                 id="g6050"><path
                   id="path6044"
                   class="st11"
                   d="M509.8,377.1c-0.1-0.1-0.1-0.2-0.1-0.2l0.2-0.3c0-0.1,0.2-0.1,0.2,0l2.8,2         c0.1,0.1,0.1,0.2,0.1,0.2l-0.2,0.3c0,0.1-0.2,0.1-0.2,0L509.8,377.1z" /><path
                   id="path6046"
                   class="st12"
                   d="M509.9,377L509.9,377l0.2-0.4l0,0l2.8,2l0,0l-0.3,0.4l0,0L509.9,377z" /><path
                   id="path6048"
                   class="st13"
                   d="M511.2,377.6c0.2,0,0.4,0.1,0.6,0.1l-1.6-1.1l0,0l-0.3,0.4l0,0l0.8,0.6         C510.9,377.6,511,377.6,511.2,377.6z" /></g><g
                 id="g6058"><path
                   id="path6052"
                   class="st11"
                   d="M509.1,378.1c-0.1-0.1-0.1-0.2-0.1-0.2l0.2-0.3c0-0.1,0.2-0.1,0.2,0l2.8,2         c0.1,0.1,0.1,0.2,0.1,0.2l-0.2,0.3c0,0.1-0.2,0.1-0.2,0L509.1,378.1z" /><path
                   id="path6054"
                   class="st12"
                   d="M509.2,378L509.2,378l0.2-0.4l0,0l2.8,2l0,0l-0.3,0.4l0,0L509.2,378z" /><path
                   id="path6056"
                   class="st13"
                   d="M510.4,378.7c0.2,0,0.4,0.1,0.6,0.1l-1.6-1.1l0,0l-0.3,0.4l0,0l0.8,0.6         C510.2,378.6,510.3,378.6,510.4,378.7z" /></g><g
                 id="g6066"><path
                   id="path6060"
                   class="st11"
                   d="M508.4,379.1c-0.1-0.1-0.1-0.2-0.1-0.2l0.2-0.3c0-0.1,0.2-0.1,0.2,0l2.8,2         c0.1,0.1,0.1,0.2,0.1,0.2l-0.2,0.3c0,0.1-0.2,0.1-0.2,0L508.4,379.1z" /><path
                   id="path6062"
                   class="st12"
                   d="M508.5,379L508.5,379l0.2-0.4l0,0l2.8,2l0,0l-0.3,0.4l0,0L508.5,379z" /><path
                   id="path6064"
                   class="st13"
                   d="M509.7,379.7c0.2,0,0.4,0.1,0.6,0.1l-1.6-1.1l0,0l-0.3,0.4l0,0l0.8,0.6         C509.4,379.6,509.6,379.7,509.7,379.7z" /></g><g
                 id="g6074"><path
                   id="path6068"
                   class="st11"
                   d="M507,381.1c-0.1-0.1-0.1-0.2-0.1-0.2l0.2-0.3c0-0.1,0.2-0.1,0.2,0l2.8,2         c0.1,0.1,0.1,0.2,0.1,0.2l-0.2,0.3c0,0.1-0.2,0.1-0.2,0L507,381.1z" /><path
                   id="path6070"
                   class="st12"
                   d="M507.1,381C507.1,381,507,381,507.1,381l0.2-0.4l0,0l2.8,2l0,0l-0.3,0.4l0,0L507.1,381z" /><path
                   id="path6072"
                   class="st13"
                   d="M508.3,381.7c0.2,0,0.4,0.1,0.6,0.1l-1.6-1.1l0,0l-0.3,0.4l0,0l0.8,0.6         C508,381.7,508.2,381.7,508.3,381.7z" /></g><g
                 id="g6082"><path
                   id="path6076"
                   class="st11"
                   d="M506.3,382.1c-0.1-0.1-0.1-0.2-0.1-0.2l0.2-0.3c0-0.1,0.2-0.1,0.2,0l2.8,2         c0.1,0.1,0.1,0.2,0.1,0.2l-0.2,0.3c0,0.1-0.2,0.1-0.2,0L506.3,382.1z" /><path
                   id="path6078"
                   class="st12"
                   d="M506.3,382L506.3,382l0.2-0.4l0,0l2.8,2l0,0L509,384l0,0L506.3,382z" /><path
                   id="path6080"
                   class="st13"
                   d="M507.6,382.7c0.2,0,0.4,0.1,0.6,0.1l-1.6-1.1l0,0l-0.3,0.4l0,0l0.8,0.6         C507.3,382.7,507.4,382.7,507.6,382.7z" /></g></g></g></g></g><path
         id="path6092"
         class="st9"
         d="M474.4,435l45.2-63.7c0,0,42.6,30.2,51.3,36.4c8.7,6.1,17.4,18.4,4.7,36.3    c-12.2,17.1-26.2,12.3-32.8,9.3c-6.7-3.1-14.7-7.2-27.7-3.2s-17.4,1.4-23.5-2.8C485.5,443,474.4,435,474.4,435z" /><linearGradient
         id="path6099_1_"
         gradientUnits="userSpaceOnUse"
         x1="-3357.6536"
         y1="3218.0574"
         x2="-3369.4082"
         y2="3543.6714"
         gradientTransform="matrix(-0.1099 0.155 -0.1476 -0.1047 679.5116 1298.4541)"><stop
           offset="0"
           style="stop-color:#FFFFFF"
           id="stop358" /><stop
           offset="1"
           style="stop-color:#FFFFFF;stop-opacity:0"
           id="stop360" /></linearGradient><path
         id="path6099"
         class="st14"
         d="M552.2,456.1c6.9,0.8,15.5-1.1,23.4-12.1c12.8-17.9,4-30.1-4.7-36.3l-47.1-33.4    C524,375.4,549.6,449,552.2,456.1z" /></g></g><rect
     id="rect6105"
     x="120"
     y="871"
     class="st15"
     width="238"
     height="107" /><rect
     id="rect6107"
     x="491"
     y="44"
     class="st15"
     width="78"
     height="134" /><rect
     id="rect6109"
     x="233"
     y="1079"
     class="st15"
     width="277"
     height="78" /><g
     id="g6115"><rect
       id="rect6111"
       x="8.7"
       y="168.5"
       width="158.8"
       height="9.5" /><rect
       id="rect6113"
       x="167.5"
       y="158.7"
       width="16.5"
       height="28.3" /></g><g
     id="g6121"><rect
       id="rect6117"
       x="8.7"
       y="436.4"
       width="158.8"
       height="9.5" /><rect
       id="rect6119"
       x="167.5"
       y="426.6"
       width="16.5"
       height="28.3" /></g><g
     id="g6127"><rect
       id="rect6123"
       x="8.7"
       y="703.7"
       width="158.8"
       height="9.5" /><rect
       id="rect6125"
       x="167.5"
       y="693.9"
       width="16.5"
       height="28.3" /></g><rect
     id="rect6129"
     x="175.8"
     y="808"
     width="33.3"
     height="63" /><rect
     id="rect6131"
     x="175.8"
     y="540.5"
     width="33.3"
     height="63" /><rect
     id="rect6133"
     x="175.8"
     y="275.3"
     width="33.3"
     height="63" /><rect
     id="rect6135"
     x="175.8"
     y="9.5"
     width="33.3"
     height="63" /><rect
     id="rect6137"
     x="8.7"
     y="871"
     width="109.8"
     height="11.5" /><rect
     id="rect6139"
     x="281.8"
     y="451.4"
     class="st5"
     width="27.5"
     height="18.6" /><rect
     id="rect6141"
     x="281.8"
     y="557.4"
     class="st5"
     width="27.5"
     height="18.6" /><rect
     id="rect6143"
     x="57.8"
     y="820.9"
     class="st5"
     width="27.5"
     height="18.6" /><rect
     id="rect6145"
     x="100.8"
     y="820.9"
     class="st5"
     width="27.5"
     height="18.6" /><rect
     id="rect6147"
     x="57.8"
     y="576.6"
     class="st5"
     width="27.5"
     height="18.6" /><rect
     id="rect6149"
     x="100.8"
     y="576.6"
     class="st5"
     width="27.5"
     height="18.6" /><rect
     id="rect6151"
     x="57.8"
     y="551.7"
     class="st5"
     width="27.5"
     height="18.6" /><rect
     id="rect6153"
     x="100.8"
     y="551.7"
     class="st5"
     width="27.5"
     height="18.6" /><rect
     id="rect6155"
     x="57.8"
     y="310.4"
     class="st5"
     width="27.5"
     height="18.6" /><rect
     id="rect6157"
     x="102.1"
     y="310.4"
     class="st5"
     width="27.5"
     height="18.6" /><rect
     id="rect6159"
     x="57.8"
     y="285"
     class="st5"
     width="27.5"
     height="18.6" /><rect
     id="rect6161"
     x="102.1"
     y="285"
     class="st5"
     width="27.5"
     height="18.6" /><rect
     id="rect6163"
     x="57.8"
     y="43.4"
     class="st5"
     width="27.5"
     height="18.6" /><rect
     id="rect6165"
     x="102.1"
     y="43.4"
     class="st5"
     width="27.5"
     height="18.6" /><rect
     id="rect6167"
     x="407.1"
     y="174.4"
     class="st5"
     width="27.5"
     height="18.6" /><rect
     id="rect6169"
     x="407.1"
     y="261.6"
     class="st5"
     width="27.5"
     height="18.6" /><rect
     id="rect6171"
     x="409"
     y="641.4"
     class="st5"
     width="27.5"
     height="18.6" /><rect
     id="rect6173"
     x="409"
     y="727.7"
     class="st5"
     width="27.5"
     height="18.6" /><rect
     id="rect6175"
     x="143.2"
     y="772"
     class="st5"
     width="18.6"
     height="27.5" /><rect
     id="rect6177"
     x="234.2"
     y="748.7"
     class="st5"
     width="18.6"
     height="27.5" /><rect
     id="rect6179"
     x="234.2"
     y="674"
     class="st5"
     width="18.6"
     height="27.5" /><rect
     id="rect6181"
     x="143.2"
     y="618"
     class="st5"
     width="18.6"
     height="27.5" /><rect
     id="rect6183"
     x="234.2"
     y="612"
     class="st5"
     width="18.6"
     height="27.5" /><rect
     id="rect6185"
     x="143.2"
     y="504.4"
     class="st5"
     width="18.6"
     height="27.5" /><rect
     id="rect6187"
     x="229.5"
     y="500"
     class="st5"
     width="18.6"
     height="27.5" /><rect
     id="rect6189"
     x="340.5"
     y="500"
     class="st5"
     width="18.6"
     height="27.5" /><rect
     id="rect6191"
     x="143.2"
     y="351.3"
     class="st5"
     width="18.6"
     height="27.5" /><rect
     id="rect6193"
     x="143.2"
     y="238.1"
     class="st5"
     width="18.6"
     height="27.5" /><rect
     id="rect6195"
     x="233.9"
     y="246"
     class="st5"
     width="18.6"
     height="27.5" /><rect
     id="rect6197"
     x="233.9"
     y="182"
     class="st5"
     width="18.6"
     height="27.5" /><rect
     id="rect6199"
     x="233.9"
     y="98.5"
     class="st5"
     width="18.6"
     height="27.5" /><rect
     id="rect6201"
     x="143.2"
     y="81.7"
     class="st5"
     width="18.6"
     height="27.5" /><rect
     id="rect6203"
     x="322.8"
     y="413.8"
     transform="matrix(0.7071 -0.7071 0.7071 0.7071 -200.5862 361.9138)"
     class="st5"
     width="27.5"
     height="18.6" /><rect
     id="rect6205"
     x="241.4"
     y="342"
     transform="matrix(0.7071 -0.7071 0.7071 0.7071 -173.6669 283.3099)"
     class="st5"
     width="27.5"
     height="18.6" /><rect
     id="rect6207"
     x="327.2"
     y="337.6"
     transform="matrix(0.7071 -0.7071 0.7071 0.7071 -149.8913 340.8649)"
     class="st5"
     width="18.6"
     height="27.5" /><rect
     id="rect6209"
     x="242.8"
     y="409.3"
     transform="matrix(0.7071 -0.7071 0.7071 0.7071 -225.2984 302.1551)"
     class="st5"
     width="18.6"
     height="27.5" /><text
     id="text6211"
     transform="matrix(1 0 0 1 77.9999 103.6667)"
     class="st0 st1 st2">101</text>
<text
     id="text6213"
     transform="matrix(1 0 0 1 77.9998 259.7502)"
     class="st0 st1 st2">102</text>
<text
     id="text6215"
     transform="matrix(1 0 0 1 77.9997 368.6998)"
     class="st0 st1 st2">103</text>
<text
     id="text6217"
     transform="matrix(1 0 0 1 77.9996 526.25)"
     class="st0 st1 st2">104</text>
<text
     id="text6219"
     transform="matrix(1 0 0 1 77.9995 639.4553)"
     class="st0 st1 st2">105</text>
<text
     id="text6221"
     transform="matrix(1 0 0 1 77.9993 793.5001)"
     class="st0 st1 st2">106</text>
<text
     id="text6223"
     transform="matrix(1 0 0 1 280.9999 117.7092)"
     class="st0 st1 st2">201</text>
<text
     id="text6225"
     transform="matrix(1 0 0 1 280.9997 233.5001)"
     class="st0 st1 st2">202</text>
<text
     id="text6227"
     transform="matrix(1 0 0 1 280.9999 394.475)"
     class="st0 st1 st2">203</text>
<text
     id="text6229"
     transform="matrix(1 0 0 1 280.9997 519.3999)"
     class="st0 st1 st2">204</text>
<text
     id="text6231"
     transform="matrix(1 0 0 1 281.8 665.3003)"
     class="st0 st1 st2">205</text>
<text
     id="text6233"
     transform="matrix(1 0 0 1 281.7999 770.0002)"
     class="st0 st1 st2">206</text>
<text
     id="text6235"
     transform="matrix(1 0 0 1 407.1005 233.5001)"
     class="st0 st1 st2">301</text>
<text
     id="text6237"
     transform="matrix(1 0 0 1 516.7808 280.1998)"
     class="st0 st1 st2">302</text>
<text
     id="text6239"
     transform="matrix(1 0 0 1 443.8331 537.8333)"
     class="st0 st1 st2">303</text>
<text
     id="text6241"
     transform="matrix(1 0 0 1 407.1004 703.6997)"
     class="st0 st1 st2">304</text>
<rect
     id="rect6243"
     x="502.7"
     y="91.7"
     class="st6"
     width="74.4"
     height="41" /><text
     transform="matrix(1 0 0 1 502.7346 103.8252)"
     class="st0 st1 st2"
     id="text436"></text>
<text
     transform="matrix(1 0 0 1 502.7346 120.6252)"
     class="st0 st1 st2"
     id="text438"></text>
<text
     id="text6251"
     transform="matrix(1 0 0 1 175.75 929)"
     class="st0 st1 st2"> </text>
<text
     id="text6253"
     transform="matrix(1 0 0 1 328.0002 1124.5592)"
     class="st0 st1 st2"></text>
<rect
     id="rect6255"
     x="175.8"
     y="1049.5"
     width="33.3"
     height="63" /></svg>