<?xml version="1.0" encoding="UTF-8" standalone="no"?>
<svg xmlns:dc="http://purl.org/dc/elements/1.1/" xmlns:cc="http://creativecommons.org/ns#" xmlns:rdf="http://www.w3.org/1999/02/22-rdf-syntax-ns#" xmlns:svg="http://www.w3.org/2000/svg" xmlns="http://www.w3.org/2000/svg" xmlns:xlink="http://www.w3.org/1999/xlink" xmlns:sodipodi="http://sodipodi.sourceforge.net/DTD/sodipodi-0.dtd" xmlns:inkscape="http://www.inkscape.org/namespaces/inkscape" id="Слой_1" data-name="Слой 1" viewBox="0 0 611 784" version="1.1" sodipodi:docname="scheme-base-2.svg" inkscape:version="0.92.1 r15371">
  <metadata id="metadata651">
    <rdf:RDF>
      <cc:Work rdf:about="">
        <dc:format>image/svg+xml</dc:format>
        <dc:type rdf:resource="http://purl.org/dc/dcmitype/StillImage"/>
      </cc:Work>
    </rdf:RDF>
  </metadata>
  <sodipodi:namedview pagecolor="#ffffff" bordercolor="#666666" borderopacity="1" objecttolerance="10" gridtolerance="10" guidetolerance="10" inkscape:pageopacity="0" inkscape:pageshadow="2" inkscape:window-width="1400" inkscape:window-height="998" id="namedview649" showgrid="false" inkscape:zoom="2.4081633" inkscape:cx="444.61648" inkscape:cy="356.94261" inkscape:window-x="-8" inkscape:window-y="-8" inkscape:window-maximized="1" inkscape:current-layer="Слой_1"/>
  <defs id="defs4">
    <style id="style2">.cls-1{fill:#9b9797;}.cls-1,.cls-14{opacity:0.67;}.cls-2,.cls-3{fill:#2b1010;}.cls-19,.cls-2,.cls-3{opacity:0.43;}.cls-3{stroke:#2b1010;stroke-miterlimit:10;}.cls-4,.cls-6{fill:#2d0505;}.cls-11,.cls-5,.cls-7{fill:red;}.cls-13,.cls-6,.cls-7{font-size:24px;}.cls-11,.cls-12,.cls-13,.cls-19,.cls-6,.cls-7,.cls-9{font-family:Monofonto, Monofonto;}.cls-10,.cls-8{fill:#fff;}.cls-10,.cls-9{font-size:12px;}.cls-12,.cls-13,.cls-19,.cls-20,.cls-9{fill:#f5f5f5;}.cls-10{font-family:MyriadPro-Regular, Myriad Pro;}.cls-11{font-size:21.76px;}.cls-12{font-size:19.2px;}.cls-15{fill:#e2dede;}.cls-16{fill:#ddd;}.cls-16,.cls-17,.cls-18{fill-rule:evenodd;}.cls-17{fill:#b9babb;}.cls-18{fill:#f1f2f2;}.cls-19{font-size:14.97px;}
       .green{fill:#64991e;}
       .ruddy{fill:#d81b21;}
       @font-face {
          font-family: 'Monofonto';
          src: url('../app-css/fonts/Monofonto.eot');
          src: url('../app-css/fonts/Monofonto.woff') format('woff'),
               url('../app-css/fonts/Monofonto.ttf') format('truetype'),
               url('../app-css/fonts/Monofonto.eot?#iefix') format('embedded-opentype');
          font-weight: normal;
          font-style: normal;
        }
   </style>
  </defs>
  <title id="title6">Схема ресторана</title>
  <rect class="cls-1" width="611" height="784" id="rect8"/>
  <rect class="cls-2" x="499.08" y="227.67" width="107.33" height="366" id="rect10"/>
  <path class="cls-3" d="M-174-346.93V-50.06a47.18,47.18,0,0,0,21.33,5.13c28.9,0,52.33-26.41,52.33-59a65.38,65.38,0,0,0-3.89-22.33h69.89v-40.67H276.33v-180Z" transform="translate(174.75 348.6)" id="path12"/>
  <rect class="cls-4" x="102.75" y="16" width="3.67" height="156.33" id="rect14"/>
  <rect class="cls-4" x="102.83" y="14.5" width="316.58" height="3.67" id="rect16"/>
  <rect class="cls-4" x="417.25" y="14.5" width="3.67" height="81.5" id="rect18"/>
  <a id="a4002" xlink:href="http://saloon/scheme/order?q=403" target="_parent">
    <rect inkscape:label="#rect20" id="403" height="54" width="22.5" y="15.5" x="127.25" class="green"/>
  </a>
  <a id="a4005" target="_parent" xlink:href="http://saloon/scheme/order?q=404">
    <rect inkscape:label="#rect22" id="404" height="54" width="22.5" y="17" x="208.75" class="green"/>
  </a>
  <a id="a4008" target="_parent" xlink:href="http://saloon/scheme/order?q=405">
    <rect inkscape:label="#rect24" id="405" height="54" width="22.5" y="17" x="291.75" class="green"/>
  </a>
  <a id="a4011" xlink:href="http://saloon/scheme/order?q=406" target="_parent">
    <rect inkscape:label="#rect26" id="406" height="44" width="22.5" y="18" x="368.25" class="ruddy"/>
  </a>
  <a id="a4026" xlink:href="http://saloon/scheme/order?q=409" target="_parent">
    <rect inkscape:label="#rect28" id="409" height="44" width="22.5" y="85" x="367.25" class="green"/>
  </a>
  <rect class="cls-5" x="111.08" y="21" width="13.5" height="11.5" id="rect30"/>
  <rect class="cls-5" x="111.08" y="38.5" width="13.5" height="11.5" id="rect32"/>
  <rect class="cls-5" x="111.08" y="58" width="13.5" height="11.5" id="rect34"/>
  <rect class="cls-5" x="152.58" y="20.5" width="13.5" height="11.5" id="rect36"/>
  <rect class="cls-5" x="152.58" y="38" width="13.5" height="11.5" id="rect38"/>
  <rect class="cls-5" x="152.58" y="57.5" width="13.5" height="11.5" id="rect40"/>
  <rect class="cls-5" x="192.08" y="22" width="13.5" height="11.5" id="rect42"/>
  <rect class="cls-5" x="192.08" y="39.5" width="13.5" height="11.5" id="rect44"/>
  <rect class="cls-5" x="192.08" y="59" width="13.5" height="11.5" id="rect46"/>
  <rect class="cls-5" x="233.08" y="22.5" width="13.5" height="11.5" id="rect48"/>
  <rect class="cls-5" x="233.08" y="40" width="13.5" height="11.5" id="rect50"/>
  <rect class="cls-5" x="233.08" y="59.5" width="13.5" height="11.5" id="rect52"/>
  <rect class="cls-5" x="276.08" y="23" width="13.5" height="11.5" id="rect54"/>
  <rect class="cls-5" x="276.08" y="40.5" width="13.5" height="11.5" id="rect56"/>
  <rect class="cls-5" x="316.08" y="23" width="13.5" height="11.5" id="rect58"/>
  <rect class="cls-5" x="316.08" y="40.5" width="13.5" height="11.5" id="rect60"/>
  <rect class="cls-5" x="352.08" y="24" width="13.5" height="11.5" id="rect62"/>
  <rect class="cls-5" x="352.08" y="41.5" width="13.5" height="11.5" id="rect64"/>
  <rect class="cls-5" x="393.58" y="24.5" width="13.5" height="11.5" id="rect66"/>
  <rect class="cls-5" x="393.58" y="42" width="13.5" height="11.5" id="rect68"/>
  <rect class="cls-5" x="351.58" y="88" width="13.5" height="11.5" id="rect70"/>
  <rect class="cls-5" x="351.58" y="105.5" width="13.5" height="11.5" id="rect72"/>
  <rect class="cls-5" x="391" y="89.25" width="13.5" height="11.5" id="rect74"/>
  <rect class="cls-5" x="391" y="106.75" width="13.5" height="11.5" id="rect76"/>
  <a id="a4014" xlink:href="http://saloon/scheme/order?q=402" target="_parent">
    <rect inkscape:label="#rect78" id="402" height="54" width="22.5" y="123" x="170.75" class="green"/>
  </a>
  <rect class="cls-5" x="154.58" y="128.5" width="13.5" height="11.5" id="rect80"/>
  <rect class="cls-5" x="154.58" y="146" width="13.5" height="11.5" id="rect82"/>
  <rect class="cls-5" x="154.58" y="165.5" width="13.5" height="11.5" id="rect84"/>
  <rect class="cls-5" x="196.08" y="128" width="13.5" height="11.5" id="rect86"/>
  <rect class="cls-5" x="196.08" y="145.5" width="13.5" height="11.5" id="rect88"/>
  <rect class="cls-5" x="196.08" y="165" width="13.5" height="11.5" id="rect90"/>
  <a id="a4017" xlink:href="http://saloon/scheme/order?q=401" target="_parent">
    <rect inkscape:label="#rect92" id="401" height="54" width="22.5" y="123.5" x="230.25" class="green"/>
  </a>
  <rect class="cls-5" x="214.08" y="129" width="13.5" height="11.5" id="rect94"/>
  <rect class="cls-5" x="214.08" y="146.5" width="13.5" height="11.5" id="rect96"/>
  <rect class="cls-5" x="214.08" y="166" width="13.5" height="11.5" id="rect98"/>
  <rect class="cls-5" x="255.58" y="128.5" width="13.5" height="11.5" id="rect100"/>
  <rect class="cls-5" x="255.58" y="146" width="13.5" height="11.5" id="rect102"/>
  <rect class="cls-5" x="255.58" y="165.5" width="13.5" height="11.5" id="rect104"/>
  <a id="a4020" xlink:href="http://saloon/scheme/order?q=407" target="_parent">
    <rect inkscape:label="#rect106" id="407" height="25" width="22.5" y="86" x="228.25" class="green"/>
  </a>
  <rect class="cls-5" x="211.58" y="91" width="13.5" height="11.5" id="rect108"/>
  <rect class="cls-5" x="252.58" y="91.5" width="13.5" height="11.5" id="rect110"/>
  <a id="a4023" xlink:href="http://saloon/scheme/order?q=408" target="_parent">
    <rect inkscape:label="#rect112" id="408" height="25" width="22.5" y="86" x="299.75" class="green"/>
  </a>
  <rect class="cls-5" x="283.08" y="91" width="13.5" height="11.5" id="rect114"/>
  <rect class="cls-5" x="324.08" y="91.5" width="13.5" height="11.5" id="rect116"/>
  <text class="cls-6" transform="translate(286.75 165.52)" id="text118">RUNWAY/ПОДИУМ</text>
  <text class="cls-7" transform="translate(282.75 230.52)" id="text120">CENTER/ЦЕНТР</text>
  <rect class="cls-2" x="105.08" y="237.67" width="133.33" height="266" id="rect122"/>
  <text class="cls-6" transform="translate(135.58 286.52)" id="text124">ТАНЦПОЛ</text>
  <a id="a4035" xlink:href="http://saloon/scheme/order?q=103" target="_parent">
    <rect inkscape:label="#rect126" id="103" height="24.67" width="47.33" y="369.67" x="45.75" class="green"/>
  </a>
  <rect class="cls-5" x="46.42" y="359" width="22" height="10" id="rect128"/>
  <rect class="cls-5" x="68.75" y="359" width="22" height="10" id="rect130"/>
  <path class="cls-8" d="M-114,30.09h0l-1.36.73-.2-.8,1.7-.91h.9v7.8h-1Z" transform="translate(174.75 348.6)" id="path132"/>
  <path class="cls-8" d="M-104.91,32.92c0,2.65-1,4.11-2.71,4.11-1.52,0-2.57-1.43-2.59-4s1.14-4.05,2.72-4.05S-104.91,30.44-104.91,32.92Zm-4.23.12c0,2,.62,3.18,1.58,3.18S-106,35-106,33s-.48-3.18-1.58-3.18C-108.47,29.79-109.14,30.91-109.14,33Z" transform="translate(174.75 348.6)" id="path134"/>
  <path class="cls-8" d="M-103.69,35.7a3.63,3.63,0,0,0,1.73.48c1.34,0,1.77-.85,1.76-1.51,0-1.09-1-1.56-2-1.56h-.59v-.79h.59c.77,0,1.74-.4,1.74-1.32,0-.62-.4-1.18-1.37-1.18a2.86,2.86,0,0,0-1.56.52l-.29-.77a3.78,3.78,0,0,1,2.05-.6c1.54,0,2.23.91,2.23,1.86a2,2,0,0,1-1.44,1.85v0a2,2,0,0,1,1.74,2c0,1.25-1,2.34-2.84,2.34a4,4,0,0,1-2-.53Z" transform="translate(174.75 348.6)" id="path136"/>
  <rect class="cls-5" x="46.09" y="394.67" width="22" height="10" id="rect138"/>
  <rect class="cls-5" x="68.42" y="394.67" width="22" height="10" id="rect140"/>
  <a id="a4032" xlink:href="http://saloon/scheme/order?q=102" target="_parent">
    <rect inkscape:label="#rect142" id="102" height="24.67" width="47.33" y="417.33" x="45.75" class="green"/>
  </a>
  <rect class="cls-5" x="46.42" y="406.67" width="22" height="10" id="rect144"/>
  <rect class="cls-5" x="68.75" y="406.67" width="22" height="10" id="rect146"/>
  <rect class="cls-5" x="46.08" y="442.33" width="22" height="10" id="rect148"/>
  <rect class="cls-5" x="68.42" y="442.33" width="22" height="10" id="rect150"/>
  <path class="cls-8" d="M-114,78.09h0l-1.36.73-.2-.8,1.7-.91h.9v7.8h-1Z" transform="translate(174.75 348.6)" id="path152"/>
  <path class="cls-8" d="M-105,80.92c0,2.65-1,4.11-2.71,4.11-1.52,0-2.57-1.43-2.59-4s1.14-4.05,2.72-4.05S-105,78.44-105,80.92Zm-4.23.12c0,2,.62,3.18,1.58,3.18S-106,83-106,81s-.48-3.18-1.58-3.18C-108.54,77.79-109.21,78.92-109.21,81Z" transform="translate(174.75 348.6)" id="path154"/>
  <path class="cls-8" d="M-104,84.9v-.65l.83-.8c2-1.89,2.9-2.9,2.9-4.08a1.38,1.38,0,0,0-1.54-1.52,2.65,2.65,0,0,0-1.65.66l-.34-.74a3.45,3.45,0,0,1,2.19-.79,2.19,2.19,0,0,1,2.39,2.27c0,1.44-1,2.6-2.69,4.19l-.61.58v0H-99v.88Z" transform="translate(174.75 348.6)" id="path156"/>
  <a id="a4056" xlink:href="http://saloon/scheme/order?q=202" target="_parent">
    <rect inkscape:label="#rect158" id="202" height="24.67" width="47.33" y="368.17" x="252.75" class="green"/>
  </a>
  <rect class="cls-5" x="253.42" y="357.5" width="22" height="10" id="rect160"/>
  <rect class="cls-5" x="275.75" y="357.5" width="22" height="10" id="rect162"/>
  <rect class="cls-5" x="253.09" y="393.17" width="22" height="10" id="rect164"/>
  <rect class="cls-5" x="275.42" y="393.17" width="22" height="10" id="rect166"/>
  <a id="a4092" xlink:href="http://saloon/scheme/order?q=303" target="_parent">
    <rect id="rect168" height="24.67" width="68" y="434" x="512.92" class="green"/>
  </a>
  <rect class="cls-5" x="513.42" y="423.5" width="22" height="10" id="rect170"/>
  <rect class="cls-5" x="535.75" y="423.5" width="22" height="10" id="rect172"/>
  <rect class="cls-5" x="513.08" y="458.83" width="22" height="10" id="rect174"/>
  <rect class="cls-5" x="535.42" y="458.83" width="22" height="10" id="rect176"/>
  <a id="a4059" xlink:href="http://saloon/scheme/order?q=203" target="_parent">
    <rect inkscape:label="#rect178" id="203" height="24.67" width="47.33" y="271.67" x="253.75" class="green"/>
  </a>
  <rect class="cls-5" x="254.42" y="261" width="22" height="10" id="rect180"/>
  <rect class="cls-5" x="276.75" y="261" width="22" height="10" id="rect182"/>
  <rect class="cls-5" x="254.09" y="296.67" width="22" height="10" id="rect184"/>
  <rect class="cls-5" x="276.42" y="296.67" width="22" height="10" id="rect186"/>
  <a id="a4101" xlink:href="http://saloon/scheme/order?q=306" target="_parent">
    <rect inkscape:label="#rect188" id="306" height="24.67" width="47.33" y="274.67" x="534.25" class="green"/>
  </a>
  <rect class="cls-5" x="534.08" y="263.83" width="22" height="10" id="rect190"/>
  <rect class="cls-5" x="556.42" y="263.83" width="22" height="10" id="rect192"/>
  <rect class="cls-5" x="534.08" y="299.58" width="22" height="10" id="rect194"/>
  <rect class="cls-5" x="556.42" y="299.58" width="22" height="10" id="rect196"/>
  <a id="a4098" xlink:href="http://saloon/scheme/order?q=305" target="_parent">
    <rect inkscape:label="#rect198" id="305" height="24.67" width="47.33" y="322.17" x="534.25" class="green"/>
  </a>
  <rect class="cls-5" x="534.08" y="311.5" width="22" height="10" id="rect200"/>
  <rect class="cls-5" x="556.42" y="311.5" width="22" height="10" id="rect202"/>
  <rect class="cls-5" x="534.25" y="347" width="22" height="10" id="rect204"/>
  <rect class="cls-5" x="556.42" y="347" width="22" height="10" id="rect206"/>
  <a id="a4068" xlink:href="http://saloon/scheme/order?q=206" target="_parent">
    <rect inkscape:label="#rect208" id="206" height="24.67" width="47.33" y="373.17" x="385.25" class="green"/>
  </a>
  <rect class="cls-5" x="385.25" y="362.5" width="22" height="10" id="rect210"/>
  <rect class="cls-5" x="407.5" y="362.5" width="22" height="10" id="rect212"/>
  <rect class="cls-5" x="385.25" y="398.17" width="22" height="10" id="rect214"/>
  <rect class="cls-5" x="407.5" y="398.17" width="22" height="10" id="rect216"/>
  <a id="a4071" xlink:href="http://saloon/scheme/order?q=207" target="_parent">
    <rect inkscape:label="#rect218" id="207" height="24.67" width="47.33" y="420.17" x="385.25" class="green"/>
  </a>
  <rect class="cls-5" x="385.25" y="409.5" width="22" height="10" id="rect220"/>
  <rect class="cls-5" x="407.5" y="409.5" width="22" height="10" id="rect222"/>
  <rect class="cls-5" x="385.25" y="445.17" width="22" height="10" id="rect224"/>
  <rect class="cls-5" x="407.5" y="445.17" width="22" height="10" id="rect226"/>
  <a id="a4065" xlink:href="http://saloon/scheme/order?q=205" target="_parent">
    <rect inkscape:label="#rect228" id="205" height="24.67" width="47.33" y="320.67" x="385.25" class="green"/>
  </a>
  <rect class="cls-5" x="385.25" y="310" width="22" height="10" id="rect230"/>
  <rect class="cls-5" x="407.5" y="310" width="22" height="10" id="rect232"/>
  <rect class="cls-5" x="385.25" y="345.67" width="22" height="10" id="rect234"/>
  <rect class="cls-5" x="407.5" y="345.67" width="22" height="10" id="rect236"/>
  <a id="a4062" xlink:href="http://saloon/scheme/order?q=204" target="_parent">
    <rect inkscape:label="#rect238" id="204" height="24.67" width="47.33" y="270.67" x="385.25" class="green"/>
  </a>
  <rect class="cls-5" x="385.25" y="260" width="22" height="10" id="rect240"/>
  <rect class="cls-5" x="407.5" y="260" width="22" height="10" id="rect242"/>
  <rect class="cls-5" x="385.25" y="295.67" width="22" height="10" id="rect244"/>
  <rect class="cls-5" x="407.5" y="295.67" width="22" height="10" id="rect246"/>
  <rect class="cls-5" x="434.32" y="258" width="10" height="49" id="rect248"/>
  <rect class="cls-5" x="434.32" y="309" width="10" height="49" id="rect250"/>
  <rect class="cls-5" x="434.32" y="359" width="10" height="49" id="rect252"/>
  <rect class="cls-5" x="434.32" y="409.5" width="10" height="49" id="rect254"/>
  <path class="cls-8" d="M161.77,88.4v-.65l.83-.8c2-1.89,2.9-2.9,2.9-4.08A1.38,1.38,0,0,0,164,81.35a2.66,2.66,0,0,0-1.66.66l-.34-.74a3.45,3.45,0,0,1,2.19-.79,2.19,2.19,0,0,1,2.39,2.27c0,1.44-1,2.6-2.69,4.19l-.61.58v0h3.49v.88Z" transform="translate(174.75 348.6)" id="path256"/>
  <path class="cls-8" d="M173.12,84.42c0,2.65-1,4.11-2.71,4.11-1.52,0-2.57-1.43-2.59-4s1.14-4.05,2.72-4.05S173.12,81.94,173.12,84.42Zm-4.23.12c0,2,.62,3.18,1.58,3.18s1.58-1.26,1.58-3.25-.48-3.18-1.58-3.18C169.56,81.29,168.89,82.42,168.89,84.54Z" transform="translate(174.75 348.6)" id="path258"/>
  <path class="cls-8" d="M175.52,84.3a1.92,1.92,0,0,1-1.25-1.75,2.19,2.19,0,0,1,2.42-2.08A2,2,0,0,1,179,82.39a2,2,0,0,1-1.3,1.82v0a2.17,2.17,0,0,1,1.57,2,2.39,2.39,0,0,1-2.65,2.27c-1.63,0-2.61-1-2.61-2.1a2.24,2.24,0,0,1,1.55-2.1Zm2.66,2.08c0-.94-.66-1.4-1.72-1.7a1.71,1.71,0,0,0-1.4,1.62,1.44,1.44,0,0,0,1.56,1.48A1.41,1.41,0,0,0,178.19,86.37Zm-2.9-3.9c0,.78.59,1.2,1.49,1.44A1.54,1.54,0,0,0,178,82.5a1.21,1.21,0,0,0-1.32-1.27A1.24,1.24,0,0,0,175.28,82.48Z" transform="translate(174.75 348.6)" id="path260"/>
  <path class="cls-8" d="M90.07,36.07v-.65l.83-.8c2-1.89,2.9-2.9,2.9-4.08A1.38,1.38,0,0,0,92.27,29a2.65,2.65,0,0,0-1.65.66l-.34-.74a3.45,3.45,0,0,1,2.19-.79,2.19,2.19,0,0,1,2.39,2.27c0,1.44-1,2.6-2.69,4.19l-.61.58v0H95v.88Z" transform="translate(174.75 348.6)" id="path262"/>
  <path class="cls-8" d="M101.42,32.08c0,2.65-1,4.11-2.71,4.11-1.52,0-2.57-1.43-2.59-4s1.14-4.05,2.72-4.05S101.42,29.6,101.42,32.08Zm-4.23.12c0,2,.62,3.18,1.58,3.18s1.58-1.26,1.58-3.25S99.87,29,98.77,29C97.86,29,97.19,30.08,97.19,32.2Z" transform="translate(174.75 348.6)" id="path264"/>
  <path class="cls-8" d="M102.38,36.07v-.65l.83-.8c2-1.89,2.9-2.9,2.9-4.08A1.38,1.38,0,0,0,104.58,29a2.65,2.65,0,0,0-1.65.66l-.34-.74a3.45,3.45,0,0,1,2.19-.79,2.19,2.19,0,0,1,2.39,2.27c0,1.44-1,2.6-2.69,4.19l-.61.58v0h3.49v.88Z" transform="translate(174.75 348.6)" id="path266"/>
  <path class="cls-8" d="M90.14-60.93v-.65l.83-.8c2-1.89,2.9-2.9,2.9-4.08A1.38,1.38,0,0,0,92.34-68a2.65,2.65,0,0,0-1.65.66l-.34-.74a3.45,3.45,0,0,1,2.19-.79,2.19,2.19,0,0,1,2.39,2.27c0,1.44-1,2.6-2.69,4.19l-.61.58v0h3.49v.88Z" transform="translate(174.75 348.6)" id="path268"/>
  <path class="cls-8" d="M101.49-64.92c0,2.65-1,4.11-2.71,4.11-1.52,0-2.57-1.43-2.59-4s1.14-4.05,2.72-4.05S101.49-67.4,101.49-64.92Zm-4.23.12c0,2,.62,3.18,1.58,3.18s1.58-1.26,1.58-3.25S99.94-68,98.84-68C97.93-68,97.26-66.92,97.26-64.8Z" transform="translate(174.75 348.6)" id="path270"/>
  <path class="cls-8" d="M102.71-62.13a3.63,3.63,0,0,0,1.73.48c1.34,0,1.77-.85,1.76-1.51,0-1.09-1-1.56-2-1.56h-.59v-.79h.59c.77,0,1.74-.4,1.74-1.32,0-.62-.4-1.18-1.37-1.18a2.86,2.86,0,0,0-1.56.52l-.29-.77a3.78,3.78,0,0,1,2.05-.6c1.54,0,2.23.91,2.23,1.86a2,2,0,0,1-1.44,1.85v0a2,2,0,0,1,1.74,2c0,1.25-1,2.34-2.84,2.34a4,4,0,0,1-2-.53Z" transform="translate(174.75 348.6)" id="path272"/>
  <a id="a4083" xlink:href="http://saloon/scheme/order?q=211" target="_parent">
    <rect inkscape:label="#rect274" id="211" height="24.67" width="27.33" y="269.67" x="331.75" class="green"/>
  </a>
  <a id="a4080" xlink:href="http://saloon/scheme/order?q=210" target="_parent">
    <rect inkscape:label="#rect276" id="210" height="24.67" width="27.33" y="319.67" x="331.75" class="green"/>
  </a>
  <a id="a4077" xlink:href="http://saloon/scheme/order?q=209" target="_parent">
    <rect inkscape:label="#rect278" id="209" height="24.67" width="27.33" y="371.67" x="331.75" class="green"/>
  </a>
  <a id="a4074" xlink:href="http://saloon/scheme/order?q=208" target="_parent">
    <rect inkscape:label="#rect280" id="208" height="24.67" width="27.33" y="421.67" x="331.75" class="green"/>
  </a>
  <rect class="cls-5" x="334.75" y="257.5" width="13.5" height="11.5" id="rect282"/>
  <rect class="cls-5" x="334.75" y="294.75" width="13.5" height="11.5" id="rect284"/>
  <rect class="cls-5" x="334.75" y="306.25" width="13.5" height="11.5" id="rect286"/>
  <rect class="cls-5" x="334.75" y="345.42" width="13.5" height="11.5" id="rect288"/>
  <rect class="cls-5" x="334.75" y="359.17" width="13.5" height="11.5" id="rect290"/>
  <rect class="cls-5" x="334.75" y="397.08" width="13.5" height="11.5" id="rect292"/>
  <rect class="cls-5" x="334.75" y="409.33" width="13.5" height="11.5" id="rect294"/>
  <rect class="cls-5" x="334.75" y="447.08" width="13.5" height="11.5" id="rect296"/>
  <rect class="cls-5" x="558.08" y="423.5" width="22" height="10" id="rect298"/>
  <rect class="cls-5" x="557.75" y="458.83" width="22" height="10" id="rect300"/>
  <a id="a4089" xlink:href="http://saloon/scheme/order?q=302" target="_parent">
    <rect id="rect302" height="24.67" width="68" y="491" x="513.42" class="green"/>
  </a>
  <rect class="cls-5" x="513.92" y="480.17" width="22" height="10" id="rect304"/>
  <rect class="cls-5" x="536.25" y="480.17" width="22" height="10" id="rect306"/>
  <rect class="cls-5" x="513.58" y="515.83" width="22" height="10" id="rect308"/>
  <rect class="cls-5" x="535.92" y="515.83" width="22" height="10" id="rect310"/>
  <rect class="cls-5" x="558.58" y="480.17" width="22" height="10" id="rect312"/>
  <rect class="cls-5" x="558.25" y="515.83" width="22" height="10" id="rect314"/>
  <a id="a4086" xlink:href="http://saloon/scheme/order?q=301" target="_parent">
    <rect inkscape:label="#rect316" id="301" height="24.67" width="68" y="552.5" x="512.92" class="green"/>
  </a>
  <rect class="cls-5" x="513.42" y="541.67" width="22" height="10" id="rect318"/>
  <rect class="cls-5" x="535.75" y="541.67" width="22" height="10" id="rect320"/>
  <rect class="cls-5" x="513.08" y="577.33" width="22" height="10" id="rect322"/>
  <rect class="cls-5" x="535.42" y="577.33" width="22" height="10" id="rect324"/>
  <rect class="cls-5" x="558.08" y="541.67" width="22" height="10" id="rect326"/>
  <rect class="cls-5" x="557.75" y="577.33" width="22" height="10" id="rect328"/>
  <a id="a4095" xlink:href="http://saloon/scheme/order?q=304" target="_parent">
    <rect inkscape:label="#rect330" id="304" height="24.67" width="68" y="372.5" x="513.42" class="green"/>
  </a>
  <rect class="cls-5" x="536.25" y="361.83" width="22" height="10" id="rect332"/>
  <rect class="cls-5" x="513.58" y="397.33" width="22" height="10" id="rect334"/>
  <rect class="cls-5" x="535.92" y="397.33" width="22" height="10" id="rect336"/>
  <rect class="cls-5" x="558.58" y="361.83" width="22" height="10" id="rect338"/>
  <rect class="cls-5" x="558.25" y="397.33" width="22" height="10" id="rect340"/>
  <rect class="cls-4" x="388.75" y="461" width="46.79" height="22" id="rect342"/>
  <rect class="cls-4" x="432.25" y="465.71" width="22" height="46.79" id="rect344"/>
  <text class="cls-9" transform="translate(393.75 475.5)" id="text346">стейшен</text>
  <text class="cls-9" transform="translate(446.77 507.98) rotate(-90)" id="text348">стейшен</text>
  <rect class="cls-4" x="18.08" y="626.67" width="91.33" height="136" id="rect350"/>
  <rect class="cls-3" x="181.08" y="629.67" width="177.33" height="136" id="rect352"/>
  <rect class="cls-4" x="179.08" y="549.67" width="177.33" height="42" id="rect354"/>
  <a id="a4053" xlink:href="http://saloon/scheme/order?q=201" target="_parent">
    <rect inkscape:label="#rect356" id="201" height="24.67" width="47.33" y="421.67" x="252.25" class="green"/>
  </a>
  <rect class="cls-5" x="252.92" y="411" width="22" height="10" id="rect358"/>
  <rect class="cls-5" x="275.25" y="411" width="22" height="10" id="rect360"/>
  <rect class="cls-5" x="252.59" y="446.67" width="22" height="10" id="rect362"/>
  <rect class="cls-5" x="274.92" y="446.67" width="22" height="10" id="rect364"/>
  <text class="cls-10" transform="translate(264.58 438.17)" id="text366">201</text>
  <text class="cls-11" transform="translate(516.75 253.17)" id="text368">LUX/ЛЮКС</text>
  <a id="a4029" xlink:href="http://saloon/scheme/order?q=101" target="_parent">
    <rect inkscape:label="#rect370" id="101" height="75.67" width="27.33" y="487.33" x="47.75" class="green"/>
  </a>
  <rect class="cls-5" x="36.92" y="475.33" width="46.5" height="10" id="rect372"/>
  <rect class="cls-5" x="36.92" y="563.33" width="46.5" height="10" id="rect374"/>
  <rect class="cls-5" x="37.17" y="485.58" width="10" height="37.5" id="rect376"/>
  <rect class="cls-5" x="37.17" y="525.08" width="10" height="37.5" id="rect378"/>
  <rect class="cls-5" x="80.71" y="499" width="13.5" height="11.5" id="rect380"/>
  <rect class="cls-5" x="80.71" y="512" width="13.5" height="11.5" id="rect382"/>
  <rect class="cls-5" x="80.71" y="525" width="13.5" height="11.5" id="rect384"/>
  <rect class="cls-5" x="80.71" y="538" width="13.5" height="11.5" id="rect386"/>
  <text class="cls-10" transform="translate(52.58 529.17)" id="text388">101</text>
  <text class="cls-12" transform="translate(26.76 695.99)" id="text390">ГАРДЕРОБ</text>
  <text class="cls-13" transform="translate(247.26 580.5)" id="text392">БАР</text>
  <a id="a4050" xlink:href="http://saloon/scheme/order?q=500" target="_parent">
    <rect inkscape:label="#rect394" id="500" height="136" width="240" y="630.67" x="366.08" class="green"/>
  </a>
  <text class="cls-7" transform="translate(446.26 683.17)" id="text396">VIP ЗАЛ</text>
  <text class="cls-10" transform="translate(473.75 707.17)" id="text398">500</text>
  <a id="a4047" xlink:href="http://saloon/scheme/order?q=106" target="_parent">
    <rect inkscape:label="#rect400" id="106" height="24.67" width="47.33" y="653" x="304.08" class="green"/>
  </a>
  <rect class="cls-5" x="304.75" y="642.33" width="22" height="10" id="rect402"/>
  <rect class="cls-5" x="327.08" y="642.33" width="22" height="10" id="rect404"/>
  <rect class="cls-5" x="304.42" y="678" width="22" height="10" id="rect406"/>
  <rect class="cls-5" x="326.75" y="678" width="22" height="10" id="rect408"/>
  <a id="a4044" xlink:href="http://saloon/scheme/order?q=107" target="_parent">
    <rect inkscape:label="#rect410" id="107" height="24.67" width="47.33" y="713.67" x="303.42" class="green"/>
  </a>
  <rect class="cls-5" x="304.08" y="703" width="22" height="10" id="rect412"/>
  <rect class="cls-5" x="326.42" y="703" width="22" height="10" id="rect414"/>
  <rect class="cls-5" x="303.75" y="738.67" width="22" height="10" id="rect416"/>
  <rect class="cls-5" x="326.08" y="738.67" width="22" height="10" id="rect418"/>
  <a id="a4041" xlink:href="http://saloon/scheme/order?q=105" target="_parent">
    <rect inkscape:label="#rect420" id="105" height="24.67" width="28.93" y="655.33" x="187.49" class="green"/>
  </a>
  <rect class="cls-5" x="188.42" y="644.67" width="22" height="10" id="rect422"/>
  <rect class="cls-5" x="188.08" y="680.33" width="22" height="10" id="rect424"/>
  <a id="a4038" xlink:href="http://saloon/scheme/order?q=104" target="_parent">
    <rect inkscape:label="#rect426" id="104" height="24.67" width="28.93" y="716" x="187.08" class="green"/>
  </a>
  <rect class="cls-5" x="187.75" y="705.34" width="22" height="10" id="rect428"/>
  <rect class="cls-5" x="187.42" y="741" width="22" height="10" id="rect430"/>
  <text class="cls-10" transform="translate(317.42 669.17) scale(0.96 1)" id="text432">106</text>
  <text class="cls-10" transform="translate(316.75 730.17) scale(0.96 1)" id="text434">107</text>
  <text class="cls-10" transform="translate(192.75 733.17) scale(0.96 1)" id="text436">104</text>
  <text class="cls-10" transform="translate(192.42 671.5) scale(0.96 1)" id="text438">105</text>
  <polygon class="cls-4" points="452.75 1 452.75 179.55 507.36 226 606.75 226 606.75 1 452.75 1" id="polygon440"/>
  <rect class="cls-5" x="513.92" y="361.83" width="22" height="10" id="rect442"/>
  <g class="cls-14" id="g468">
    <path class="cls-15" d="M-5.26,70.59l-.31-.67a5.6,5.6,0,0,1-1.48-2.83L-8,64.46c-.4-2.78-.63-5-.84-8-.07-1-.44-2.48-.63-3.68-.38-2.39-.28-1.2-.84-2.49l-.47-1.1a29.56,29.56,0,0,0-2.11-4c-.63-.9-.51-.49-1.42-.93,0,0,0-.44,0-.46.07-.92.24.26.06-1.7-.29-3.17.22-1.42.69-3.61.24-1.14.38-1,.48-1.09l1.34-1.79c.47-.68.14-.22.47-.91l.67-.9A9.23,9.23,0,0,1-9,32.3c.79-.6.24-.09,1-.41L-2.18,28c.09-.07.42-.26.49-.3.87-.47,1.19-.46,1.5-1.44a3.77,3.77,0,0,0-.39-3.67l-1.78-5.87a12.66,12.66,0,0,1-.16-3.15c-2,.77-1.93.17-3.35-.39s-2.2-.55-3.52-1c.15.22.16.25.16.26a.79.79,0,0,1,.16.14,1.55,1.55,0,0,0,.35.28,6.73,6.73,0,0,1,.84.52c.6.49.64.91,1.43,1.12-.31.47-.24.2-.39.78,1.65,1.1.84,1,1.8,4.28.34,1.14.11,3,1.14,4.93a8.46,8.46,0,0,0-2.94,1c-1.16.44.06-.78-2.59,1-.74.49-.42.1-1.72.21.71-1.49.17-2.29,0-3.75a18.53,18.53,0,0,0-1.5-6.74l-.38-.8a3.22,3.22,0,0,0-2-1.56c-.89-.34-.41.25-.69-.51-.61.88.29.27-1.16,2.39a11.1,11.1,0,0,0-1.31,2.22c-.71,1.76-1.55,2.94-2.17,4.81a10.6,10.6,0,0,0,1,.93l1.12.84c1,.83,3.85,2.81,3.92,3.94A3.4,3.4,0,0,1-15.58,31c1.5,2.7.08,10.15.75,14.19.77,4.59,1.89,8.33,2.91,12.57.35,1.45.9,1.11.57,2.87-.51,2.74,1.45,8.21,1.63,10,.41,4,1.73,4.59,2.37,7.26A26.94,26.94,0,0,0-5.9,82.35c.19-1.82.18-4.37.3-6.27.13-2.19.41-3.95.71-6.08C-5.34,70.31-5.26,69.51-5.26,70.59Z" transform="translate(174.75 348.6)" id="path444"/>
    <path class="cls-15" d="M-25.06,62.13c-.87,1.35-1.2,2.38-2.31,4l-2.44,3.64a9.11,9.11,0,0,1-.47,1.1c-.12.19-.51.66-.69.88l-1.23,1.71a13.4,13.4,0,0,0-2,4c0,.11.15,4,.06,4.62l-.51,4.79c-.48.32-.61.31-.78.78,0,0-.11-.12-.13-.08-.3.61.11-.72-.68-.13-.45.34-.34,1.79-.41,2.32-.2,1.4-1,4.67-1.7,5.54l.86,1.14s.07.09.1.12c.15-.34,0-.39.2-.09.7.47,3.14,1.76,3.92,1,.56-.56.17-4.76.24-5,.1-.47.29-.55.41-1,.32-1.08-.08-.15,0-1.21,0-.61.19-.53.29-1.05a31.58,31.58,0,0,1,.53-3.78,15.73,15.73,0,0,1,.9-3.42l1.37-3.14c.42-.76.37-1.36.72-2,.46-.86,1-.48,1.66-2.66l.81-2.13c.19-.41.25-.68.42-1.15s.24-.59.41-1l.77-2c.8-2,.9-2.89,2.07-5.43C-24,62.65-24,62.22-25.06,62.13Z" transform="translate(174.75 348.6)" id="path446"/>
    <path class="cls-15" d="M-43,26.82a2.49,2.49,0,0,1,.35-.22A.6.6,0,0,0-43,26.82Z" transform="translate(174.75 348.6)" id="path448"/>
    <path class="cls-15" d="M-37.81,44.9c2.26,0,1.84-.2,2.82-1.11l2.66-1.85.46-.33,2.81-1.7a1.84,1.84,0,0,0,.41-.38c.15-.16.49-.6.61-.77l.93-1.62c.46-.72.12-.35.34-1s.4-.65.65-.84c-.66-.52-.49-.37-.85-1.23a29.17,29.17,0,0,0-2.21-4.22c-.11,1.23-1.31,3.2-1.59,4.84a2.57,2.57,0,0,1-1.11,2c-2.36,1.55-1.64,1.59-3.28,3.19-2.47,2.42-1.27,1.77-3.83,1.49-2.31-.26-1.17-.48-2.54-.8,0-1.07-.2-2.46-.17-3.11.06-1.08.37-1.93.37-3.36-.93.34-.22.12-.45,0l.51-.59c-.07-.52-.05-.87-.08-1.39-.14-2.29.75-.85,1.59-2.67l.26-.25h.33l.19-.39c.06-.82.22-.73.53-1.3-.52.19-.43.42-1.43,1.18-1.26,1,.1.22-1.26,1.08a6.67,6.67,0,0,1-2,1.13l-.39-.82c-1.23.44.23.5-1.18.74l-1.27-.35.64-.54c.84-.52,1.47-.35,2-1a2.31,2.31,0,0,1-1.5.47c0-.06.1-.2.13-.16a3.34,3.34,0,0,1,1.33-1l-.66-.33-.16-.15A2.49,2.49,0,0,0-43,26.82c-.08.06-.08.06-.72.25a3.83,3.83,0,0,1-1.64.2l1.67-.7c0-.06-.14,0-.22-.18l0-.2a8.28,8.28,0,0,1-3.27-.42c2.21-.09,2.34.18,4-.77a6.07,6.07,0,0,1-.76.33c-.87.16-.89-.15-1-.23l1.54-.66c-1.07.28-.91.07-1.18-.15a3,3,0,0,0,1.4-.81c-1-.2-2.73,1.73-5.76,0,1.9.22,1.22,1.21,4.46-.06.65-.26.86-.3,1.15-.81-1.13.27-.85.9-3.36.81a2.52,2.52,0,0,1-1.57-.43c-1.15-.93.58.18-.47-.74-.9-1.12-1.59-1.29-1.59-3.32a.87.87,0,0,1,0-.4c0,.15,0,.27,0,.4a5.71,5.71,0,0,0,1.58,2.4c.84.75,1.14.32,1.45.43.64.22-1-.11.5.32a2,2,0,0,0,1,0l-.91-.14a5.26,5.26,0,0,0,2-.78L-46.52,21c.09-.1,1.23-.73,1.44-1.1.35-.62-.44-.29-.58-1.58.39.27.7.65,1.18.65a2.53,2.53,0,0,0,1.14-.6,20.88,20.88,0,0,1,2-1.71c-.19-.12,0-.1-.37-.19-1-.25-1.13.66-4.4-.37-.49-1.22.18.35,0-.62-.05-.34-.13,0-.34-.61.83.28,1.43-.12,2.79-.11l-1.26-1a1.22,1.22,0,0,1-.2.69c-.95-.25-.23-.33-1.18-.59-.13-.48-.48-.65-.72-1l-.07-.13c-.2-.4-.08.44-.19-.59-1,1.39.76.74-.78,1.37l-.2-1.18c0,2.86.66,2,1,3.14-1.56-1-1.12-1.32-1.34-1.85a3.53,3.53,0,0,0-.62-.7h.59a9.1,9.1,0,0,0-.78-1.18v-.2c.23-.16.44-.12.78-.59a2.7,2.7,0,0,1-.55,0,1,1,0,0,0-.33,0,.21.21,0,0,0,.09-.13c.49-.24.24-.15,1-.2-.26-.53,0-.22-.42-.56s-.24-.15-.56-.24c-.28.23.45.21-.59.21l.44-.39a1.73,1.73,0,0,0-.34-.33c-.09-.07-.27-.18-.38-.26-.92-.85-1.24-.48-2-1.36l-.47-.18v.76s-.08-.13-.09-.11V7.65c-.25-.37.41-.16-.51-.35V8.44s0-.17-.06-.14c-.19.5.16-.37-.53-.65,0-.79-.08-.08.39-.39-.32-.31.46-.2-.62-.42l-.16,0-.19,0c-.41.05-.31.07-.52.23.85,0,.5,0,.7.2-.21.64.12,0-.68.62-.17.13-.15.22-.14.25A.67.67,0,0,0-55.27,8a2.73,2.73,0,0,1-.26-.27l-.32-.44-.83.36c.47.28.3,0,.44.59-.59-.33-.22-.11-.39,0l.39.59c-.55-.13-.32-.14-.85-.27-.91-.22.22.27-.71-.12.19.73.2.25.39,1-.33.34-.25.18-.4.27l-.44.28c-.34.23.35,0-.48.27a2.55,2.55,0,0,1-.84.15c.18.46,0,.17.59.59-1.08,0-.69-.24-.78.59.52-.25.21-.18,1-.2-.2.14.07,0-.37.22l-.42.17c.19.46-.05.09.24.35l.35.24c-.67.06-.7.13-.94.64l-.09.33s0,.08,0,.1c0,.39.41-.44,0,.5.72-.19.41-.21,1-.59-.33,1.24-.78.18-.78,2,.76-.28.33-.66,1-.39.28.83-.08,0,.78.39a10.29,10.29,0,0,1-.2,2.16c.35.16-.25.08.78-.2,0,1.2.07.45.36.9.17.26,0-.06.2.36s0-.2.23.5c.84-.07.35,0,1-.39.13,1.57.7.91.15,2.28-.23.57-.27-.26-.15.47a29.06,29.06,0,0,0-3,2.29c-1.59,1.16-1.85.95-2.49,2.8-.28.82,0,1.47-.34,2.21-.76,1.85-1.44.69-1.55,3.32a2.14,2.14,0,0,1-.48,1.31c-.32.31-.18.1-.5.29l-.57.41-.11.09c-1.7,1.29-1.49,1.42-3.52,2.95a17.27,17.27,0,0,1-1.6,1.14,5.87,5.87,0,0,0-.7.47,8,8,0,0,1-2.72,1.2,8.78,8.78,0,0,0-1.65.9c-1.46.9-1.27.64-1.33,1.41a2.24,2.24,0,0,0,1.57-.39c-.14,1.74-1.64,1.19.39,2.55l.94-1c.71-1,.36-.9,1-1.14v2.16h.78V42.16a3,3,0,0,0,2.69-1.62c.88-.81,4.35-1.84,5.59-2.45l1.44-.91c.54-.36,1.43-1.67,2.45-2.65l.21-.19.24-.16c.83-.53,1.28-.59,1.5-1.44,1.84,1.23,1.81,2.83,1.6,4.73-.15,1.37.12,1.77-.32,3a4.52,4.52,0,0,0-.1,2.84c-.92.38,0,.1-.5,1.85-.27,1-1.35,1.39-2,2.35l-2.41,3.28-.09.11-.32.46A2.69,2.69,0,0,0-62.23,53c-.35,1.92-.53,1.52-1.51,3-1.42,2.13-.69,5.07.27,6.91,1.06,2,1.35,1.72,2.65,3.42l.07.09.14.15.07.07.68,2.46c.16.46.29.47.6.77.48.45.21.48,1.07.5v1.37l1.54,1.2.09.1a2.22,2.22,0,0,0,.29.29,9.51,9.51,0,0,0,.81.56,15.12,15.12,0,0,0-.77,3.89,9.37,9.37,0,0,0,1.36,3.56,3.63,3.63,0,0,0,1.45-.12c.6-.21.58-.33.89-.68a7.4,7.4,0,0,0,1.68-4.44,9.08,9.08,0,0,1-.29-2.8c.4,0,.71.44.87-1.67a6.07,6.07,0,0,0-2.17-4.72l-.46-.28c.2-.82.14-.34-.93-1.82A8.3,8.3,0,0,1-55.26,62l-.7-1.65c-.28-.53-.06-.08-.31-.47-.38-.6-.34-.35-.36-1.21,1-.24,3-2.78,3.7-3.75l1.37-1.57.1-.09a1.52,1.52,0,0,0,.27-.32c.11-.14.14-.22.32-.47l1.31-1.64-.06,9a11.25,11.25,0,0,0,.06,2.6c0,4.89.27,9.64.2,14.71l-.28,4.82a10,10,0,0,1-.5,1.86c-.4,1.21,0,1-.1,2.05-.26,2.63.78,1.8.69,4-.07,1.8-.46,2.44.45,4,1.09,1.92.85,1.46,2.63,2.43a7.71,7.71,0,0,1,.73-3c.4-1.26,0-.36.66-1.3a3.1,3.1,0,0,0,.55-1.15c-.48-.23-.71-1.74-.73-2.35,1.07-.29.86-1,1.32-2,1.75-3.7.65-3,.63-5.23a47.07,47.07,0,0,1,.43-6.25c.24-2.29.24-8.67.36-9.44.82-1.85-.11-2.72.27-5,1-6.18.09-10,.72-14.18a3.42,3.42,0,0,0,0-2c-.3-.62.1-.12-.43-.55l.63-.54c1.06.22-.23.26,1.83.62C-38.48,44-38,44.06-37.81,44.9Z" transform="translate(174.75 348.6)" id="path450"/>
    <path class="cls-15" d="M-54.27,6.8c.13,0-.13,0,0,0Z" transform="translate(174.75 348.6)" id="path452"/>
    <path class="cls-15" d="M-38.28,10.12c.15-.79-.09.1.08-.51.57-2,2.7-2.36,3.13-3.33-.7-.29-.42.23.57-2.77l.72-2c.25-.51.31-.27.54-.84.6-1.54-.59-.46,1-2.3A2.1,2.1,0,0,0-31.94-2a3.64,3.64,0,0,0,.49-.88,4.1,4.1,0,0,1,.23-.36c.36-.54,0,.24.32-.47a27.87,27.87,0,0,1,1.41-4.08l.18-.41c.13-.38.12-.08.13-.65-1.49,0-1.19.92-2.16,1.57.24-1,.51-.6.59-1.57-1.62,0-1.16.79-2.24,2.46-.66,1-.7.61-.89,1.46-2,0-.66-1-2-1.57a5.17,5.17,0,0,0-1-.19c.11,1.33.34.06.67,2.46.27,1.93,1.39,2.71-1,6.23l0,.06c.44-.59-.6.89,0,0l-.13.17c-.17.23-.21.27-.33.45-.25.38-.33.57-.6,1-1.11,1.55-2.65,3-2.88,5a2.39,2.39,0,0,1-.32,1.25l-.79.89A2.27,2.27,0,0,0-38.28,10.12Z" transform="translate(174.75 348.6)" id="path454"/>
    <path class="cls-15" d="M57.07,76.66c0-1.35.46-3.67.21-4.73a86.34,86.34,0,0,1-1-9.58l-.5-4.45a.34.34,0,0,0-.06-.17s-.08-.1-.08-.08,0-.07,0-.08a.71.71,0,0,0,0-.17c-.06,0,0-.08,0,0a.84.84,0,0,0,.19-.16l-.3-.88v.69l-.39-.31c-3,2.81-4.9,2.74-6.06,5s-1,1.13-1.4,2.14l.56.82c.25.49.86,2.38,1.84,4.24l1.11,2c.17.26.1.12.32.47l1.21,1.93c.66.93.31.59.62,1.54l3.91,9.82c1.18,3.93.58,2.26-.21,4.57-1.15,3.39-5.19,4-7,5.17,0,4,3.16,2.23,6.05,1.74.87-.15,1.72-.49,2.63-.56C59.24,89.13,56.9,83,57.07,76.66Z" transform="translate(174.75 348.6)" id="path456"/>
    <path class="cls-15" d="M38.28,74.52c-2.19,2.73.3,3.4-4.22,8.53-1.44,1.63-3.56,4.7-3.57,4.68s-.07.08-.1.11l.42.21c-.27.57-.12.37-.24,1.11,0,0-.11.59-.13.66l-.3.57.48.72c.18-.2.06-.16.2.07.79.53.76.19.83.62s-.12.22-.21.22l-.11,0-.25-.13-.13-.1c.48,1.63.51.48,1.13,1.57,0,.73.06.84-.42,1.24-.7.59-2.39.93-3,1.51.17.3.06.62.77,1.17a2.3,2.3,0,0,0,1.38.58,3.86,3.86,0,0,0,2.68-.42L34.1,97a7.67,7.67,0,0,0,2-3.67c0-.66-.19-.82-.19-1.77a6.16,6.16,0,0,0,2-.2c.38-1.64-.1-1.42.59-4.12,1-3.82.59-9.31.59-13.47A4.42,4.42,0,0,0,38.28,74.52Z" transform="translate(174.75 348.6)" id="path458"/>
    <path class="cls-15" d="M45.38,47.79a9.1,9.1,0,0,1-.64-3.27c0-3.77-1.62-8-1.81-9.59-.14-1.17-.33-2.19-.52-3.26a25.93,25.93,0,0,0-.4-3.25c-1.33-4.29-.35-2.86-.82-6-.19-1.3-.67-1.88,0-3.15-.75.25-1.17.22-1.37,1H37.48c0-1,.2-1.67.2-2.94-.76.4-1.08.45-1.18,1.57-1.3-1,.59-3.64-.39-5.49-1.09.73-1.14,2-1.18,3.73-.52-.38-.5-.47-.58-2.36-.05-1.17-.05-1.86-1.18-2-.4.83.2,3.45.2,4.71,0,0-.06-.15-.07-.12s-.06-.1-.07-.13l-.48-1.28c-.13-.3-1.49-3.7-1.64-1.7,0,.42.29,1.46.31,2.05a1,1,0,0,1-.31-.45L31,15.69c0,.05-.08-.15,0,0a.42.42,0,0,0,0-.08c-.23-.9.42-.82-.58-1.09a2.4,2.4,0,0,0,.39-1.76c-.9.07-.53.16-1.18.59V12.16c-1.44.12-1.07,1.92-2,2.94a5.6,5.6,0,0,0-.2-2.35c-1.54.17-.49,1.5-1.56,4.12-.15.36-.19.63-.35,1s-.29.61-.44.93A4,4,0,0,1,24,20.59V18.65c-.64.93-.13,3.12,0,4.3s-.06,3.47.39,4.31c0-2.36.83-1.08,1.29-2.84.18-.68.08-1,.3-1.67.05-.16.17-.44.28-.7l.34-.84c.6-1.47,2.56-1.45,3.68-4.56a2.16,2.16,0,0,1,.33.46l.31.48c.56,1,.52,2.31,1.08,4.21.2.66.26.74.43,1.33a3.79,3.79,0,0,0,.74,1.81l.53.45a3,3,0,0,0,1.27.49,15.37,15.37,0,0,0,.59,4.71,24.07,24.07,0,0,0,.15,3.2c.39,3.05-2.26,3.64-1.39,6.27.24.72.22.5.85.92-.45,1.92-1,2.06-1.4,3.3a23.05,23.05,0,0,0-.56,4.15,41,41,0,0,1-.34,4.37l-.26,4.65a8.07,8.07,0,0,1,.1,2,16,16,0,0,0-.08,2.29c0,1.56-.41,2.83-.4,4.5a22.16,22.16,0,0,1,0,2.34c-.08.62-.34,1.11-.49,1.87a19.83,19.83,0,0,0-.47,4.36c1.76-1.11,1.13-2.35,3.56-5.59.35-.46.44-.71.78-1.18l4.31-9a22.83,22.83,0,0,1,2.38-3.54l-.06-1.18c.39.4-.11-.22.3.29.22.28.15.09.29.45a5,5,0,0,0,1.71-2c1.15-2.55,2-2.37,1.6-4C45.82,47.73,45.81,49.07,45.38,47.79Z" transform="translate(174.75 348.6)" id="path460"/>
    <path class="cls-15" d="M16.32,64.9c0-5.7.2-3.83.51-8.08.2-2.8,0-5.58.16-8.42-1.12.25-.26,0-.73.4L15.1,50c-.86.94-1.56,3.08-3.79,5.81-.53.66-1,1-1.57,1.76A92.39,92.39,0,0,0,4.17,68.08a19.15,19.15,0,0,0-.25,5.83c.19,3.19-.62,8.53-1.1,11.77A2.13,2.13,0,0,0,4.06,84.4c.5-1.59-.76,0,.52-3.77a12.46,12.46,0,0,0,.66-1.69c.38-1.78,0-3.41,1.16-5.9,1-2.13,1.8-8.08,4.1-13.54.56-1.34.41-1.65,1.88-1.65a8.52,8.52,0,0,0,1,2.55,22.61,22.61,0,0,1,.86,2.67,6.13,6.13,0,0,1,.46,1.31,13.27,13.27,0,0,0,.71,2.82C15.9,69,16,71,16.83,72.81a16.81,16.81,0,0,1,1,4.25,6.63,6.63,0,0,0,.26,2.28c.4.92-.05.23.49.66-.61-2.86-.35-5.41-.54-8.23C17.92,69.3,16.35,68.41,16.32,64.9Z" transform="translate(174.75 348.6)" id="path462"/>
    <path class="cls-15" d="M4.15,32c-.08,0-.14.17,0,0Z" transform="translate(174.75 348.6)" id="path464"/>
    <path class="cls-15" d="M4,41.37l.2-.39c.17-.29,0-.28.2,0a21.88,21.88,0,0,0,1.53-5.15,21.18,21.18,0,0,0-.16-3.09,19.92,19.92,0,0,1,.51-3.14L4.32,31c-.6.44-.32-.06-.57.61a4.43,4.43,0,0,0,1-.2c-.25.37-.34.33-.46.51L4.15,32s.1,0,.11.19l-.08.51A12.24,12.24,0,0,1,2.43,37.3c-.67,1.15-.27,1.34-1.81,2.51l-2.11,2c-.66.67-2.8,3.45-4.27,4-1.62.57-1.66-.29-3,1.68-.44.63-.25.39-1,.78.19,2.3,2.93,2.27,3.65,1.9a5.37,5.37,0,0,0,1.48-1.47l.66-.91a10.48,10.48,0,0,1,.68-.89,4.9,4.9,0,0,1,1.53-1.41L1.1,43.62a20,20,0,0,0,2.65-2.05Z" transform="translate(174.75 348.6)" id="path466"/>
  </g>
  <path class="cls-16" d="M144.92,17.85h.59v-.39C144.94,17.59,145.23,17.43,144.92,17.85Z" transform="translate(174.75 348.6)" id="path470"/>
  <path class="cls-16" d="M286.08,26.87c.13.48-.09.27.39.39Z" transform="translate(174.75 348.6)" id="path472"/>
  <polygon class="cls-17" points="433.58 351.55 433.58 351.35 433.35 351.51 433.58 351.55" id="polygon474"/>
  <polygon class="cls-18" points="174.59 345.27 174.59 345.08 174.36 345.24 174.59 345.27" id="polygon476"/>
  <polygon class="cls-18" points="325.94 382.72 325.94 382.52 325.71 382.69 325.94 382.72" id="polygon478"/>
  <polygon class="cls-18" points="174.78 347.63 174.59 347.63 174.75 347.85 174.78 347.63" id="polygon480"/>
  <polygon class="cls-16" points="176.94 371.94 176.94 371.74 176.71 371.9 176.94 371.94" id="polygon482"/>
  <path class="cls-18" d="M-75,154.3s0-.08,0-.06h0s-.08,0-.06.06Z" transform="translate(174.75 348.6)" id="path484"/>
  <path class="cls-16" d="M151.39,34.32l-.2-.2Z" transform="translate(174.75 348.6)" id="path486"/>
  <path class="cls-17" d="M3,25.69l-.11-.42Z" transform="translate(174.75 348.6)" id="path488"/>
  <path class="cls-4" d="M47,2.63c-.14.15,0,.09,0,0Z" transform="translate(174.75 348.6)" id="path490"/>
  <path class="cls-4" d="M-50.27,18.88c0-.13,0-.25,0-.4A.87.87,0,0,0-50.27,18.88Z" transform="translate(174.75 348.6)" id="path492"/>
  <path class="cls-4" d="M64-4.14l-.68-4.05-.95-2.19C62-11,61.69-11.58,61-11.76c0,1.1.37,1.43.39,2.55C59-9.21,58.63-7.52,59-6.4l.79,1.19A4.11,4.11,0,0,1,60.5-3.8c.66,1.58.91,1,.9,3.22A22.63,22.63,0,0,1,61,4.52c-.15.38-.1.6-.69.49s-.15-.24-.87-.5c.29-1.23.14-2.12-.78-2.74.07.82.42.9-.59,1a5.21,5.21,0,0,0-.39-1.57l-1.17.23-.2,1c-.09-1,0-.23-.21-.77L56,1.45c-.2-.54-.39-1-1-1.19L54.14,0c-.6.44-.32-.13-.39.78a6.63,6.63,0,0,0-2.85.06c-1.31.15-1.45.73-2.64-.06.19.7.34.47.78.78-1.86.16-1,1.26-2.35,1.37-.14-.31-.43-.46,0-.57-.31-.19,1-.21,0,0h0a1,1,0,0,0,.24.1c.11,0,.1.1.08.16l.13-.13c.28-.26.22-.3-.18-.55s-.13-.16-.85,0c0,1.29-.14,1,.39,1.76-1,.08-1.15.32-1.18,1.37a1.55,1.55,0,0,1-.42-.36l-.09-.1-.27-.32c0,1.59-.08.46.59,1.37l-2.07.87L43,6.67a15.3,15.3,0,0,0-.82-1.73,15.73,15.73,0,0,1-1.56-3.73L40.06-.22a4.5,4.5,0,0,1-.22-.56c-.3-.82-.47-.92-.82-1.73L35.29-9.57a19.29,19.29,0,0,0-1.52-3.18l-3-4-.09-.11L30.57-17a13.32,13.32,0,0,1-1.75-3.74c-.2-.61,0-.54-.75-.62-.87,1.81.54,3.68.72,4.18l.45,1.51c-2.1,0-2.43.32-1.78,3,.18.73.11.75,1,.77a1.48,1.48,0,0,0,0-1.57c1,0,.48-.13,1,.35.26.23,0,0,.28.31a20.94,20.94,0,0,0,1.71,2c.89.69,1.37.17,2.13,3.55l1.2,4.49c.3.89.31,1.5.55,2.39a46.4,46.4,0,0,0,2.38,6.24c.34.78.45,1.44.78,2.16.88,1.91,1.5,4.2,2.52,6.11s-.27,4,.16,5.13c-.68,1.27-.21,1.85,0,3.15.47,3.18-.5,1.75.82,6a25.93,25.93,0,0,1,.4,3.25c.19,1.08.38,2.1.52,3.26.18,1.57,1.85,5.83,1.81,9.59a9.1,9.1,0,0,0,.64,3.27c.43,1.28.44-.06.71,1.25.35,1.67-.45,1.5-1.6,4a5,5,0,0,1-1.71,2l-.54.44A22.83,22.83,0,0,0,39.85,59l-4.31,9c-.34.47-.43.72-.78,1.18-2.43,3.25-1.8,4.48-3.56,5.59-.49.88-.28,0-.84,1.58a34.63,34.63,0,0,0-1.6,4.28L27.68,84.9l-.23-.75c-.43-2,.34-7.39-.78-13.93a22.85,22.85,0,0,1-.22-7.14c.09-.64,0-1.21.11-1.86a76.71,76.71,0,0,0,.73-9.46c0-4.19.72-6.73.59-11.77a23.6,23.6,0,0,0-.6-3.32c-.14-.95-.18-.69-.52-1.44l-2.41-8c-.45-.84-.26-3.13-.39-4.31s-.64-3.37,0-4.3a33.71,33.71,0,0,0,.38-5.13c0-2.8,1.28-6,.28-10.27A11.11,11.11,0,0,1,24.14,1c-.16-3.44.24-3.5-.45-8-.38-2.5.29-3.94-.85-5.62-.85-1.25.07-.86-2.92-3.35l-5.1-3.33-.11-.09-.11-.09-2.14-1.58a8.31,8.31,0,0,0-.92-.45,7,7,0,0,1-.94-.63c-1.49-1-2.24-2-3.78-.87-.64.47-.48.74-.87,1.89s.06,3.47,1.23,4c3,1.3,3.47-.75,5.38.3a13.13,13.13,0,0,1,2.83,2.66c1,1.53,3.26,3.56,3.26,4.19a9.91,9.91,0,0,1-.89,1.66c-1.05,2.16-.52,4.49-1.87,7a12.36,12.36,0,0,0-.94,3c-.25,1,.08,1.29-.35,1.79-.61.71-.89.35-1.84.32,0-2.75.37-.81-.2-3.53a2.42,2.42,0,0,1-.07-1,4.69,4.69,0,0,0-.56-2.08c-.28-1,0-.28,0-1s-.2,0-.29-1v-.39c.14-.52,0-.16.2-.59.29.16.21.1.59.2-.1-.45.46-.85-1.76-1.37l0-.1c-.07.09-.07-.12,0,0a.44.44,0,0,0,.06-.12l.11-.24s.05-.09.07-.14a1.43,1.43,0,0,1-.59.2V-8c-.49.52-1.53.12-2.08-.27S7.79-8,7.68-9l-1.57.39-.27-.46c-.24.24.08.2-.52.27-.24-.58.45-1.08-.68-1.31A4.53,4.53,0,0,1,4-10.19l.22.78A4.77,4.77,0,0,0,3-9.6l.43.35c.43.49.18,0,.35.63a4.8,4.8,0,0,1-2.35.78l.18.37a.35.35,0,0,0,.06.12c.06-.12.05.06,0,0l0,.09c-1,0-.75-.49-1,.2,0,0-.67.33.25.7.31.13.2.07.54.08-.43.58-.59.59-1.57.59.44.6-.13.32.78.39C.4-4.7,1-5,0-4.9v.39H.62c-.41.35-.33.39-.78.2.19.72.21.41.59,1H-.17c.22.58-.42.31.59.39-.3.43,0,.24-.59.39v.78c.55-.06.31-.09.45-.13S.5-2,.49-2L.62-2A1.51,1.51,0,0,1,0-1H.62C.2-.35.33-.6.42-.39c.79-.53.78-1.16,1,.34L1.8,1.37l.07.12L2,1.61,2,1.73c1.28,2.08,1.33.42,1.83,2.09.13.46.2.68.29,1.08a8.59,8.59,0,0,0-2.67.27,9.31,9.31,0,0,0-1.11.26c-.45.16-.61.33-1.06.51-1.43.57-1.11-.11-3.53.78a10.19,10.19,0,0,1-1.23.34,2.09,2.09,0,0,1,.19-1.18c.32-1.06.3-2.56.52-3.79.45-2.51,1.94-.6,3.2-2.48-.08-1-.44-.88-.48-1.38s.35-.84.28-1.73C-1.86-5-2.43-4.73-3.87-5.14c-1.07-.3-.15.05-2,.14-.74,0,0-.05-.69.17-1.34.42-1.1.2-1.65,1.7-1,2.76.67.42-.62,5.06-.17.61-.37,1-.57,1.58a11.71,11.71,0,0,0-1,5.51c0,1.53-.34,3,1,3.18,1.31.41,2.24.45,3.52,1s1.32,1.16,3.35.39a11.82,11.82,0,0,0,3.14.37c.08.91.15.54.61,1.15C3.45,18,2.75,16.69,3,18.95c.11.8.81,3.66,1.35,4.14.71.64.39,0,.93,1a15.48,15.48,0,0,1-1.94,0l-1.2-.76c.07.81.19.85,1.44,1.3a7.34,7.34,0,0,0,2.09.66v.39a2.85,2.85,0,0,0-.75,0l-.3.1c-1.08.35-.35.17-1.69-.15.37,1.53,2.14.41,3.14.39v.39c-1.61.13-1,1.18-3.53.59.67.91,1.08.48,2.16.39C3.4,30,3.13,28.44,1.4,28c.48,1.8,3.36.78,4.71.78l.12.78a19.92,19.92,0,0,0-.51,3.14,21.18,21.18,0,0,1,.16,3.09A21.88,21.88,0,0,1,4.34,41h-.2l-.2.39-.2.2C3.67,42.63,2,44.62,1.44,46.32L-.27,50.68c-.08.19-.25.52-.38.79l-2.79,6.82c-1.25,2.59-1.09,3.61-1.88,5.37-.61,1.37-.31,2.69-.1,4.14.07.48.06.5.13,1,.13,1-.22.52.4,1.16-.3,2.14-.57,3.89-.71,6.08-.12,1.9-.11,4.45-.3,6.27a26.94,26.94,0,0,1-1.45-4.43c-.64-2.67-2-3.22-2.37-7.26-.18-1.79-2.14-7.25-1.63-10,.33-1.76-.22-1.42-.57-2.87-1-4.24-2.14-8-2.91-12.57-.68-4,.75-11.49-.75-14.19a3.4,3.4,0,0,0,1.3-2.59c-.08-1.12-2.89-3.11-3.92-3.94l-1.12-.84a10.6,10.6,0,0,1-1-.93c.61-1.87,1.46-3,2.17-4.81a11.1,11.1,0,0,1,1.31-2.22c1.45-2.12.55-1.5,1.16-2.39,1.1-1.91.2-4,2.42-6.37l.4-.39.1-.09A6.38,6.38,0,0,0-11.29,5a5.6,5.6,0,0,1,.38-.79c.47-.73.29-.15.58-.82s.2-1.51-.74-.95-.45,1-1.27,1.33c-.47-2,0-3.6,0-5.49l-1-.1c0-.89.19-1-.78-1.08a4.44,4.44,0,0,0-.2,1c-1.15-1.21-1.14.79-1.12,1.59l-.84,6.45a6.87,6.87,0,0,1-.89,3l-.43.75-.24.35A15.66,15.66,0,0,0-20,13.74c-.31.64-.24.55-1,.82-2.89,1.11-1.68-.84-2.7-1.5-.2-.13-.47-.2-.67-.31.89-1.33.53-.24.59-2.75-1.16,0-1-.37-2-.59.64-.41.46.12,1.89-1.08.75-.63.35-.3.27-.49-.59-.21.22.11-1,.39.16-.28.1-.21.2-.59-.78.37-.78.31-1.12.13a2.42,2.42,0,0,1-.45-.33c1.12-.09.25-.3,1.37-.39,0,0-.11-.1-.13-.06s-.11-.05-.14-.06c-.23-.11-.18-.08-.41-.2l-.58-.55c-.9-1-1.92-1.15-3.41-1.31-2.23-.24-4-.83-5.73,1.17L-35,6.2a.44.44,0,0,0-.06.08c-.44,1-2.57,1.38-3.13,3.33-.17.6.06-.28-.08.51a2.27,2.27,0,0,1-4,.67l-2-1.39c-.22-.14-.25-.13-.5-.29-1.56-1-6.06-3.38-7-4.16C-54.31,2.9-52.83,4.47-55.15,3A6.08,6.08,0,0,0-57.61,2a6.27,6.27,0,0,0-2.94-.59,1.33,1.33,0,0,0,.75,1.4c1,.55,1.05-.11,1.4.75-.78.38-.52-.08-2,.58-1.09.5-3.24.63-3.86,1.24-.28.27,0,0-.25.34l-.07.13c-.73,1.1-.63.19-.72,1.24.93.45,2,0,3.14,0a4.37,4.37,0,0,1-2,.59v.78A9.75,9.75,0,0,0-62,8.35c1.23-.28.47-.25,1.68-.18,1,.05,2.38-.52,3.64-.52l.83-.36c.39.14.15.13.49,0s.27-.13.37-.27.11-.18.52-.23l.19,0c-.13,0,.13,0,0,0l.16,0c1.08.22.3.11.62.42l.2,0c.92.2.26,0,.51.35l.08-.17.47.18c.75.88,1.07.51,2,1.36.11.08.29.19.38.26a1.73,1.73,0,0,1,.34.33c-.06.26-.11.2.15.18s.2,0,.56.24.16,0,.42.56l.47.5c.86.88.61.11.71,1.07.6-.25.54.08,1.13.63s.7.52,1.22,1l1.26,1c-1.36,0-2,.39-2.79.11.21.59.28.27.34.61.14,1-.52-.6,0,.62,3.27,1,3.45.12,4.4.37.36.09.18.07.37.19a20.88,20.88,0,0,0-2,1.71,2.53,2.53,0,0,1-1.14.6c-.48,0-.79-.38-1.18-.65.14,1.28.93,1,.58,1.58-.21.36-1.35,1-1.44,1.1l1.84.12a5.26,5.26,0,0,1-2,.78l.91.14a2,2,0,0,1-1,0c-1.52-.43.14-.1-.5-.32-.31-.11-.6.32-1.45-.43a5.71,5.71,0,0,1-1.58-2.4c0,2,.69,2.2,1.59,3.32,1,.91-.69-.19.47.74a2.52,2.52,0,0,0,1.57.43c2.51.09,2.24-.54,3.36-.81-.3.51-.5.55-1.15.81-3.24,1.27-2.57.28-4.46.06,3,1.77,4.73-.16,5.76,0a3,3,0,0,1-1.4.81c.27.22.11.43,1.18.15l-1.54.66c.08.08.1.39,1,.23a6.07,6.07,0,0,0,.76-.33c-1.64.94-1.78.68-4,.77a8.28,8.28,0,0,0,3.27.42l0,.2c.07.14.18.13.22.18l-1.67.7a3.83,3.83,0,0,0,1.64-.2c.64-.19.64-.18.72-.25a.6.6,0,0,1,.35-.22,2.48,2.48,0,0,0-.35.22,2.49,2.49,0,0,1-1.18.91l.16.15.66.33a3.34,3.34,0,0,0-1.33,1s-.09.1-.13.16a2.31,2.31,0,0,0,1.5-.47c-.52.7-1.14.52-2,1l-.64.54,1.27.35c1.41-.24-.06-.3,1.18-.74l.39.82a6.67,6.67,0,0,0,2-1.13c1.36-.86,0-.11,1.26-1.08,1-.76.91-1,1.43-1.18-.31.57-.47.49-.53,1.3l-.19.39c-.16.26.12.35-.33,0l-.26.25c.57.37.34.4-.05.84l-.21.2-.52.67c.59-.16.62-.28,1-.73.12-.13.28-.33.37-.42.54-.53-.17-.15.56-.42-.07.88-.36.76-.86,1.49-.63.92-.31.73-1.29,1.26l.39.39-.41.38c-.45.4.09.14-.51.4l-.51.59c.22.12-.48.34.45,0,.34.13.07.19.39,0,.26.2-.41.2.59.2l.59-.78c.59-.16.62-.28,1-.73.12-.13.28-.33.37-.42.54-.53-.17-.15.56-.42-.3,1.11-.68.34-.78,1.57a6.5,6.5,0,0,0,1.68-2,21.31,21.31,0,0,0,1.74-3.55l.5-.87V30c.53-.61.59-2.2.59-3.14h.2a36.87,36.87,0,0,0,.12,4,2.63,2.63,0,0,1-.4,1.76l-.21.37,0,.09-.05.1-.19.33c1.29-.11,1-1.39,1.7-1.39.32,0,.46-1.61.46-2.14l.2,1.57c.54-.4.41-.72.52-1.65a12.56,12.56,0,0,0-.13-2.07c.48.56.37.87.73,1.43s0,0,.27.33c1.72,2,.23-.76.18-1.37.57-.2,0,.46.59.2-.2-.86-.51-.82-.59-1.76a20.37,20.37,0,0,1,1.57,3.18A29.16,29.16,0,0,1-27,34.07c.35.86.19.71.85,1.23l-.69,3.54C-27,41.49-27,40.44-28.69,43l-3.67,8.68a24.33,24.33,0,0,1-2.29,3.4l-.16.23-.08.12a20.29,20.29,0,0,0-1.75,2.37l2,.59a1.42,1.42,0,0,0-.39,1.18,2.79,2.79,0,0,0,1.37.59,22.22,22.22,0,0,1-2.07,8.12l-3.49,4.55A12.06,12.06,0,0,0-41,77.17a11,11,0,0,0-.7,3.22,11.18,11.18,0,0,1-.39,2.35c-.29,1.19-1,5.4-1.38,6.27l-1,1.77a3.1,3.1,0,0,1-.55,1.15c-.71.94-.26,0-.66,1.3a7.71,7.71,0,0,0-.73,3c.23.63.06.29.54.67s.34.12.75.62c.68.85.2.76,1.3,1.21.88.52,1.14,1.22,2.7,1.46a12.84,12.84,0,0,0,4.17.09l.19-.85c.85-1.61-.1-1.76-.39-3l-.2.09s-.09-.16-.1-.12l-.86-1.14-1.11-2.83c-.63-1.41-.44-2.1.13-4.41A17.49,17.49,0,0,1-38,84.76c.23-.48.23-.6.5-1.07s.26-.55.52-1.05l2.23-4a11.36,11.36,0,0,0,.48-1.14,13.4,13.4,0,0,1,2-4L-31,71.74c.17-.22.57-.69.69-.88a9.11,9.11,0,0,0,.47-1.1l2.44-3.64c1.11-1.62,1.44-2.65,2.31-4,1,.1,1,.52,2.35.37,1,.19,1.84.55,2.62.77s.6-.15,1,.72l3.1,5.72c.19.43.18.7.4,1.17,1.48,3.11.5,3.95,2.81,9.54l5.17,8.75c.67,1.14.54,1.34,0,2.2-1.94,2.91-.59,2.94-2.31,4.75A2.39,2.39,0,0,0-10.57,98c.18.94-.27.43.41.57a13.27,13.27,0,0,0,6.08-.15c1,0,1.22-.56,2.27-.35a10.75,10.75,0,0,1,1.16.43,4.58,4.58,0,0,0,1.28.2,5.73,5.73,0,0,0,3.14.4c.5-.41,1.28-2.09.43-2.7A12.62,12.62,0,0,1,1.4,95.09V91.56H2.58c.34-1.47-.12-1.35,0-2.93.08-1,.54-1.92.24-3,.48-3.24,1.29-8.58,1.1-11.77a19.15,19.15,0,0,1,.25-5.83A92.39,92.39,0,0,1,9.74,57.55c.54-.78,1-1.11,1.57-1.76,2.22-2.73,2.93-4.87,3.79-5.81l1.17-1.18c.47-.39-.38-.15.73-.4-.15,2.84,0,5.62-.16,8.42-.31,4.25-.56,2.39-.51,8.08,0,3.51,1.6,4.4,1.76,6.86.18,2.83-.07,5.38.54,8.23-.45,1.4.62,5.62.61,8,0,1.17.06,1.7,1,2a22.16,22.16,0,0,1-.16,2.78,11.9,11.9,0,0,1-.15,1.42,8,8,0,0,0-.28,1.29,2.08,2.08,0,0,0-1.87,1.29c-.7,1.16.5,1.07,1.68,1.07.06.77-.12.61.59.77a5.16,5.16,0,0,0,3.53.86,5.38,5.38,0,0,0,2-.23c.63-.3.57-.79.95-1.43v-.76h1.57c0-.55-.07-.3.15-.63l.45-.35c.59-.57,2.28-.91,3-1.51.48-.4.37-.51.42-1.24-.62-1.09-.65.06-1.13-1.57a3.82,3.82,0,0,1-.13-.59l-.2-.07-.48-.72-.35-.57c-.58-1.37.56-.9.59-2,0,0,.09-.14.1-.11s2.13-3,3.57-4.68c4.52-5.12,2-5.79,4.22-8.53a4.42,4.42,0,0,1,.77-.75l.91-.91.2-.19c.5-.5.59-.75,1.1-1.26l5.17-5.81c.21-.26.06,0,.27-.32s.73-1,1-1.37c.41-1,.26.11,1.4-2.14s3.07-2.23,6.06-5l.39-.38.3.88-.11.49a.34.34,0,0,1,.06.17l.5,4.45a86.34,86.34,0,0,0,1,9.58c.24,1.06-.18,3.38-.21,4.73-.17,6.38,2.17,12.46,1.64,19-.33.91-.15.56-.24,1.57-.16,1.68-.32,0-.58,1.4-.22,1.23,1,1.74,2,1.9A13.91,13.91,0,0,0,64,101.83Z" transform="translate(174.75 348.6)" id="path494"/>
  <text class="cls-19" transform="matrix(0.91, -0.42, 0.42, 0.91, 493.14, 747.04)" id="text498">
    <tspan xml:space="preserve" id="tspan496">VIP  ЗАЛ</tspan>  </text>
  <text class="cls-19" transform="matrix(0.91, -0.42, 0.42, 0.91, 545.26, 721.87)" id="text502">
    <tspan xml:space="preserve" id="tspan500">VIP  ЗАЛ</tspan>  </text>
  <text class="cls-19" transform="matrix(0.91, -0.42, 0.42, 0.91, 529.44, 751.16)" id="text506">
    <tspan xml:space="preserve" id="tspan504">VIP  ЗАЛ</tspan>  </text>
  <text class="cls-12" transform="translate(149.95 720.94) rotate(-90)" id="text508">ESTRADA/ЭСТРАДА</text>
  <path class="cls-20" d="M-42.46-297.85v-2.36h-4V-301l3.85-5.5h1.26v5.36h1.21v.9h-1.21v2.36Zm0-3.26V-304q0-.68,0-1.35h0c-.27.5-.48.88-.72,1.27l-2.11,2.93v0Z" transform="translate(174.75 348.6)" id="path510"/>
  <path class="cls-20" d="M-33.52-302.25c0,2.93-1.1,4.55-3,4.55-1.68,0-2.84-1.58-2.86-4.43s1.26-4.48,3-4.48S-33.52-305-33.52-302.25Zm-4.68.13c0,2.24.69,3.51,1.75,3.51s1.75-1.39,1.75-3.59-.53-3.51-1.75-3.51C-37.46-305.72-38.2-304.47-38.2-302.12Z" transform="translate(174.75 348.6)" id="path512"/>
  <path class="cls-20" d="M-32.18-299.18a4,4,0,0,0,1.91.53c1.48,0,2-.94,1.95-1.67,0-1.21-1.1-1.72-2.23-1.72h-.65v-.88h.65c.85,0,1.92-.44,1.92-1.46,0-.69-.44-1.3-1.51-1.3a3.16,3.16,0,0,0-1.72.57l-.32-.85a4.18,4.18,0,0,1,2.27-.66c1.7,0,2.47,1,2.47,2.06a2.16,2.16,0,0,1-1.59,2v0a2.23,2.23,0,0,1,1.92,2.2c0,1.38-1.09,2.59-3.14,2.59a4.38,4.38,0,0,1-2.24-.58Z" transform="translate(174.75 348.6)" id="path514"/>
  <path class="cls-20" d="M38.54-297.85v-2.36h-4V-301l3.85-5.5h1.26v5.36h1.21v.9H39.64v2.36Zm0-3.26V-304q0-.68,0-1.35h0c-.27.5-.48.88-.72,1.27l-2.11,2.93v0Z" transform="translate(174.75 348.6)" id="path516"/>
  <path class="cls-20" d="M47.48-302.25c0,2.93-1.1,4.55-3,4.55-1.68,0-2.84-1.58-2.86-4.43s1.26-4.48,3-4.48S47.48-305,47.48-302.25Zm-4.68.13c0,2.24.69,3.51,1.75,3.51S46.3-300,46.3-302.2s-.53-3.51-1.75-3.51C43.54-305.72,42.8-304.47,42.8-302.12Z" transform="translate(174.75 348.6)" id="path518"/>
  <path class="cls-20" d="M52.15-297.85v-2.36h-4V-301l3.85-5.5h1.26v5.36h1.21v.9H53.25v2.36Zm0-3.26V-304q0-.68,0-1.35h0c-.27.5-.48.88-.72,1.27l-2.11,2.93v0Z" transform="translate(174.75 348.6)" id="path520"/>
  <path class="cls-20" d="M121.7-296.35v-2.36h-4v-.76l3.85-5.5h1.26v5.36H124v.9H122.8v2.36Zm0-3.26v-2.88q0-.68,0-1.35h0c-.27.5-.48.88-.72,1.27l-2.11,2.93v0Z" transform="translate(174.75 348.6)" id="path522"/>
  <path class="cls-20" d="M130.64-300.75c0,2.93-1.1,4.55-3,4.55-1.68,0-2.84-1.58-2.86-4.43s1.26-4.48,3-4.48S130.64-303.5,130.64-300.75Zm-4.68.13c0,2.24.69,3.51,1.75,3.51s1.75-1.39,1.75-3.59-.53-3.51-1.75-3.51C126.71-304.22,126-303,126-300.62Z" transform="translate(174.75 348.6)" id="path524"/>
  <path class="cls-20" d="M136.85-304h-3.29l-.33,2.21a4.93,4.93,0,0,1,.7,0,3.49,3.49,0,0,1,1.86.46,2.43,2.43,0,0,1,1.23,2.2,3,3,0,0,1-3.21,2.94,4.26,4.26,0,0,1-2.15-.53l.29-.89a3.88,3.88,0,0,0,1.86.48,1.89,1.89,0,0,0,2-1.87c0-1.11-.76-1.9-2.47-1.9a9.34,9.34,0,0,0-1.21.08l.56-4.14h4.12Z" transform="translate(174.75 348.6)" id="path526"/>
  <path class="cls-20" d="M198.4-298.34v-2.36h-4v-.76l3.85-5.5h1.26v5.36h1.21v.9H199.5v2.36Zm0-3.26v-2.88q0-.68,0-1.35h0c-.27.5-.48.88-.72,1.27l-2.11,2.93v0Z" transform="translate(174.75 348.6)" id="path528"/>
  <path class="cls-20" d="M207.34-302.74c0,2.93-1.1,4.55-3,4.55-1.68,0-2.84-1.58-2.86-4.43s1.26-4.48,3-4.48S207.34-305.49,207.34-302.74Zm-4.68.13c0,2.24.69,3.51,1.75,3.51s1.75-1.39,1.75-3.59-.53-3.51-1.75-3.51C203.4-306.2,202.66-305,202.66-302.61Z" transform="translate(174.75 348.6)" id="path530"/>
  <path class="cls-20" d="M213.32-306.14a4.32,4.32,0,0,0-.87.07,3.45,3.45,0,0,0-3,3h0a2.57,2.57,0,0,1,2.09-1,2.57,2.57,0,0,1,2.6,2.78,2.89,2.89,0,0,1-2.88,3c-1.83,0-3-1.43-3-3.67a5.36,5.36,0,0,1,1.46-3.88,4.69,4.69,0,0,1,2.76-1.27,5.57,5.57,0,0,1,.85-.07Zm-.33,5a1.75,1.75,0,0,0-1.78-2,1.92,1.92,0,0,0-1.68,1.06,1.09,1.09,0,0,0-.12.5c0,1.42.68,2.48,1.91,2.48C212.32-299.09,213-299.93,213-301.16Z" transform="translate(174.75 348.6)" id="path532"/>
  <path class="cls-20" d="M197.21-231.35v-2.36h-4v-.76L197-240h1.26v5.36h1.21v.9h-1.21v2.36Zm0-3.26v-2.88q0-.68,0-1.35h0c-.27.5-.48.88-.72,1.27l-2.11,2.93v0Z" transform="translate(174.75 348.6)" id="path534"/>
  <path class="cls-20" d="M206.15-235.75c0,2.93-1.1,4.55-3,4.55-1.68,0-2.84-1.58-2.86-4.43s1.26-4.48,3-4.48S206.15-238.5,206.15-235.75Zm-4.68.13c0,2.24.69,3.51,1.75,3.51S205-233.5,205-235.7s-.53-3.51-1.75-3.51C202.21-239.22,201.46-238,201.46-235.62Z" transform="translate(174.75 348.6)" id="path536"/>
  <path class="cls-20" d="M207.89-232.17a4.86,4.86,0,0,0,.94,0,3.16,3.16,0,0,0,1.8-.84,3.78,3.78,0,0,0,1.14-2.28h0a2.53,2.53,0,0,1-2,.92,2.49,2.49,0,0,1-2.53-2.64,3,3,0,0,1,2.94-3.06c1.76,0,2.85,1.42,2.85,3.65a5.43,5.43,0,0,1-1.49,4,4.31,4.31,0,0,1-2.51,1.15,5.45,5.45,0,0,1-1.07.07Zm.42-4.95a1.66,1.66,0,0,0,1.66,1.83,1.93,1.93,0,0,0,1.7-.9.83.83,0,0,0,.11-.44c0-1.47-.54-2.6-1.78-2.6C209-239.23,208.31-238.35,208.31-237.12Z" transform="translate(174.75 348.6)" id="path538"/>
  <path class="cls-20" d="M58.87-245.35v-2.36h-4v-.76l3.85-5.5H60v5.36h1.21v.9H60v2.36Zm0-3.26v-2.88q0-.68,0-1.35h0c-.27.5-.48.88-.72,1.27L56-248.64v0Z" transform="translate(174.75 348.6)" id="path540"/>
  <path class="cls-20" d="M67.81-249.75c0,2.93-1.1,4.55-3,4.55-1.68,0-2.84-1.58-2.86-4.43s1.26-4.48,3-4.48S67.81-252.5,67.81-249.75Zm-4.68.13c0,2.24.69,3.51,1.75,3.51s1.75-1.39,1.75-3.59-.53-3.51-1.75-3.51C63.87-253.22,63.13-252,63.13-249.62Z" transform="translate(174.75 348.6)" id="path542"/>
  <path class="cls-20" d="M74.47-254v.77l-3.75,7.85H69.51L73.25-253v0H69v-1Z" transform="translate(174.75 348.6)" id="path544"/>
  <path class="cls-20" d="M130.54-245.35v-2.36h-4v-.76l3.85-5.5h1.26v5.36h1.21v.9h-1.21v2.36Zm0-3.26v-2.88q0-.68,0-1.35h0c-.27.5-.48.88-.72,1.27l-2.11,2.93v0Z" transform="translate(174.75 348.6)" id="path546"/>
  <path class="cls-20" d="M139.48-249.75c0,2.93-1.1,4.55-3,4.55-1.68,0-2.84-1.58-2.86-4.43s1.26-4.48,3-4.48S139.48-252.5,139.48-249.75Zm-4.68.13c0,2.24.69,3.51,1.75,3.51s1.75-1.39,1.75-3.59-.53-3.51-1.75-3.51C135.54-253.22,134.8-252,134.8-249.62Z" transform="translate(174.75 348.6)" id="path548"/>
  <path class="cls-20" d="M142.13-249.89a2.13,2.13,0,0,1-1.38-1.94,2.42,2.42,0,0,1,2.68-2.29A2.23,2.23,0,0,1,146-252a2.19,2.19,0,0,1-1.43,2v0a2.4,2.4,0,0,1,1.74,2.23,2.65,2.65,0,0,1-2.93,2.51c-1.8,0-2.89-1.06-2.89-2.32a2.48,2.48,0,0,1,1.71-2.32Zm2.94,2.29c0-1-.73-1.55-1.9-1.88a1.89,1.89,0,0,0-1.55,1.79,1.59,1.59,0,0,0,1.72,1.63A1.56,1.56,0,0,0,145.08-247.59Zm-3.21-4.31c0,.86.65,1.33,1.64,1.59a1.7,1.7,0,0,0,1.31-1.56,1.34,1.34,0,0,0-1.46-1.41A1.37,1.37,0,0,0,141.87-251.9Z" transform="translate(174.75 348.6)" id="path550"/>
  <path class="cls-20" d="M1.54-190.35v-2.36h-4v-.76L1.38-199H2.64v5.36H3.84v.9H2.64v2.36Zm0-3.26v-2.88q0-.68,0-1.35h0c-.27.5-.48.88-.72,1.27l-2.11,2.93v0Z" transform="translate(174.75 348.6)" id="path552"/>
  <path class="cls-20" d="M10.48-194.75c0,2.93-1.1,4.55-3,4.55-1.68,0-2.84-1.58-2.86-4.43s1.26-4.48,3-4.48S10.48-197.5,10.48-194.75Zm-4.68.13c0,2.24.69,3.51,1.75,3.51S9.3-192.5,9.3-194.7s-.53-3.51-1.75-3.51C6.54-198.22,5.8-197,5.8-194.62Z" transform="translate(174.75 348.6)" id="path554"/>
  <path class="cls-20" d="M11.54-190.35v-.72l.92-.89c2.2-2.1,3.21-3.21,3.21-4.51a1.53,1.53,0,0,0-1.7-1.68,2.93,2.93,0,0,0-1.83.73l-.37-.82a3.82,3.82,0,0,1,2.43-.87,2.42,2.42,0,0,1,2.64,2.51c0,1.59-1.15,2.88-3,4.63l-.68.64v0H17v1Z" transform="translate(174.75 348.6)" id="path556"/>
  <path class="cls-20" d="M60.87-190.35v-2.36h-4v-.76l3.85-5.5H62v5.36h1.21v.9H62v2.36Zm0-3.26v-2.88q0-.68,0-1.35h0c-.27.5-.48.88-.72,1.27L58-193.64v0Z" transform="translate(174.75 348.6)" id="path558"/>
  <path class="cls-20" d="M69.81-194.75c0,2.93-1.1,4.55-3,4.55-1.68,0-2.84-1.58-2.86-4.43s1.26-4.48,3-4.48S69.81-197.5,69.81-194.75Zm-4.68.13c0,2.24.69,3.51,1.75,3.51s1.75-1.39,1.75-3.59-.53-3.51-1.75-3.51C65.87-198.22,65.13-197,65.13-194.62Z" transform="translate(174.75 348.6)" id="path560"/>
  <path class="cls-20" d="M73.41-197.88h0l-1.5.81-.23-.89,1.88-1h1v8.62H73.41Z" transform="translate(174.75 348.6)" id="path562"/>
  <path class="cls-20" d="M161.87-63v-.72l.92-.89c2.2-2.1,3.21-3.21,3.21-4.51a1.53,1.53,0,0,0-1.7-1.68,2.94,2.94,0,0,0-1.83.73l-.37-.82a3.82,3.82,0,0,1,2.43-.87,2.43,2.43,0,0,1,2.64,2.51c0,1.59-1.15,2.88-3,4.63l-.68.64v0h3.86v1Z" transform="translate(174.75 348.6)" id="path564"/>
  <path class="cls-20" d="M171.21-70.55h0l-1.5.81-.23-.89,1.88-1h1V-63h-1.13Z" transform="translate(174.75 348.6)" id="path566"/>
  <path class="cls-20" d="M178-70.55h0l-1.5.81-.23-.89,1.88-1h1V-63H178Z" transform="translate(174.75 348.6)" id="path568"/>
  <path class="cls-20" d="M160.83-12.35v-.72l.91-.89c2.2-2.1,3.21-3.21,3.21-4.51a1.53,1.53,0,0,0-1.7-1.68,2.94,2.94,0,0,0-1.83.73l-.37-.82a3.82,3.82,0,0,1,2.43-.87,2.43,2.43,0,0,1,2.64,2.51c0,1.59-1.15,2.88-3,4.63l-.68.64v0h3.86v1Z" transform="translate(174.75 348.6)" id="path570"/>
  <path class="cls-20" d="M170.17-19.88h0l-1.5.81-.23-.89,1.88-1h1v8.62h-1.13Z" transform="translate(174.75 348.6)" id="path572"/>
  <path class="cls-20" d="M180.19-16.75c0,2.93-1.1,4.55-3,4.55-1.68,0-2.84-1.58-2.86-4.43s1.26-4.48,3-4.48S180.19-19.5,180.19-16.75Zm-4.68.13c0,2.24.69,3.51,1.75,3.51S179-14.5,179-16.7s-.53-3.51-1.75-3.51C176.25-20.22,175.51-19,175.51-16.62Z" transform="translate(174.75 348.6)" id="path574"/>
  <path class="cls-20" d="M160.83,40v-.72l.91-.89c2.2-2.1,3.21-3.21,3.21-4.51a1.53,1.53,0,0,0-1.7-1.68,2.94,2.94,0,0,0-1.83.73l-.37-.82a3.82,3.82,0,0,1,2.43-.87,2.43,2.43,0,0,1,2.64,2.51c0,1.59-1.15,2.88-3,4.63l-.68.64v0h3.86v1Z" transform="translate(174.75 348.6)" id="path576"/>
  <path class="cls-20" d="M173.38,35.58c0,2.93-1.1,4.55-3,4.55-1.68,0-2.84-1.58-2.86-4.43s1.26-4.48,3-4.48S173.38,32.83,173.38,35.58Zm-4.68.13c0,2.24.69,3.51,1.75,3.51s1.75-1.39,1.75-3.59-.53-3.51-1.75-3.51C169.44,32.12,168.7,33.36,168.7,35.71Z" transform="translate(174.75 348.6)" id="path578"/>
  <path class="cls-20" d="M175.12,39.16a4.86,4.86,0,0,0,.94,0,3.16,3.16,0,0,0,1.8-.84A3.78,3.78,0,0,0,179,36h0a2.53,2.53,0,0,1-2,.92,2.49,2.49,0,0,1-2.53-2.64,3,3,0,0,1,2.94-3.06c1.76,0,2.85,1.42,2.85,3.65a5.43,5.43,0,0,1-1.49,4A4.31,4.31,0,0,1,176.2,40a5.44,5.44,0,0,1-1.07.07Zm.42-4.95A1.66,1.66,0,0,0,177.2,36a1.93,1.93,0,0,0,1.7-.9.83.83,0,0,0,.11-.44c0-1.47-.54-2.6-1.78-2.6C176.25,32.1,175.54,33,175.54,34.21Z" transform="translate(174.75 348.6)" id="path580"/>
  <path class="cls-20" d="M160.85,89.31V88.6l.92-.89C164,85.61,165,84.5,165,83.2a1.53,1.53,0,0,0-1.7-1.68,2.94,2.94,0,0,0-1.83.73l-.37-.82a3.82,3.82,0,0,1,2.43-.87,2.43,2.43,0,0,1,2.64,2.51c0,1.59-1.15,2.88-3,4.63l-.68.64v0h3.86v1Z" transform="translate(174.75 348.6)" id="path582"/>
  <path class="cls-20" d="M173.39,84.91c0,2.93-1.1,4.55-3,4.55-1.68,0-2.84-1.58-2.86-4.43s1.26-4.48,3-4.48S173.39,82.17,173.39,84.91Zm-4.68.13c0,2.24.69,3.51,1.75,3.51s1.75-1.39,1.75-3.59-.53-3.51-1.75-3.51C169.46,81.45,168.71,82.7,168.71,85Z" transform="translate(174.75 348.6)" id="path584"/>
  <path class="cls-20" d="M176,84.78a2.13,2.13,0,0,1-1.38-1.94,2.42,2.42,0,0,1,2.68-2.29,2.23,2.23,0,0,1,2.52,2.12,2.19,2.19,0,0,1-1.43,2v0A2.4,2.4,0,0,1,180.17,87a2.65,2.65,0,0,1-2.93,2.51c-1.8,0-2.89-1.06-2.89-2.32a2.48,2.48,0,0,1,1.71-2.32ZM179,87.07c0-1-.73-1.55-1.9-1.88A1.89,1.89,0,0,0,175.55,87a1.59,1.59,0,0,0,1.72,1.63A1.56,1.56,0,0,0,179,87.07Zm-3.21-4.31c0,.86.65,1.33,1.64,1.59a1.7,1.7,0,0,0,1.31-1.56,1.34,1.34,0,0,0-1.46-1.41A1.37,1.37,0,0,0,175.78,82.76Z" transform="translate(174.75 348.6)" id="path586"/>
  <path class="cls-20" d="M224.88-62.35v-.72l.92-.89c2.2-2.1,3.21-3.21,3.21-4.51a1.53,1.53,0,0,0-1.7-1.68,2.93,2.93,0,0,0-1.83.73l-.37-.82a3.82,3.82,0,0,1,2.43-.87,2.42,2.42,0,0,1,2.64,2.51c0,1.59-1.15,2.88-3,4.63l-.68.64v0h3.86v1Z" transform="translate(174.75 348.6)" id="path588"/>
  <path class="cls-20" d="M237.43-66.75c0,2.93-1.1,4.55-3,4.55-1.68,0-2.84-1.58-2.86-4.43s1.26-4.48,3-4.48S237.43-69.5,237.43-66.75Zm-4.68.13c0,2.24.69,3.51,1.75,3.51s1.75-1.39,1.75-3.59-.53-3.51-1.75-3.51C233.49-70.22,232.75-69,232.75-66.62Z" transform="translate(174.75 348.6)" id="path590"/>
  <path class="cls-20" d="M242.1-62.35v-2.36h-4v-.76l3.85-5.5h1.26v5.36h1.21v.9H243.2v2.36Zm0-3.26v-2.88q0-.68,0-1.35h0c-.27.5-.48.87-.72,1.27l-2.11,2.93v0Z" transform="translate(174.75 348.6)" id="path592"/>
  <path class="cls-20" d="M225.18-11v-.72l.92-.89c2.2-2.1,3.21-3.21,3.21-4.51a1.53,1.53,0,0,0-1.7-1.68,2.94,2.94,0,0,0-1.83.73l-.37-.82a3.82,3.82,0,0,1,2.43-.87,2.43,2.43,0,0,1,2.64,2.51c0,1.59-1.15,2.88-3,4.63l-.68.64v0h3.86v1Z" transform="translate(174.75 348.6)" id="path594"/>
  <path class="cls-20" d="M237.73-15.42c0,2.93-1.1,4.55-3,4.55-1.68,0-2.84-1.58-2.86-4.43s1.26-4.48,3-4.48S237.73-18.17,237.73-15.42Zm-4.68.13c0,2.24.69,3.51,1.75,3.51s1.75-1.39,1.75-3.59-.53-3.51-1.75-3.51C233.79-18.88,233-17.64,233-15.29Z" transform="translate(174.75 348.6)" id="path596"/>
  <path class="cls-20" d="M243.93-18.66h-3.29l-.33,2.21a4.91,4.91,0,0,1,.7,0,3.48,3.48,0,0,1,1.86.46,2.43,2.43,0,0,1,1.23,2.2,3,3,0,0,1-3.21,2.94,4.25,4.25,0,0,1-2.15-.53l.29-.89a3.88,3.88,0,0,0,1.86.48,1.89,1.89,0,0,0,2-1.87c0-1.11-.76-1.9-2.47-1.9a9.31,9.31,0,0,0-1.21.08l.56-4.14h4.12Z" transform="translate(174.75 348.6)" id="path598"/>
  <path class="cls-20" d="M225,41.31V40.6l.92-.89c2.2-2.1,3.21-3.21,3.21-4.51a1.53,1.53,0,0,0-1.7-1.68,2.94,2.94,0,0,0-1.83.73l-.37-.82a3.82,3.82,0,0,1,2.43-.87,2.43,2.43,0,0,1,2.64,2.51c0,1.59-1.15,2.88-3,4.63l-.68.64v0h3.86v1Z" transform="translate(174.75 348.6)" id="path600"/>
  <path class="cls-20" d="M237.5,36.91c0,2.93-1.1,4.55-3,4.55-1.68,0-2.84-1.58-2.86-4.43s1.26-4.48,3-4.48S237.5,34.17,237.5,36.91Zm-4.68.13c0,2.24.69,3.51,1.75,3.51s1.75-1.39,1.75-3.59-.53-3.51-1.75-3.51C233.56,33.45,232.82,34.7,232.82,37Z" transform="translate(174.75 348.6)" id="path602"/>
  <path class="cls-20" d="M243.48,33.52a4.31,4.31,0,0,0-.87.07,3.45,3.45,0,0,0-3,3h0a2.63,2.63,0,0,1,4.69,1.78,2.89,2.89,0,0,1-2.88,3c-1.83,0-3-1.43-3-3.67a5.36,5.36,0,0,1,1.46-3.88,4.69,4.69,0,0,1,2.76-1.27,5.59,5.59,0,0,1,.85-.07Zm-.33,5a1.75,1.75,0,0,0-1.78-2,1.92,1.92,0,0,0-1.68,1.06,1.1,1.1,0,0,0-.12.5c0,1.42.68,2.48,1.91,2.48C242.48,40.56,243.15,39.72,243.15,38.49Z" transform="translate(174.75 348.6)" id="path604"/>
  <path class="cls-20" d="M225,88v-.72l.91-.89c2.2-2.1,3.21-3.21,3.21-4.51a1.53,1.53,0,0,0-1.7-1.68,2.94,2.94,0,0,0-1.83.73l-.37-.82a3.82,3.82,0,0,1,2.43-.87,2.43,2.43,0,0,1,2.64,2.51c0,1.59-1.15,2.88-3,4.63l-.68.64v0h3.86v1Z" transform="translate(174.75 348.6)" id="path606"/>
  <path class="cls-20" d="M237.59,83.58c0,2.93-1.1,4.55-3,4.55-1.68,0-2.84-1.58-2.87-4.43s1.26-4.48,3-4.48S237.59,80.83,237.59,83.58Zm-4.68.13c0,2.24.69,3.51,1.75,3.51s1.75-1.39,1.75-3.59-.53-3.51-1.75-3.51C233.65,80.12,232.91,81.36,232.91,83.71Z" transform="translate(174.75 348.6)" id="path608"/>
  <path class="cls-20" d="M244.25,79.36v.77L240.49,88h-1.21L243,80.36v0h-4.22v-1Z" transform="translate(174.75 348.6)" id="path610"/>
  <path class="cls-20" d="M363.93,219a4,4,0,0,0,1.91.53c1.48,0,2-.94,1.95-1.67,0-1.21-1.1-1.72-2.23-1.72h-.65v-.87h.65c.85,0,1.92-.44,1.92-1.46,0-.69-.44-1.3-1.51-1.3a3.16,3.16,0,0,0-1.72.57l-.32-.85a4.18,4.18,0,0,1,2.27-.66c1.7,0,2.47,1,2.47,2.05a2.16,2.16,0,0,1-1.59,2v0a2.23,2.23,0,0,1,1.92,2.2c0,1.38-1.09,2.59-3.14,2.59a4.38,4.38,0,0,1-2.24-.58Z" transform="translate(174.75 348.6)" id="path612"/>
  <path class="cls-20" d="M376.2,215.91c0,2.93-1.1,4.55-3,4.55-1.68,0-2.84-1.58-2.86-4.43s1.26-4.48,3-4.48S376.2,213.17,376.2,215.91Zm-4.68.13c0,2.24.69,3.51,1.75,3.51S375,218.17,375,216s-.53-3.51-1.75-3.51C372.26,212.45,371.52,213.7,371.52,216Z" transform="translate(174.75 348.6)" id="path614"/>
  <path class="cls-20" d="M379.79,212.78h0l-1.5.81-.23-.89,1.88-1h1v8.62h-1.13Z" transform="translate(174.75 348.6)" id="path616"/>
  <path class="cls-20" d="M363,157.66a4,4,0,0,0,1.91.53c1.48,0,2-.94,1.95-1.67,0-1.21-1.1-1.72-2.23-1.72H364v-.87h.65c.85,0,1.92-.44,1.92-1.46,0-.69-.44-1.3-1.51-1.3a3.16,3.16,0,0,0-1.72.57l-.32-.85a4.18,4.18,0,0,1,2.27-.66c1.7,0,2.47,1,2.47,2.05a2.16,2.16,0,0,1-1.59,2v0a2.23,2.23,0,0,1,1.92,2.2c0,1.38-1.09,2.59-3.14,2.59a4.38,4.38,0,0,1-2.24-.58Z" transform="translate(174.75 348.6)" id="path618"/>
  <path class="cls-20" d="M375.28,154.58c0,2.93-1.1,4.55-3,4.55-1.68,0-2.84-1.58-2.86-4.43s1.26-4.48,3-4.48S375.28,151.83,375.28,154.58Zm-4.68.13c0,2.24.69,3.51,1.75,3.51s1.75-1.39,1.75-3.59-.53-3.51-1.75-3.51C371.34,151.12,370.6,152.36,370.6,154.71Z" transform="translate(174.75 348.6)" id="path620"/>
  <path class="cls-20" d="M376.34,159v-.72l.92-.89c2.2-2.1,3.21-3.21,3.21-4.51a1.53,1.53,0,0,0-1.7-1.68,2.94,2.94,0,0,0-1.83.73l-.37-.82a3.82,3.82,0,0,1,2.43-.87,2.42,2.42,0,0,1,2.64,2.51c0,1.59-1.15,2.88-3,4.63L378,158v0h3.86v1Z" transform="translate(174.75 348.6)" id="path622"/>
  <path class="cls-20" d="M363.09,100.66a4,4,0,0,0,1.91.53c1.48,0,2-.94,1.95-1.67,0-1.21-1.1-1.72-2.23-1.72h-.65v-.87h.65c.85,0,1.92-.44,1.92-1.46,0-.69-.44-1.3-1.51-1.3a3.16,3.16,0,0,0-1.72.57l-.32-.85a4.18,4.18,0,0,1,2.27-.66c1.7,0,2.47,1,2.47,2.05a2.16,2.16,0,0,1-1.59,2v0a2.23,2.23,0,0,1,1.92,2.2c0,1.38-1.09,2.59-3.14,2.59a4.38,4.38,0,0,1-2.24-.58Z" transform="translate(174.75 348.6)" id="path624"/>
  <path class="cls-20" d="M375.36,97.58c0,2.93-1.1,4.55-3,4.55-1.68,0-2.84-1.58-2.86-4.43s1.26-4.48,3-4.48S375.36,94.83,375.36,97.58Zm-4.68.13c0,2.24.69,3.51,1.75,3.51s1.75-1.39,1.75-3.59-.53-3.51-1.75-3.51C371.42,94.12,370.68,95.36,370.68,97.71Z" transform="translate(174.75 348.6)" id="path626"/>
  <path class="cls-20" d="M376.7,100.66a4,4,0,0,0,1.91.53c1.48,0,2-.94,1.95-1.67,0-1.21-1.1-1.72-2.23-1.72h-.65v-.87h.65c.85,0,1.92-.44,1.92-1.46,0-.69-.44-1.3-1.51-1.3a3.16,3.16,0,0,0-1.72.57l-.32-.85a4.18,4.18,0,0,1,2.27-.66c1.7,0,2.47,1,2.47,2.05a2.16,2.16,0,0,1-1.59,2v0a2.23,2.23,0,0,1,1.92,2.2c0,1.38-1.09,2.59-3.14,2.59a4.38,4.38,0,0,1-2.24-.58Z" transform="translate(174.75 348.6)" id="path628"/>
  <path class="cls-20" d="M362.8,40a4,4,0,0,0,1.91.53c1.48,0,2-.94,1.95-1.67,0-1.21-1.1-1.72-2.23-1.72h-.65v-.88h.65c.85,0,1.92-.44,1.92-1.46,0-.69-.44-1.3-1.51-1.3a3.16,3.16,0,0,0-1.72.57l-.32-.85a4.19,4.19,0,0,1,2.27-.66c1.7,0,2.47,1,2.47,2.06a2.16,2.16,0,0,1-1.59,2v0a2.23,2.23,0,0,1,1.92,2.2c0,1.38-1.09,2.59-3.14,2.59a4.38,4.38,0,0,1-2.24-.58Z" transform="translate(174.75 348.6)" id="path630"/>
  <path class="cls-20" d="M375.07,36.91c0,2.93-1.1,4.55-3,4.55-1.68,0-2.84-1.58-2.86-4.43s1.26-4.48,3-4.48S375.07,34.17,375.07,36.91Zm-4.68.13c0,2.24.69,3.51,1.75,3.51s1.75-1.39,1.75-3.59-.53-3.51-1.75-3.51C371.13,33.45,370.39,34.7,370.39,37Z" transform="translate(174.75 348.6)" id="path632"/>
  <path class="cls-20" d="M379.74,41.31V39h-4V38.2l3.85-5.5h1.26v5.36H382V39h-1.21v2.36Zm0-3.26V35.18q0-.68,0-1.35h0c-.27.5-.48.87-.72,1.27L376.92,38v0Z" transform="translate(174.75 348.6)" id="path634"/>
  <path class="cls-20" d="M371.15-11a4,4,0,0,0,1.91.53c1.48,0,2-.94,1.95-1.67,0-1.21-1.1-1.72-2.23-1.72h-.65v-.88h.65c.85,0,1.92-.44,1.92-1.46,0-.69-.44-1.3-1.51-1.3a3.16,3.16,0,0,0-1.72.57l-.32-.85a4.19,4.19,0,0,1,2.27-.66c1.7,0,2.47,1,2.47,2.06a2.16,2.16,0,0,1-1.59,2v0a2.23,2.23,0,0,1,1.92,2.2c0,1.38-1.09,2.59-3.14,2.59a4.38,4.38,0,0,1-2.24-.58Z" transform="translate(174.75 348.6)" id="path636"/>
  <path class="cls-20" d="M383.42-14.09c0,2.93-1.1,4.55-3,4.55-1.68,0-2.84-1.58-2.86-4.43s1.26-4.48,3-4.48S383.42-16.83,383.42-14.09Zm-4.68.13c0,2.24.69,3.51,1.75,3.51s1.75-1.39,1.75-3.59-.53-3.51-1.75-3.51C379.48-17.55,378.74-16.3,378.74-14Z" transform="translate(174.75 348.6)" id="path638"/>
  <path class="cls-20" d="M389.63-17.32h-3.29L386-15.11a4.92,4.92,0,0,1,.7,0,3.48,3.48,0,0,1,1.86.46,2.43,2.43,0,0,1,1.23,2.2,3,3,0,0,1-3.21,2.94,4.25,4.25,0,0,1-2.15-.53l.29-.89a3.88,3.88,0,0,0,1.86.48,1.89,1.89,0,0,0,2-1.87c0-1.11-.76-1.9-2.47-1.9a9.31,9.31,0,0,0-1.21.08l.56-4.14h4.12Z" transform="translate(174.75 348.6)" id="path640"/>
  <path class="cls-20" d="M370.93-59.68a4,4,0,0,0,1.91.53c1.48,0,2-.94,1.95-1.67,0-1.21-1.1-1.72-2.23-1.72h-.65v-.88h.65c.85,0,1.92-.44,1.92-1.46,0-.69-.44-1.3-1.51-1.3a3.16,3.16,0,0,0-1.72.57l-.32-.85a4.19,4.19,0,0,1,2.27-.66c1.7,0,2.47,1,2.47,2.06a2.16,2.16,0,0,1-1.59,2v0a2.23,2.23,0,0,1,1.92,2.2c0,1.38-1.09,2.59-3.14,2.59a4.38,4.38,0,0,1-2.24-.58Z" transform="translate(174.75 348.6)" id="path642"/>
  <path class="cls-20" d="M383.2-62.75c0,2.93-1.1,4.55-3,4.55-1.68,0-2.84-1.58-2.86-4.43s1.26-4.48,3-4.48S383.2-65.5,383.2-62.75Zm-4.68.13c0,2.24.69,3.51,1.75,3.51S382-60.5,382-62.7s-.53-3.51-1.75-3.51C379.26-66.22,378.52-65,378.52-62.62Z" transform="translate(174.75 348.6)" id="path644"/>
  <path class="cls-20" d="M389.18-66.15a4.31,4.31,0,0,0-.87.07,3.45,3.45,0,0,0-3,3h0a2.57,2.57,0,0,1,2.09-1,2.57,2.57,0,0,1,2.6,2.78,2.89,2.89,0,0,1-2.88,3c-1.83,0-3-1.43-3-3.67a5.36,5.36,0,0,1,1.46-3.88A4.69,4.69,0,0,1,388.33-67a5.59,5.59,0,0,1,.85-.07Zm-.33,5a1.75,1.75,0,0,0-1.78-2,1.92,1.92,0,0,0-1.68,1.06,1.1,1.1,0,0,0-.12.5c0,1.42.68,2.48,1.91,2.48C388.17-59.11,388.85-59.94,388.85-61.18Z" transform="translate(174.75 348.6)" id="path646"/>
</svg>
